<svg xmlns="http://www.w3.org/2000/svg"><defs><font id="EpilogueSemiBold" horiz-adv-x="0"><font-face font-family="EpilogueSemiBold" font-weight="600" units-per-em="2000" ascent="1600" descent="-400" x-height="1062" cap-height="1475" bbox="-483 -467 2437 2199" underline-thickness="50" underline-position="-125" unicode-range="U+000D-FB02"/><glyph glyph-name="fi" unicode="fi" horiz-adv-x="1371" d="M261 0v852H36v210h225v95q0 93 25 163.5t68 119.5 98.5 79.5 119 44.5 126.5 14q60 0 91.5-7t42.5-12v-212q-12 4-41.5 9.5T727 1362q-61 0-101-17.5t-62-48.5-31-71.5-9-88.5v-74h294V852H524V0H261zm723 0v1062h260V0H984zm131 1258q-64 0-111.5 34.5T956 1389q0 61 47.5 95t111.5 34q63 0 110-34t47-95q0-62-47-96.5t-110-34.5z"/><glyph glyph-name="fl" unicode="fl" horiz-adv-x="1400" d="M261 0v852H36v210h225v95q0 93 25 163.5t68 119.5 98.5 79.5 119 44.5 126.5 14q60 0 91.5-7t42.5-12v-212q-12 4-41.5 9.5T727 1362q-61 0-101-17.5t-62-48.5-31-71.5-9-88.5v-74h294V852H524V0H261zm1002 1563V0h-259v1563h259z"/><glyph glyph-name="f_f" unicode="ff" horiz-adv-x="1714" d="M261 0v852H36v210h225v95q0 93 25 163.5t68 119.5 98.5 79.5 119 44.5 126.5 14q60 0 91.5-7t42.5-12v-212q-12 4-41.5 9.5T727 1362q-61 0-101-17.5t-62-48.5-31-71.5-9-88.5v-74h294V852H524V0H261zm857 0v852H893v210h225v95q0 93 25 163.5t68 119.5 98.5 79.5 119 44.5 126.5 14q60 0 91.5-7t42.5-12v-212q-12 4-41.5 9.5t-63.5 5.5q-61 0-101-17.5t-62-48.5-31-71.5-9-88.5v-74h294V852h-294V0h-263z"/><glyph glyph-name="f_f_i" unicode="ffi" horiz-adv-x="2228" d="M261 0v852H36v210h225v95q0 93 25 163.5t68 119.5 98.5 79.5 119 44.5 126.5 14q60 0 91.5-7t42.5-12v-212q-12 4-41.5 9.5T727 1362q-61 0-101-17.5t-62-48.5-31-71.5-9-88.5v-74h294V852H524V0H261zm857 0v852H893v210h225v95q0 93 25 163.5t68 119.5 98.5 79.5 119 44.5 126.5 14q60 0 91.5-7t42.5-12v-212q-12 4-41.5 9.5t-63.5 5.5q-61 0-101-17.5t-62-48.5-31-71.5-9-88.5v-74h294V852h-294V0h-263zm723 0v1062h260V0h-260zm131 1258q-64 0-111.5 34.5T1813 1389q0 61 47.5 95t111.5 34q63 0 110-34t47-95q0-62-47-96.5t-110-34.5z"/><glyph glyph-name="f_f_l" unicode="ffl" horiz-adv-x="2257" d="M261 0v852H36v210h225v95q0 93 25 163.5t68 119.5 98.5 79.5 119 44.5 126.5 14q60 0 91.5-7t42.5-12v-212q-12 4-41.5 9.5T727 1362q-61 0-101-17.5t-62-48.5-31-71.5-9-88.5v-74h294V852H524V0H261zm857 0v852H893v210h225v95q0 93 25 163.5t68 119.5 98.5 79.5 119 44.5 126.5 14q60 0 91.5-7t42.5-12v-212q-12 4-41.5 9.5t-63.5 5.5q-61 0-101-17.5t-62-48.5-31-71.5-9-88.5v-74h294V852h-294V0h-263zm1002 1563V0h-259v1563h259z"/><glyph glyph-name=".notdef" horiz-adv-x="669" d="M80 73v1344h509V73H80zm150 103-30 26 109 98-109 98 30 26 109-98 109 98 30-26-109-98 109-98-30-26-109 98zm0 436-30 26 109 98-109 98 30 26 109-98 109 98 30-26-109-98 109-98-30-26-109 98zM119 107h431v1276H119V107zm111 941-30 26 110 98-110 98 30 25 109-97 109 97 30-25-110-98 110-98-30-26-109 98z"/><glyph glyph-name=".null"/><glyph glyph-name="nonmarkingreturn" horiz-adv-x="666"/><glyph glyph-name="CR" horiz-adv-x="884"/><glyph glyph-name="space" horiz-adv-x="500"/><glyph glyph-name="exclam" unicode="!" horiz-adv-x="596" d="M392 1473 342 391H181l-52 1082h263zM262-28q-62 0-105 43t-43 105q0 61 43 104.5T262 268q61 0 104.5-43.5T410 120q0-62-43.5-105T262-28z"/><glyph glyph-name="quotedbl" unicode="&quot;" horiz-adv-x="816" d="m309 1475-24-470H138l-23 470h194zm345 0-24-470H484l-24 470h194z"/><glyph glyph-name="numbersign" unicode="#" horiz-adv-x="1691" d="M609 1475h228L471 0H243zm556 0h228L1028 0H800zm-983-429h1408l-39-165H143zM95 593h1408l-39-166H56z"/><glyph glyph-name="dollar" unicode="$" horiz-adv-x="1134" d="M498 1475h130V0H498v1475zm67-1278q-95 0-181 21t-152.5 63T127 385.5 89 530v23h262v-18q0-65 59.5-97.5T572 405q57 0 106.5 12t80 37 30.5 64q0 63-65 90t-202 49q-76 13-150.5 35t-135 59-97 92T103 977q0 105 63 176.5T334.5 1262t232.5 37q122 0 226.5-40t169-115 64.5-181v-16H767v13q0 46-29 75t-75 43-96 14q-46 0-93.5-9.5t-79.5-33-32-65.5q0-40 32.5-65t91.5-41.5T623 848q72-12 146.5-33t137-56 100.5-91.5 38-139.5q0-88-40-150T896.5 275.5t-154-59.5T565 197z"/><glyph glyph-name="percent" unicode="%" horiz-adv-x="1256" d="M1227 1374 129 42l-94 81 1097 1332zM329 963q-72 0-135 30.5t-102 87T53 1216t39 136 102 87 135 30q73 0 137.5-30t104-87 39.5-136-39.5-135.5-104-87T329 963zm0 109q39 0 75 15.5t59.5 47.5 23.5 81-23.5 81-59.5 47.5-75 15.5q-38 0-73-15.5t-57.5-47.5-22.5-81 22.5-81 57.5-47.5 73-15.5zM915 13q-72 0-135 30.5t-102 87T639 266t39 136 102 87.5T915 520q73 0 137-30.5t104-87.5 40-136-40-135.5-104-87T915 13zm0 109q38 0 74.5 15.5t60 47.5 23.5 81q0 50-23.5 82t-60 47-74.5 15-73.5-15-58-47-22.5-82q0-49 22.5-81t58-47.5T915 122z"/><glyph glyph-name="ampersand" unicode="&amp;" horiz-adv-x="1458" d="M600-22q-148 0-266.5 46T146 158 77 372q0 106 55.5 188T292 716t250 155q132 73 193 144.5t61 151.5q0 50-21.5 83t-57.5 49.5-78 16.5q-41 0-79.5-16.5t-62-49.5-23.5-83q0-67 43-139.5T629 868l512-628q36-45 66.5-57t51.5-12 42.5 5 29.5 9V1q-5-3-33.5-10.5T1223-17q-51 0-107.5 24T1014 84L466 752q-49 59-97.5 127T288 1022.5 256 1179q0 89 49.5 159t136 110.5T637 1489q110 0 193-40t129.5-110 46.5-158q0-99-42.5-178T841 856 647 723q-158-91-243-165t-85-174q0-64 38.5-113t103-76.5T602 167q131 0 219.5 38.5T972 309q65 69 100.5 159t35.5 214h216q0-120-27.5-214.5t-74-168T1119 168q-85-84-214.5-137T600-22z"/><glyph glyph-name="quotesingle" unicode="'" horiz-adv-x="339" d="m270 1475-26-470H94l-25 470h201z"/><glyph glyph-name="parenleft" unicode="(" horiz-adv-x="832" d="M632-467q-25 19-77.5 67.5T440-268 320.5-63.5t-95 284.5T188 593q0 210 37.5 373.5t95 285T440 1456t114.5 131.5T632 1653l139-145q-31-25-89-88.5t-118.5-173-102.5-271T419 593t42-382T563.5-59.5t118.5-173 89-89.5z"/><glyph glyph-name="parenright" unicode=")" horiz-adv-x="845" d="M218-467 80-322q31 26 88.5 89.5t118 173T389 211t42 382-42 382.5-102.5 271-118 173T80 1508l138 145q25-17 77.5-65.5T410 1456t119.5-204.5 95-285T662 593q0-209-37.5-372t-95-284.5T410-268 295.5-399.5 218-467z"/><glyph glyph-name="asterisk" unicode="*" horiz-adv-x="916" d="m547 1192 145-165-109-72-141 191-142-191-109 72 146 165-214 70 57 109 200-79-7 194h138l-8-194 200 79 58-109z"/><glyph glyph-name="plus" unicode="+" horiz-adv-x="1256" d="M1013 443H709V200H542v243H238v165h304v244h167V608h304V443z"/><glyph glyph-name="comma" unicode="," horiz-adv-x="586" d="m179-306-37 66q46 21 89 61.5t72 87T332-8q0 13-4 26t-10 23h63q-12-30-42.5-50T263-29q-57 0-101 37.5T118 116q0 66 46 108.5T282 267q79 0 125.5-52.5T454 77q0-84-41-161T309-218.5 179-306z"/><glyph glyph-name="hyphen" unicode="-" horiz-adv-x="931" d="M80 485v163h717V485H80z"/><glyph glyph-name="period" unicode="." horiz-adv-x="560" d="M280-28q-62 0-105 43t-43 105q0 61 43 104.5T280 268q61 0 104.5-43.5T428 120q0-62-43.5-105T280-28z"/><glyph glyph-name="slash" unicode="/" horiz-adv-x="877" d="M830 1563 249-155H34l582 1718h214z"/><glyph glyph-name="zero" unicode="0" horiz-adv-x="1175" d="M580-22q-134 0-228.5 60t-153 165T113 444.5 86 734t27 290.5 85.5 243.5 153 167 228.5 61 228.5-61T961 1268t85.5-243.5T1074 734t-27.5-289.5T961 203 808.5 38 580-22zm0 210q76 0 126 57.5T782 424t26 310q0 190-26 311t-76 178.5-126 57.5q-75 0-126-57.5T377 1045t-26-311 26-310.5 77-178T580 188z"/><glyph glyph-name="one" unicode="1" horiz-adv-x="879" d="M659 1478V0H397v1223q-10-10-52.5-26.5t-102-31T119 1145v214q64 8 123.5 28t102.5 44.5 58 46.5h256z"/><glyph glyph-name="two" unicode="2" horiz-adv-x="1202" d="M102 0v219q8 29 50.5 77.5t104 106.5T385 520t125 109q70 61 137 127t111 139 44 155q0 109-52 171.5T591 1284q-87 0-138-37.5T380 1142t-22-156H93q0 155 57 269.5T319 1433t275 63q157 0 262-58.5t157.5-160T1066 1048q0-87-32.5-163.5T949 742 838 621 725 521q-88-72-156.5-132.5T457.5 283 405 209h659V0H102z"/><glyph glyph-name="three" unicode="3" horiz-adv-x="1213" d="M808 777q88-3 147.5-49t90.5-122.5 31-170.5q0-125-50.5-229T870 40 599-22q-140 0-234 36.5t-150 103T134 273t-25 192v4h264v-4q0-109 28-169t79-84 122-24q95 0 152.5 60.5T812 442q0 51-11 93.5t-37.5 73T692 656t-114 17h-52v192h52q68 0 113 18t71.5 48.5 38 69.5 11.5 81q0 106-56.5 154T606 1284q-103 0-168-56t-65-202H109q0 98 28.5 183t87.5 149.5 152.5 101T601 1496q166 0 270.5-56t155-147.5T1077 1096q0-84-31-155t-90.5-115.5T808 777z"/><glyph glyph-name="four" unicode="4" horiz-adv-x="1177" d="M659 0v300H45v189l526 989h345V505h185V300H916V0H659zM251 386l-75 119h483v802l57-15z"/><glyph glyph-name="five" unicode="5" horiz-adv-x="1195" d="M1027 1270H446l-53-420q3 11 20.5 29t51 36.5T548 947t116 13q194 0 295-130t101-341q0-166-55-280T843 36.5 581-22q-127 0-217.5 37.5T217 117.5t-82 146T109 433v4h261v-4q3-121 55.5-183T585 188q68 0 114.5 32.5t71 98T795 484q0 133-47.5 205T600 761q-61 0-107-23.5T418 680t-42-66l-251 64 106 797h796v-205z"/><glyph glyph-name="six" unicode="6" horiz-adv-x="1219" d="M603-22q-167 0-273 84.5T173 301t-51 363q0 211 34 367t98.5 259.5T411 1445t207 51q126 0 207.5-43.5T952 1344t63-133 18-118v-6H788v6q0 29-7 62.5t-26 63-52 48-86 18.5q-74 0-127.5-63.5T408 1019t-28-365l-66-1q3 78 47.5 143t125 104.5T675 940q134 0 225-61.5T1037.5 713t46.5-232q0-145-54.5-259t-161-179T603-22zm2 210q71 0 118.5 32t71.5 94 24 150q0 84-23.5 146.5t-68.5 97T618 742q-65 0-116-31t-79.5-89.5T394 482q0-84 26-151t73.5-105T605 188z"/><glyph glyph-name="seven" unicode="7" horiz-adv-x="1062" d="M728 1269v-2H79v208h933v-194q-106-78-180-187T709.5 854 634 579.5t-37.5-291T586 0H322q0 151 11 301.5t38.5 292 74 267.5 116 230T728 1269z"/><glyph glyph-name="eight" unicode="8" horiz-adv-x="1276" d="M635-22q-164 0-277 57.5t-172 157T127 418q0 113 43 188.5T275 724t122 55q-51 12-105 50.5t-91.5 109T163 1116q0 114 62 199.5t168.5 133T635 1496t242-47.5 168-133 61-199.5q0-107-37-177.5t-91-109T873 779q60-13 122-55t104.5-117.5T1142 418q0-126-58.5-225.5t-172-157T635-22zm0 210q66 0 120 27.5t85.5 81T872 428q0 74-30 129.5t-83 87T635 676t-124.5-31.5-83-87T398 428q0-78 31.5-131.5t85.5-81T635 188zm0 691q97 0 156.5 57t59.5 151q0 69-29.5 112t-78.5 64-108 21-108-21-79-64-30-112q0-94 59.5-151T635 879z"/><glyph glyph-name="nine" unicode="9" horiz-adv-x="1193" d="M580-23q-127 0-208 43.5T245.5 129 182 262t-18 118v6h246v-6q0-29 7-62.5t25.5-63 52.5-48 86-18.5q75 0 127.5 63.5t81 202.5T818 819l65 1q-2-77-47-142.5t-125-105T522 533q-133 0-224 61.5T160.5 760 114 992q0 146 54 259.5T329.5 1430t265.5 65q166 0 272.5-84.5t157-238.5 50.5-363q0-211-34-367t-98.5-259.5T786.5 28 580-23zm-1 754q66 0 117 31t79.5 89.5T804 991q0 85-26 151.5T704.5 1247 592 1285q-70 0-117.5-32t-71.5-93.5-24-150.5q0-84 23.5-146.5t68.5-97T579 731z"/><glyph glyph-name="colon" unicode=":" horiz-adv-x="561" d="M280-28q-62 0-105 43t-43 105q0 61 43 104.5T280 268q61 0 104.5-43.5T428 120q0-62-43.5-105T280-28zm1 772q-62 0-105 43t-43 105q0 61 43 104.5t105 43.5q61 0 104.5-43.5T429 892q0-62-43.5-105T281 744z"/><glyph glyph-name="semicolon" unicode=";" horiz-adv-x="600" d="m193-311-37 66q46 21 89 61.5t72 87T346-13q0 13-4 26t-10 23h63q-12-30-42.5-50T277-34q-57 0-101 37.5T132 111q0 66 46 108.5T296 262q79 0 125.5-52.5T468 72q0-84-41-161T323-223.5 193-311zm91 1055q-62 0-105 43t-43 105q0 61 43 104.5t105 43.5q61 0 104.5-43.5T432 892q0-62-43.5-105T284 744z"/><glyph glyph-name="less" unicode="&lt;" horiz-adv-x="1256" d="M955 44 299 441v180l656 398V798L404 502v58l551-294V44z"/><glyph glyph-name="equal" unicode="=" horiz-adv-x="1256" d="M999 623H253v165h746V623zm0-352H253v165h746V271z"/><glyph glyph-name="greater" unicode="&gt;" horiz-adv-x="1256" d="m300 1019 655-398V441L300 44v222l551 294v-58L300 798v221z"/><glyph glyph-name="question" unicode="?" horiz-adv-x="1127" d="M437 384q0 93 28.5 165t72 131.5T626 792q38 44 71 88t53 93 20 107q0 107-53.5 161.5T558 1296q-110 0-170-67t-60-203H95q0 159 61 260.5T321 1437t234 49q129 0 229.5-47t159-140.5T1002 1066q0-89-29.5-157t-75-122T804 684q-64-67-114.5-135.5T639 384H437zM550-28q-62 0-105.5 43T401 120q0 61 43.5 104.5T550 268t105-43.5T698 120q0-62-43-105T550-28z"/><glyph glyph-name="at" unicode="@" horiz-adv-x="1967" d="M1570 112q-70-39-181.5-68.5T1144-2 873-18q-243 0-422.5 78T174 287 77 651q0 184 72.5 338t204 267T663 1431t387 62q189 0 332.5-49t240-134 145.5-194.5 49-230.5q0-122-41.5-228T1657 471.5t-185-124-242-44.5q-40 0-81 9t-68 33-29 68v6q-22-48-80.5-78.5T828 310q-108 0-178 44T546 475t-34 177q0 144 58.5 256T731 1085t233 65q84 0 137-31.5t53-72.5l22 82h178l-144-586q-1-6-2.5-15.5T1206 515q0-42 22.5-58.5T1289 440q95 0 160 38.5T1553 582t56.5 144 17.5 161q0 142-69.5 248t-201 164.5T1037 1358q-174 0-315.5-52t-243-147-156-225T268 648q0-180 78-298t216-175.5T882 117q111 0 221 14t205.5 39 162.5 59zM858 444q71 0 111.5 29t53.5 81q2 3 9.5 34t18.5 75 22.5 90.5 20 83T1105 886q5 23 5 37 0 37-25 67.5t-96 30.5q-85 0-150-53T738 829.5 702 645q0-96 40.5-148.5T858 444z"/><glyph glyph-name="A" unicode="A" horiz-adv-x="1301" d="m63 0 381 1477h416L1238 0H967L651 1314h2L334 0H63zm246 359v211h686V359H309z"/><glyph glyph-name="B" unicode="B" horiz-adv-x="1260" d="M681 1475q148 0 246-41.5t147.5-120.5 49.5-193q0-110-44.5-186.5T967 816t-140-46q76-2 152.5-37T1107 621t51-207q0-123-49-216.5T953.5 52 676 0H129v1475h552zM381 790l-87 77h297q132 0 200.5 55.5T860 1077q0 67-28.5 108t-84 60.5T614 1265H262l119 131V790zm243-580q128 0 197 58t69 162q0 60-21.5 103.5t-60 71-90 40.5T606 658H294l87 78V79L262 210h362z"/><glyph glyph-name="C" unicode="C" horiz-adv-x="1383" d="M1294 531q0-94-35-191t-106.5-179.5T972 28 716-22q-199 0-339.5 97.5T162.5 344 89 737q0 223 73.5 394t214 268 339.5 97q165 0 282-63t187-162 94-207q15-63 15-120h-265q0 29-4 60-11 76-50.5 138.5t-104.5 99-154 36.5q-106 0-186.5-59T403 1040t-46-303q0-181 46-302t126.5-181T716 194q76 0 134 28t98 75.5 60.5 107.5 20.5 126h265z"/><glyph glyph-name="D" unicode="D" horiz-adv-x="1311" d="M129 0v1475h441q147 0 267-52.5t206-149.5 133-232.5 47-301.5-47-301.5T1043 204 837 53 570 0H129zm264 79L274 210h262q120 0 214.5 64.5t149.5 183T955 739q0 164-55 282t-149.5 181-214.5 63H274l119 131V79z"/><glyph glyph-name="E" unicode="E" horiz-adv-x="1124" d="m275 1265 119 131V766l-62 79h552V635H332l62 78V79L275 210h720V0H129v1475h866v-210H275z"/><glyph glyph-name="F" unicode="F" horiz-adv-x="1093" d="m272 1265 119 131V757l-82 71h602V617H309l82 76V0H129v1475h871v-210H272z"/><glyph glyph-name="G" unicode="G" horiz-adv-x="1413" d="M708-22q-172 0-312.5 88T172 323 89 734q0 243 86 413t232.5 259.5T735 1496q150 0 254.5-49.5t170-127.5 95-164 29.5-160v-12h-256v12q0 52-18 102t-55 91-92 65-128 24q-99 0-185.5-55t-140-174.5T356 734q0-147 30-250t81.5-167 118-93.5T726 194q100 0 166.5 34t104 85 47.5 100v115H729v198h551V0h-152l-22 164q-7-18-32.5-49T1001 52.5 881.5-.5 708-22z"/><glyph glyph-name="H" unicode="H" horiz-adv-x="1361" d="M1233 1475V0H969v720l119-90H274l119 88V0H129v1475h264V748l-119 92h814l-119-91v726h264z"/><glyph glyph-name="I" unicode="I" horiz-adv-x="522" d="M131 0v1475h260V0H131z"/><glyph glyph-name="J" unicode="J" horiz-adv-x="1139" d="M539-22q-171 0-275.5 62.5T112 214.5 65 475v64h261v-40q0-83 19.5-152T411 236t128-42q81 0 126 42t63.5 115.5T747 518v957h263V482q0-106-23.5-197t-77-160T765 17 539-22z"/><glyph glyph-name="K" unicode="K" horiz-adv-x="1272" d="m619 726 7 203L1216 0H925L474 726l122-17-227-304 23 167V0H129v1475h263V694l-50 34 560 747h282z"/><glyph glyph-name="L" unicode="L" horiz-adv-x="1031" d="M129 0v1475h264V79L274 218h678V0H129z"/><glyph glyph-name="M" unicode="M" horiz-adv-x="1766" d="M1175 1475h448V0h-251v1307l6-2L1061 0H709L388 1306l6 3V0H143v1475h448L890 144h-17z"/><glyph glyph-name="N" unicode="N" horiz-adv-x="1427" d="M385 0H129v1475h413l539-1368-39-11v1379h257V0H880L343 1365l42 10V0z"/><glyph glyph-name="O" unicode="O" horiz-adv-x="1455" d="M727-22q-134 0-250 50T273.5 175.5t-136 239T89 739t48.5 324T273 1300.5t203.5 146T727 1496q136 0 252.5-49.5t203.5-146 135.5-237.5 48.5-324-49-324.5-136.5-239T978 28 727-22zm0 217q104 0 188 56.5T1048.5 428t49.5 311q0 192-50 310.5T914 1223t-187 55q-101 0-185.5-55t-135-173.5T356 739t50.5-312 135-176T727 195z"/><glyph glyph-name="P" unicode="P" horiz-adv-x="1208" d="M393 0H129v1475h474q170 0 287.5-64.5t179-175T1131 989q0-137-62-251T888.5 555.5 603 487H393V0zm0 571L274 696h300q92 0 157 35.5t99.5 101T865 989t-33.5 152.5T733 1234t-159 31H274l119 131V571z"/><glyph glyph-name="Q" unicode="Q" horiz-adv-x="1455" d="M610 10h225q0-53 34.5-88t83-56.5 91.5-32 61-14.5l-76-177q-17 2-64 11t-107 31.5-116.5 63-94 105T610 10zm117-32q-134 0-250 50T273.5 175.5t-136 239T89 739t48.5 324T273 1300.5t203.5 146T727 1496q136 0 252.5-49.5t203.5-146 135.5-237.5 48.5-324-49-324.5-136.5-239T978 28 727-22zm0 217q104 0 188 56.5T1048.5 428t49.5 311q0 192-50 310.5T914 1223t-187 55q-101 0-185.5-55t-135-173.5T356 739t50.5-312 135-176T727 195z"/><glyph glyph-name="R" unicode="R" horiz-adv-x="1246" d="M129 0v1475h568q223 0 335-102t112-300q0-116-44-197T993 751t-120-50q58-4 112-30t88.5-81.5T1108 440V141q0-47 8-86.5T1136 0H871q-10 18-17.5 55.5T846 141v268q0 91-51 138t-154 47H316l70 89V0H129zm257 705-70 99h327q65 0 117 30.5t82.5 85.5 30.5 129q0 108-62 162t-176 54H309l77 93V705z"/><glyph glyph-name="S" unicode="S" horiz-adv-x="1222" d="M610-22q-157 0-274 50T154 178.5 89 428v61h263v-56q0-120 65.5-179.5T611 194q129 0 197.5 43T877 375q0 69-46.5 117.5T703 578t-184 69q-116 36-211 93T156 884t-57 214 65.5 216 180 135.5T605 1496q153 0 269.5-48t182.5-143 66-237v-65H859v53q0 114-62 168.5T609 1279q-123 0-189-43t-66-137q0-70 45-117t123.5-81.5T701 831q133-44 230-99.5t150-138 53-209.5q0-130-65.5-220.5t-183-138T610-22z"/><glyph glyph-name="T" unicode="T" horiz-adv-x="1145" d="M1074 1265H607l97 131V0H440v1396l102-131H71v210h1003v-210z"/><glyph glyph-name="U" unicode="U" horiz-adv-x="1332" d="M1204 536q0-282-143.5-420T665-22q-250 0-393 138T129 536v939h264V534q0-178 66.5-259T665 194q141 0 208 81t67 259v941h264V536z"/><glyph glyph-name="V" unicode="V" horiz-adv-x="1268" d="M439-5 63 1475h291L642 168h-13l285 1307h291L832-5H439z"/><glyph glyph-name="W" unicode="W" horiz-adv-x="1834" d="M297 0 75 1475h272L517 69l-38 2 272 1404h332L1354 71l-38-2 170 1406h273L1535 0h-404L903 1284h28L703 0H297z"/><glyph glyph-name="X" unicode="X" horiz-adv-x="1279" d="m538 836-3-214-474 853h295l343-676H580l340 676h296L745 622l-2 214L1230 0H934L575 660h129L344 0H49z"/><glyph glyph-name="Y" unicode="Y" horiz-adv-x="1233" d="M1170 1475 747 510V0H483v510L63 1475h279l327-826H563l326 826h281z"/><glyph glyph-name="Z" unicode="Z" horiz-adv-x="1147" d="M389 210h655V0H93v183l667 1083 2-1H139v210h914v-180L389 213v-3z"/><glyph glyph-name="bracketleft" unicode="[" horiz-adv-x="857" d="M703 1644v-190H399V-246h304v-191H163v2081h540z"/><glyph glyph-name="backslash" unicode="\" horiz-adv-x="895" d="M34 1563h215L830-155H616z"/><glyph glyph-name="bracketright" unicode="]" horiz-adv-x="857" d="M144 1644h539V-436H144v190h303v1700H144v190z"/><glyph glyph-name="asciicircum" unicode="^" horiz-adv-x="1256" d="m133 878 397 655h181l397-655H887l-296 550h58L355 878H133z"/><glyph glyph-name="underscore" unicode="_" horiz-adv-x="1346" d="M36-286v175h1264v-175H36z"/><glyph glyph-name="grave" unicode="`" horiz-adv-x="703" d="M579 1213H397l-267 262h210z"/><glyph glyph-name="a" unicode="a" horiz-adv-x="1243" d="M496-22q-119 0-209 37.5T146 124 95 295q0 109 59.5 179.5t160.5 109T539 633q182 18 254.5 34.5T866 721v2q0 70-63 108t-178 38q-121 0-185.5-42.5T375 692H115q0 125 66.5 211.5T364 1035t263 45q137 0 251-41t183-124 69-207V224q0-38 2.5-74.5T1143 84q10-32 24-54t22-30H929q-7 7-19.5 27.5T887 75q-10 30-15 64.5t-5 76.5l52-36q-30-61-91.5-106.5T681 3 496-22zm64 207q82 0 152 28t113 86.5T868 450v142l64-72q-64-24-154-39.5T596 456q-118-11-177.5-41T359 317q0-66 50-99t151-33z"/><glyph glyph-name="b" unicode="b" horiz-adv-x="1304" d="M730-22q-124 0-229.5 64.5T330.5 219 266 471v14l130 3v-10q0-78 39-138.5t101.5-95T670 210q115 0 196 79t81 245q0 167-80.5 244.5T670 856q-70 0-132.5-33.5t-102-92.5T396 592l-130 6q0 141 64.5 250t170 170.5T730 1080q129 0 240.5-63.5t180-185T1219 534q0-181-67-305T974 41.5 730-22zM132 0v1563h264V0H132z"/><glyph glyph-name="c" unicode="c" horiz-adv-x="1265" d="M657-22q-168 0-297 69T158 241 85 534q0 167 73 290t202 189.5 297 66.5q126 0 223-37t163.5-98.5 101.5-135 35-146.5v-8H919q0 5-1 11l-2 12q-8 51-41 92.5T787 837t-133 25q-83 0-151.5-36.5T393.5 716 353 534q0-108 40-183.5t108.5-115T654 196q89 0 145.5 27.5t85.5 74T918 399h262q0-74-34-148.5T1046 114 882.5 15 657-22z"/><glyph glyph-name="d" unicode="d" horiz-adv-x="1298" d="M573-22q-131 0-242.5 63.5T152 229 85 534q0 176 68.5 298t180 185 239.5 63q125 0 231-61.5T974 848t64-250v-16l-130-3v13q0 79-39.5 138t-102 92.5T634 856q-115 0-196-77.5T357 534q0-166 81-245t196-79q73 0 135 35t100.5 96.5T908 483l130-6q0-140-62.5-253.5T808 44 573-22zM908 0v1563h264V0H908z"/><glyph glyph-name="e" unicode="e" horiz-adv-x="1299" d="M230 446v187h743l-30-50v26q0 69-31 129.5t-94 98T658 874q-96 0-166.5-40.5T382.5 717 344 535q0-109 37-187.5t108.5-120T664 186q70 0 121 13t83.5 35.5 49 48.5 19.5 52h262q-6-67-44.5-130.5T1047 89.5t-167.5-82T655-23q-171 0-299 70T156.5 242 85 528q0 165 72.5 289T359 1010.5t296 69.5q172 0 297.5-70T1146 815.5t68-289.5q0-21-1-45t-3-35H230z"/><glyph glyph-name="f" unicode="f" horiz-adv-x="857" d="M261 0v852H36v210h225v95q0 93 25 163.5t68 119.5 98.5 79.5 119 44.5 126.5 14q60 0 91.5-7t42.5-12v-212q-12 4-41.5 9.5T727 1362q-61 0-101-17.5t-62-48.5-31-71.5-9-88.5v-74h294V852H524V0H261z"/><glyph glyph-name="g" unicode="g" horiz-adv-x="1247" d="M846 105q94-9 165-35t111-77.5 40-137.5q0-96-65-166T906.5-419 598-457q-266 0-409 76.5T46-173q0 37 9 67t22 50l241-35q-6-8-12-25.5t-6-42.5q0-62 83.5-89.5T606-276q102 0 170.5 14t104 40 35.5 61q0 52-47 67T757-74L354-37Q246-26 176.5 27T107 167q0 53 28.5 98t65.5 75.5 63 37.5l150-74q-21-3-49.5-27T336 220q0-31 28-51.5T472 140zm119 957h236l-96-412q-27-116-87-208T858 297t-252-53q-158 0-272.5 51.5T157 440.5 95 656q0 125 63.5 220.5t175 149.5 252.5 54q114 0 205-37.5T936.5 945 995 817l-59-11zM605 447q77 0 133 25t87 72.5T856 660q0 67-31 115t-87 73.5T606 874q-74 0-131-26t-89.5-74.5T353 658t31.5-114.5 88-72T605 447z"/><glyph glyph-name="h" unicode="h" horiz-adv-x="1269" d="M884 0v577q0 132-51.5 202.5T657 850q-83 0-141.5-32.5T426 727t-31-134l-96 51q0 127 57.5 225.5T516 1024t234 56q193 0 295-114.5T1147 647V0H884zM132 0v1563h263V0H132z"/><glyph glyph-name="i" unicode="i" horiz-adv-x="515" d="M127 0v1062h260V0H127zm131 1258q-64 0-111.5 34.5T99 1389q0 61 47.5 95t111.5 34q63 0 110-34t47-95q0-62-47-96.5T258 1258z"/><glyph glyph-name="j" unicode="j" horiz-adv-x="531" d="M-29-453q-29 0-55 1.5t-43 4.5v196q16-4 42.5-7t55.5-3q56 0 89 16t49.5 42 22.5 56.5 6 60.5v1148h263V-94q0-66-15.5-129.5t-59-115.5-129-83T-29-453zm302 1711q-64 0-111.5 34.5T114 1389q0 61 47.5 95t111.5 34 111-34 47-95q0-62-47-96.5T273 1258z"/><glyph glyph-name="k" unicode="k" horiz-adv-x="1105" d="M132 0v1563h250V647l-57 28 439 387h327L571 599l59 108L1086 0H808L458 567l64-11-170-152 30 117V0H132z"/><glyph glyph-name="l" unicode="l" horiz-adv-x="543" d="M406 1563V0H147v1563h259z"/><glyph glyph-name="m" unicode="m" horiz-adv-x="1833" d="M792 0v609q0 39-5 81.5T765 769t-52.5 58.5T615 850q-60 0-101.5-24.5t-68-65-38.5-92T395 563l-88 59q0 131 49 234t139.5 163.5T710 1080q128 0 203-53.5T1020.5 882t32.5-204V0H792zM132 0v1062h263V0H132zm1316 0v611q0 42-5 84.5t-22 77-53 56-98 21.5q-61 0-102.5-24t-66.5-64-36.5-90-11.5-100l-88 58q0 127 48 229t138 161.5 214 59.5q125 0 201-51t110.5-139.5T1711 688V0h-263z"/><glyph glyph-name="n" unicode="n" horiz-adv-x="1268" d="M883 0v597q0 72-20.5 129.5t-70 90.5T656 850q-76 0-135-36.5t-92.5-100T395 567l-89 55q0 133 60.5 236.5T529 1021t226 59q128 0 215.5-50t132-142 44.5-216V0H883zM132 0v1062h263V0H132z"/><glyph glyph-name="o" unicode="o" horiz-adv-x="1308" d="M654-21q-168 0-296 70.5T157.5 245 85 531q0 162 72.5 285.5T358 1010t296 70 296-70 200.5-193.5T1223 531q0-161-72.5-286T950 49.5 654-21zm0 215q91 0 159 42t106 117.5T957 531t-38 176.5T813 823t-159 41q-90 0-158.5-41T389 707.5 351 531t38-177.5T495.5 236 654 194z"/><glyph glyph-name="p" unicode="p" horiz-adv-x="1304" d="M132-437v1499h263V-437H132zM730-22q-124 0-229.5 64.5T330.5 219 266 471v14l130 3v-10q0-78 39-138.5t101.5-95T670 210q115 0 196 79t81 245q0 167-80.5 244.5T670 856q-70 0-132.5-33.5t-102-92.5T396 592l-130 6q0 141 64.5 250t170 170.5T730 1080q129 0 240.5-63t180-185 68.5-298q0-181-67-305T974 41.5 730-22z"/><glyph glyph-name="q" unicode="q" horiz-adv-x="1297" d="M573-22q-131 0-242.5 63.5T152 229 85 534q0 176 68.5 298t180 185 239.5 63q125 0 231-61.5T974 848t64-250v-16l-130-3v13q0 79-39.5 138t-102 92.5T634 856q-115 0-196-77.5T357 534q0-166 81-245t196-79q73 0 135 35t100.5 96.5T908 483l130-6q0-140-62.5-253.5T808 44 573-22zm335-415v1499h263V-437H908z"/><glyph glyph-name="r" unicode="r" horiz-adv-x="881" d="M132 0v1062h263V709l-61 34q10 69 37 130.5t72 108 109 72.5 146 26q65 0 102.5-9.5T847 1055l-48-241q-10 7-40.5 17.5T677 842q-81 0-135.5-27.5t-86.5-74-46-102T395 528V0H132z"/><glyph glyph-name="s" unicode="s" horiz-adv-x="1127" d="M561-22q-95 0-180.5 21t-152 63-105 104.5T85 311v23h262v-18q0-65 59.5-97.5T569 186q56 0 105.5 12t80 37 30.5 64q0 63-64.5 90T518 438q-76 13-150 35t-134.5 59-97 92T100 758q0 105 62.5 176.5t168 108.5 232.5 37q122 0 227-40t169.5-115 64.5-181v-16H764v13q0 46-29 75t-75 43-97 14q-45 0-93-9.5t-80-33-32-65.5q0-40 33-65t92-41.5T619 629q73-12 147.5-33T903 540t100.5-91.5T1042 309q0-88-40-150T893.5 56.5 739-3 561-22z"/><glyph glyph-name="t" unicode="t" horiz-adv-x="933" d="M620-20q-57 0-116 11T396 32t-79 88-30 153v579H36v210h102q52 0 82 4.5t44 21.5 18.5 53.5T287 1243v169h264v-350h316V852H551V353q0-74 18-119t85-45q32 0 60.5 6t42.5 12V1q-19-7-55-14t-82-7z"/><glyph glyph-name="u" unicode="u" horiz-adv-x="1245" d="M514-20q-113 0-187.5 38t-117 100-60 137T132 405v657h264V473q0-71 17-131.5t62.5-97.5T604 207q79 0 136 46.5T828.5 371 860 515l90-60q0-97-30-182.5T833 121 695.5 17.5 514-20zM860 0v1062h263V0H860z"/><glyph glyph-name="v" unicode="v" horiz-adv-x="1102" d="M1064 1062 731 0H378L37 1062h272L576 92h-42l258 970h272z"/><glyph glyph-name="w" unicode="w" horiz-adv-x="1605" d="M988 0 741 1062h201l241-979h-43l154 979h273L1349 0H988zM256 0 37 1062h273L465 83h-43l239 979h201L619 0H256z"/><glyph glyph-name="x" unicode="x" horiz-adv-x="1149" d="m482 579-2-120-433 603h288l326-473-158 1 320 472h282L690 493l-7 110L1111 0H823L492 472l178 16L313 0H31z"/><glyph glyph-name="y" unicode="y" horiz-adv-x="1096" d="M201-456q-47 0-84 4.5T71-443v205q13-6 44.5-9.5T181-251q55 0 95.5 22t69.5 60.5T392-79l23 67L49 1062h275l251-886h-32l245 886h270L686-65q-39-117-94.5-205T444-407t-243-49z"/><glyph glyph-name="z" unicode="z" horiz-adv-x="1009" d="M349 214h595V0H65v203l583 654 5-9H87v214h846V859L354 207z"/><glyph glyph-name="braceleft" unicode="{" horiz-adv-x="842" d="M737 1463q-90 0-137-51t-47-158V847q0-88-33.5-140.5t-87-77.5T320 597v12q59-6 112.5-31.5t87-78T553 358V-81q0-107 47-150t137-43v-193q-124 0-221.5 28T362-343.5 306-158v450q0 72-15 117t-51.5 71T138 520v165q65 14 101.5 40t51.5 71 15 117v420q0 118 56 189t153.5 102.5T737 1656v-193z"/><glyph glyph-name="bar" unicode="|" horiz-adv-x="615" d="M178-280v1834h206V-280H178z"/><glyph glyph-name="braceright" unicode="}" horiz-adv-x="842" d="M108 1463v193q124 0 221.5-31.5t154-102.5 56.5-189V913q0-72 15-117t51.5-71T707 685V520q-64-14-100.5-40T555 409t-15-117v-450q0-118-56.5-185.5t-154-95.5T108-467v193q90 0 137.5 43T293-81v439q0 89 33.5 141.5t86.5 78T526 609v-12q-60 7-113 32t-86.5 77.5T293 847v407q0 107-47.5 158T108 1463z"/><glyph glyph-name="asciitilde" unicode="~" horiz-adv-x="1256" d="M937 725q-1-44-20.5-91T856 554t-106-33q-51 0-86 20t-58 39q-22 19-44.5 33T510 627q-37 0-52.5-24.5T441 544H302q2 45 23.5 93t64.5 81 109 33q48 0 82.5-20t56.5-39q23-19 47-34t50-15q35 0 49 24t15 58h138z"/><glyph glyph-name="uni00A0" horiz-adv-x="500"/><glyph glyph-name="exclamdown" unicode="¡" horiz-adv-x="596" d="m181-419 50 1082h161l52-1082H181zm130 1501q62 0 105.5-43T460 934q0-61-43.5-104.5T311 786q-61 0-104.5 43.5T163 934q0 62 43.5 105t104.5 43z"/><glyph glyph-name="cent" unicode="¢" horiz-adv-x="1265" d="M588 1475h122V0H588v1475zm69-1285q-168 0-297 69T158 453 85 746q0 167 73 290t202 189.5 297 66.5q126 0 223-37t163.5-98.5 101.5-135 35-146.5v-8H919q0 5-1 11l-2 12q-8 51-41 92.5t-88 66.5-133 25q-83 0-151.5-36.5T393.5 928 353 746q0-108 40-183.5t108.5-115T654 408q89 0 145.5 27.5t85.5 74T918 611h262q0-74-34-148.5T1046 326t-163.5-99T657 190z"/><glyph glyph-name="sterling" unicode="£" horiz-adv-x="1185" d="M60 573v163h718V573H60zm833 564q-17 37-49.5 74.5t-84 63T632 1300q-82 0-139-30t-86.5-81-29.5-113q0-74 21-132t49-119.5T496 680t21-208q0-87-27.5-160t-70-131-88-100-84-66.5T191-17L87 136q17 8 51 34.5t71 69T271.5 340 297 469q0 87-23.5 160.5t-54 143.5-54 145.5T142 1086q0 113 58.5 205T364 1437t246 54q104 0 180-24t128-62 84.5-80.5 50.5-78.5zM1084 25q-19-10-83-30.5T848-26q-76 0-137 19T591 30 461 48q-62 0-119-13.5t-97-29T191-17l10 34q12 5 33.5 29.5t52 58 69 65.5 84.5 53.5T540 245q72 0 117-17.5t86-34.5 100-17q57 0 98 15.5t53 23.5z"/><glyph glyph-name="currency" unicode="¤" horiz-adv-x="1344" d="m1220 1302 119-118-239-239-119 118zm0-1210L981 330l119 119 239-239zM176 1302l239-239-118-118-239 239zm0-1210L58 210l239 239 118-119zm522 58q-168 0-296.5 70.5T201 416t-72 286q0 162 72 285.5T401.5 1181t296.5 70 296-70 200-193.5 72-285.5q0-161-72-286T994 220.5 698 150zm0 215q90 0 158 42t106 117.5 38 177.5-38 176.5T856 994t-158 41-158.5-41T433 878.5 395 702t38-177.5T539.5 407 698 365z"/><glyph glyph-name="yen" unicode="¥" horiz-adv-x="1233" d="M183 503v163h881V503H183zm1-285v163h881V218H184zm986 1257L747 510V0H483v510L63 1475h279l327-826H563l326 826h281z"/><glyph glyph-name="brokenbar" unicode="¦" horiz-adv-x="615" d="M178-258v765h206v-765H178zm0 1049v763h206V791H178z"/><glyph glyph-name="section" unicode="§" horiz-adv-x="1293" d="m862 201-162 60q44 17 97 49.5t91 83T926 514q0 62-42 110.5t-114 90T610 796q-105 47-202 101t-159 123-62 160q0 95 52.5 163.5t147 105.5 223.5 37 222.5-36.5 144.5-108 51-177.5v-26H805v26q0 57-18.5 93.5t-48 57-64.5 28-69 7.5q-87 0-141.5-38.5T409 1194q0-58 46-103t117.5-82T721 939t148-68.5T995 789t87.5-107.5T1115 536q0-63-24.5-118t-64-98-83-73.5T862 201zM623-304q-128 0-221.5 36.5T257-159 206 19v26h223V19q0-57 18-94t47.5-57 65-28 69.5-8q87 0 141 39t54 118q0 58-45.5 103T661 173.5 512 244q-77 33-147.5 69t-126 81.5T151 501t-32 145q0 64 24.5 118.5t63.5 98 83 74 82 44.5l162-59q-45-16-98-49t-90.5-83.5T308 668q0-61 42-110t113.5-90.5T624 387q105-46 201.5-100.5T984 163t62-161q0-95-52-163.5T847-267t-224-37z"/><glyph glyph-name="dieresis" unicode="¨" horiz-adv-x="828" d="M188 1254q-58 0-101.5 31.5T43 1374t43.5 88 101.5 31q59 0 102.5-31t43.5-88q0-58-43.5-89T188 1254zm452 0q-59 0-102 31.5t-43 88.5 43 88 102 31q58 0 101.5-31t43.5-88q0-58-43.5-89T640 1254z"/><glyph glyph-name="copyright" unicode="©" horiz-adv-x="1714" d="M818 28q-205 0-368.5 87t-258 247.5T97 741t94.5 377 258 246 368.5 87q204 0 366.5-87t257-246 94.5-377-94.5-378.5-257-247.5T818 28zm0 94q175 0 316 75.5t223.5 215T1440 741q0 188-82.5 327T1134 1282.5 818 1358q-176 0-318-75.5T275 1068t-83-327q0-189 83-328.5t225-215T818 122zm2 140q-120 0-222 53.5t-164 160T372 742q0 149 55 255.5T582.5 1162t237.5 58q109 0 187.5-35.5t129.5-90 75.5-115.5 24.5-111v-19h-193v11q0 27-11 62.5t-37 69-69 55.5-107 22q-124 0-189-83.5T566 744q0-108 31.5-182T686 451t134-37q70 0 120 30t77 80.5 27 108.5h193q0-113-55-196.5t-149.5-129T820 262z"/><glyph glyph-name="ordfeminine" unicode="ª" horiz-adv-x="685" d="M585 1019H474q-7 14-12.5 40t-5.5 54v221q0 32-25.5 49t-82.5 17q-60 0-93.5-19.5T221 1320H114q0 80 66 123t169 43q94 0 156.5-37.5T568 1327v-195q0-41 5-70t12-43zm-300-7q-84 0-134.5 35t-50.5 97q0 47 28 74.5t75.5 42T309 1282q87 11 117 21.5t30 29.5l49-53q-3-18-52.5-38T327 1211q-58-8-85.5-19.5T214 1151t28.5-40.5T317 1099q50 0 95.5 29t45.5 85l52-38q0-49-32-86t-84-57-109-20z"/><glyph glyph-name="guillemotleft" unicode="«" horiz-adv-x="866" d="M507 885 180 565l327-314H351L28 565l323 320h156zm332 0L513 565l324-314H682L359 565l324 320h156z"/><glyph glyph-name="logicalnot" unicode="¬" horiz-adv-x="1256" d="M829 311v378l119-119H250v162h742V311H829z"/><glyph glyph-name="uni00AD" unicode="­" horiz-adv-x="721" d="M80 485v163h508V485H80z"/><glyph glyph-name="registered" unicode="®" horiz-adv-x="1208" d="M593 497q-144 0-261.5 63.5T145 735.5 76 989q0 141 69 252.5T331.5 1417t261.5 64q145 0 261.5-64t185.5-175.5 69-252.5q0-142-69-253.5t-185.5-175T593 497zm0 79q128 0 224.5 52T967 773t53 216q0 122-53 215t-149.5 144.5T593 1400t-224.5-51.5-150-144.5T165 989q0-123 53.5-216t150-145T593 576zM400 702v583h207q95 0 145-38.5t50-119.5q0-64-31.5-96.5T691 994q45-4 67-29t22-67V770q0-31 4.5-47.5T793 702H692q-1 3-5 20.5t-4 47.5v96q0 40-16.5 57T624 944.5t-56 4.5h-68V702H400zm100 330h83q64 0 93.5 26.5T706 1125q0 42-25.5 61.5T603 1206H500v-174z"/><glyph glyph-name="macron" unicode="¯" horiz-adv-x="825" d="M117 1297v112h588v-112H117z"/><glyph glyph-name="degree" unicode="°" horiz-adv-x="659" d="M316 1224q43 0 72.5 29t29.5 72q0 42-29.5 71t-72.5 29q-41 0-70.5-29t-29.5-71q0-43 29.5-72t70.5-29zm0-116q-59 0-108.5 29t-79 78.5T99 1325q0 59 29.5 108.5t79 79T316 1542q61 0 110-29.5t78-79 29-108.5q0-60-29-109.5t-78-78.5-110-29z"/><glyph glyph-name="plusminus" unicode="±" horiz-adv-x="1256" d="M245 154v164h759V154H245zm768 483H709V394H542v243H238v165h304v244h167V802h304V637z"/><glyph glyph-name="uni00B2" unicode="²" horiz-adv-x="965" d="M88 590v177q8 23 57.5 58.5t119 75.5T401 977q58 31 112 67t88.5 76 34.5 84q0 56-39.5 89T474 1326q-100 0-139-45.5T296 1165H81q0 151 101.5 237.5T478 1489q124 0 207-37t124.5-101 41.5-143q0-75-44-130t-108-96.5T575 907q-48-27-94.5-56.5t-78.5-56-37-46.5h484V590H88z"/><glyph glyph-name="uni00B3" unicode="³" horiz-adv-x="975" d="M670 1056q105-3 147-61t42-144q0-73-39.5-136t-123-102T482 574q-111 0-186 25.5T176.5 668 113 766 94 880v2h215v-2q0-83 47-112.5T484 738q72 0 116 34t44 98q0 32-18 57t-54 39-87 14h-35v139h35q51 0 86.5 14t54 37.5T644 1223q0 52-43 78t-113 26q-79 0-129-29.5T309 1196H94q0 76 40 143t126 108.5 223 41.5q132 0 214.5-33.5t122-89T859 1246q0-73-43-130t-146-60z"/><glyph glyph-name="acute" unicode="´" horiz-adv-x="608" d="m61 1213 238 262h211l-268-262H61z"/><glyph glyph-name="uni00B5" unicode="µ" horiz-adv-x="1223" d="M838 0v1062h263V0H838zm0 479 81-60q0-84-22.5-162t-67-140.5T720 18 571-18q-87 0-128.5 31.5T386 83v-520H122v1499h264V473q0-71 14-134t56.5-101.5T582 199q79 0 136 39.5T806.5 342 838 479z"/><glyph glyph-name="paragraph" unicode="¶" horiz-adv-x="1297" d="M658-170v757h-23q-138 0-235 38T243 727t-87.5 143.5T128 1034q0 80 25 157.5t83 141 156 102 243 38.5h518V-170H970v1480H839V-170H658z"/><glyph glyph-name="periodcentered" unicode="·" horiz-adv-x="560" d="M280 592q-62 0-105 43.5T132 741q0 61 43 104.5T280 889q61 0 104.5-43.5T428 741q0-62-43.5-105.5T280 592z"/><glyph glyph-name="cedilla" unicode="¸" horiz-adv-x="889" d="M531-82q35 0 69-15.5t56.5-48.5 22.5-86q0-64-38-105.5T543-399t-127-20q-60 0-118.5 15T216-373l53 99q17-11 61-27.5t96-16.5q57 0 96 23.5t39 67.5q0 37-20.5 53T490-158q-24 0-49.5-9T402-193l-104 29L369 0h120l-61-140-21 4q10 22 45.5 38T531-82z"/><glyph glyph-name="uni00B9" unicode="¹" horiz-adv-x="713" d="M483 1475V590H269v690q-6-8-39-23t-80-28-98-15v153q51 5 97.5 23t79.5 41.5 45 43.5h209z"/><glyph glyph-name="ordmasculine" unicode="º" horiz-adv-x="792" d="M386 1017q-65 0-123 28t-93.5 79.5T134 1248q0 73 35.5 125t93.5 79.5 123 27.5q67 0 125.5-27.5t95-79.5 36.5-125q0-72-36.5-123.5t-95-79.5-125.5-28zm0 98q36 0 69.5 14.5t55 44T532 1248q0 46-21.5 75.5t-55 44T386 1382q-35 0-68-14.5t-53.5-44T244 1248q0-45 20.5-74.5t53.5-44 68-14.5z"/><glyph glyph-name="guillemotright" unicode="»" horiz-adv-x="839" d="M331 885h155l326-320-326-314H331l329 314zm-303 0h155l326-320-325-314H29l326 314z"/><glyph glyph-name="onequarter" unicode="¼" horiz-adv-x="1935" d="M483 1475V590H269v690q-6-8-39-23t-80-28-98-15v153q51 5 97.5 23t79.5 41.5 45 43.5h209zM230 0l1050 1475h192L422 0H230zm1271 0v170h-438v134l380 581h273V315h142V170h-142V0h-215zm-280 229-57 86h337v434l41-12z"/><glyph glyph-name="onehalf" unicode="½" horiz-adv-x="1955" d="M483 1475V590H269v690q-6-8-39-23t-80-28-98-15v153q51 5 97.5 23t79.5 41.5 45 43.5h209zM230 0l1050 1475h192L422 0H230zm847 0v177q8 23 57.5 58.5t119 75.5 136.5 76q58 31 112 67t88.5 76 34.5 84q0 56-39.5 89T1463 736q-100 0-139-45.5T1285 575h-215q0 151 101.5 237.5T1467 899q124 0 207-37t124.5-101 41.5-143q0-75-44-130t-108-96.5-124-74.5q-48-27-94.5-56.5t-78.5-56-37-46.5h484V0h-761z"/><glyph glyph-name="threequarters" unicode="¾" horiz-adv-x="2198" d="M670 1056q105-3 147-61t42-144q0-73-39.5-136t-123-102T482 574q-111 0-186 25.5T176.5 668 113 766 94 880v2h215v-2q0-83 47-112.5T484 738q72 0 116 34t44 98q0 32-18 57t-54 39-87 14h-35v139h35q51 0 86.5 14t54 37.5T644 1223q0 52-43 78t-113 26q-79 0-129-29.5T309 1196H94q0 76 40 143t126 108.5 223 41.5q132 0 214.5-33.5t122-89T859 1246q0-73-43-130t-146-60zM492 0l1050 1475h192L684 0H492zm1272 0v170h-438v134l380 581h273V315h142V170h-142V0h-215zm-280 229-57 86h337v434l41-12z"/><glyph glyph-name="questiondown" unicode="¿" horiz-adv-x="1127" d="M667 670q0-92-28.5-164.5t-71.5-132T477 262q-38-43-71-87.5T352.5 81 332-26q0-107 54.5-161.5T546-242q110 0 169.5 67.5T775 28h232q0-159-60.5-260.5T782-383t-233-49-230 47-159 140.5T102-12q0 90 29 157.5t74.5 122T299 370q65 67 115.5 135.5T465 670h202zm-114 412q62 0 105-43t43-105q0-61-43-104.5T553 786q-61 0-104.5 43.5T405 934q0 62 43.5 105t104.5 43z"/><glyph glyph-name="Agrave" unicode="À" horiz-adv-x="1301" d="m63 0 381 1477h416L1238 0H967L651 1314h2L334 0H63zm246 359v211h686V359H309zm498 1197H612l-301 198h220z"/><glyph glyph-name="Aacute" unicode="Á" horiz-adv-x="1301" d="m63 0 381 1477h416L1238 0H967L651 1314h2L334 0H63zm246 359v211h686V359H309zm190 1197 276 198h220l-300-198H499z"/><glyph glyph-name="Acircumflex" unicode="Â" horiz-adv-x="1301" d="m63 0 381 1477h416L1238 0H967L651 1314h2L334 0H63zm246 359v211h686V359H309zm22 1195 231 198h179l232-198H797l-181 158h71l-182-158H331z"/><glyph glyph-name="Atilde" unicode="Ã" horiz-adv-x="1301" d="m63 0 381 1477h416L1238 0H967L651 1314h2L334 0H63zm246 359v211h686V359H309zm667 1390q-1-44-20.5-91.5T895 1577t-106-33q-51 0-86 20t-58 40q-22 19-44.5 33t-51.5 14q-37 0-52.5-24.5T480 1567H341q2 46 23.5 94t64.5 80.5 109 32.5q48 0 82.5-19.5T677 1716q23-19 47-34t50-15q35 0 49 23.5t15 58.5h138z"/><glyph glyph-name="Adieresis" unicode="Ä" horiz-adv-x="1301" d="m63 0 381 1477h416L1238 0H967L651 1314h2L334 0H63zm246 359v211h686V359H309zm117 1190q-58 0-101.5 31.5T281 1669t43.5 88 101.5 31q59 0 102.5-31t43.5-88q0-58-43.5-89T426 1549zm452 0q-59 0-102 31.5t-43 88.5 43 88 102 31q58 0 101.5-31t43.5-88q0-58-43.5-89T878 1549z"/><glyph glyph-name="Aring" unicode="Å" horiz-adv-x="1301" d="m63 0 381 1477h416L1238 0H967L651 1314h2L334 0H63zm246 359v211h686V359H309zm343 1276q42 0 71.5 29t29.5 72q0 42-29.5 71t-71.5 29-71.5-29-29.5-71q0-43 29.5-72t71.5-29zm0-116q-60 0-109 29t-78.5 78.5T435 1736q0 59 29.5 108.5t78.5 79 109 29.5 109-29.5 78.5-79T869 1736q0-60-29.5-109.5T761 1548t-109-29z"/><glyph glyph-name="AE" unicode="Æ" horiz-adv-x="1948" d="m0 0 850 1475h970v-210h-701l87 87V764l-76 81h579V635h-573l70 75V134l-76 76h690V0H953v1255l21-15L286 0H0zm382 300 52 203h639V300H382z"/><glyph glyph-name="Ccedilla" unicode="Ç" horiz-adv-x="1383" d="M1294 531q0-94-35-191t-106.5-179.5T972 28 716-22q-151 0-268 57T251 195.5t-121 242T89 737q0 163 41 301t121 241 197 160 268 57q165 0 282-63t187-162 94-207q15-63 15-120h-265q0 29-4 60-11 76-50.5 138.5t-104.5 99-154 36.5q-106 0-186.5-59T403 1040t-46-303q0-181 46-302t126.5-181T716 194q76 0 134 28t98 75.5 60.5 107.5 20.5 126h265zM812-82q35 0 68.5-15.5T937-146t23-86q0-64-38-105.5T824-399t-127-20q-60 0-118.5 15T497-373l52 99q18-11 62-27.5t95-16.5q58 0 96.5 23.5T841-227q0 37-20 53t-50 16q-25 0-50-9t-38-26l-102 29L652 0h115l-60-140-13 4q10 22 42 38t76 16z"/><glyph glyph-name="Egrave" unicode="È" horiz-adv-x="1124" d="m275 1265 119 131V766l-62 79h552V635H332l62 78V79L275 210h720V0H129v1475h866v-210H275zm455 291H535l-301 198h220z"/><glyph glyph-name="Eacute" unicode="É" horiz-adv-x="1124" d="m275 1265 119 131V766l-62 79h552V635H332l62 78V79L275 210h720V0H129v1475h866v-210H275zm147 291 276 198h220l-300-198H422z"/><glyph glyph-name="Ecircumflex" unicode="Ê" horiz-adv-x="1124" d="m275 1265 119 131V766l-62 79h552V635H332l62 78V79L275 210h720V0H129v1475h866v-210H275zm-21 289 231 198h179l232-198H720l-181 158h71l-182-158H254z"/><glyph glyph-name="Edieresis" unicode="Ë" horiz-adv-x="1124" d="m275 1265 119 131V766l-62 79h552V635H332l62 78V79L275 210h720V0H129v1475h866v-210H275zm74 284q-58 0-101.5 31.5T204 1669t43.5 88 101.5 31q59 0 102.5-31t43.5-88q0-58-43.5-89T349 1549zm452 0q-59 0-102 31.5t-43 88.5 43 88 102 31q58 0 101.5-31t43.5-88q0-58-43.5-89T801 1549z"/><glyph glyph-name="Igrave" unicode="Ì" horiz-adv-x="522" d="M131 0v1475h260V0H131zm286 1556H222l-301 198h220z"/><glyph glyph-name="Iacute" unicode="Í" horiz-adv-x="522" d="M131 0v1475h260V0H131zm-22 1556 276 198h220l-300-198H109z"/><glyph glyph-name="Icircumflex" unicode="Î" horiz-adv-x="522" d="M131 0v1475h260V0H131zM-59 1554l231 198h179l232-198H407l-181 158h71l-182-158H-59z"/><glyph glyph-name="Idieresis" unicode="Ï" horiz-adv-x="522" d="M131 0v1475h260V0H131zM94 1554q-59 0-102.5 31.5T-52 1674t43.5 88.5T94 1794q57 0 101-31.5t44-88.5-44-88.5T94 1554zm340 0q-59 0-102 31.5t-43 88.5 43 88.5 102 31.5q58 0 101.5-31.5T579 1674t-43.5-88.5T434 1554z"/><glyph glyph-name="Eth" unicode="Ð" horiz-adv-x="1311" d="M8 676v121h717V676H8zM129 0v1475h441q147 0 267-52.5t206-149.5 133-232.5 47-301.5-47-301.5T1043 204 837 53 570 0H129zm264 79L274 210h262q120 0 214.5 64.5t149.5 183T955 739q0 164-55 282t-149.5 181-214.5 63H274l119 131V79z"/><glyph glyph-name="Ntilde" unicode="Ñ" horiz-adv-x="1427" d="M385 0H129v1475h413l539-1368-39-11v1379h257V0H880L343 1365l42 10V0zm667 1749q-1-44-20.5-91.5T971 1577t-106-33q-51 0-86 20t-58 40q-22 19-44.5 33t-51.5 14q-37 0-52.5-24.5T556 1567H417q2 46 23.5 94t64.5 80.5 109 32.5q48 0 82.5-19.5T753 1716q23-19 47-34t50-15q35 0 49 23.5t15 58.5h138z"/><glyph glyph-name="Ograve" unicode="Ò" horiz-adv-x="1455" d="M727-22q-134 0-250 50T273.5 175.5t-136 239T89 739t48.5 324T273 1300.5t203.5 146T727 1496q136 0 252.5-49.5t203.5-146 135.5-237.5 48.5-324-49-324.5-136.5-239T978 28 727-22zm0 217q104 0 188 56.5T1048.5 428t49.5 311q0 192-50 310.5T914 1223t-187 55q-101 0-185.5-55t-135-173.5T356 739t50.5-312 135-176T727 195zm156 1361H688l-301 198h220z"/><glyph glyph-name="Oacute" unicode="Ó" horiz-adv-x="1455" d="M727-22q-134 0-250 50T273.5 175.5t-136 239T89 739t48.5 324T273 1300.5t203.5 146T727 1496q136 0 252.5-49.5t203.5-146 135.5-237.5 48.5-324-49-324.5-136.5-239T978 28 727-22zm0 217q104 0 188 56.5T1048.5 428t49.5 311q0 192-50 310.5T914 1223t-187 55q-101 0-185.5-55t-135-173.5T356 739t50.5-312 135-176T727 195zM575 1556l276 198h220l-300-198H575z"/><glyph glyph-name="Ocircumflex" unicode="Ô" horiz-adv-x="1455" d="M727-22q-134 0-250 50T273.5 175.5t-136 239T89 739t48.5 324T273 1300.5t203.5 146T727 1496q136 0 252.5-49.5t203.5-146 135.5-237.5 48.5-324-49-324.5-136.5-239T978 28 727-22zm0 217q104 0 188 56.5T1048.5 428t49.5 311q0 192-50 310.5T914 1223t-187 55q-101 0-185.5-55t-135-173.5T356 739t50.5-312 135-176T727 195zM407 1554l231 198h179l232-198H873l-181 158h71l-182-158H407z"/><glyph glyph-name="Otilde" unicode="Õ" horiz-adv-x="1455" d="M727-22q-134 0-250 50T273.5 175.5t-136 239T89 739t48.5 324T273 1300.5t203.5 146T727 1496q136 0 252.5-49.5t203.5-146 135.5-237.5 48.5-324-49-324.5-136.5-239T978 28 727-22zm0 217q104 0 188 56.5T1048.5 428t49.5 311q0 192-50 310.5T914 1223t-187 55q-101 0-185.5-55t-135-173.5T356 739t50.5-312 135-176T727 195zm324 1554q-1-44-20.5-91.5T970 1577t-106-33q-51 0-86 20t-58 40q-22 19-44.5 33t-51.5 14q-37 0-52.5-24.5T555 1567H416q2 46 23.5 94t64.5 80.5 109 32.5q48 0 82.5-19.5T752 1716q23-19 47-34t50-15q35 0 49 23.5t15 58.5h138z"/><glyph glyph-name="Odieresis" unicode="Ö" horiz-adv-x="1455" d="M727-22q-134 0-250 50T273.5 175.5t-136 239T89 739t48.5 324T273 1300.5t203.5 146T727 1496q136 0 252.5-49.5t203.5-146 135.5-237.5 48.5-324-49-324.5-136.5-239T978 28 727-22zm0 217q104 0 188 56.5T1048.5 428t49.5 311q0 192-50 310.5T914 1223t-187 55q-101 0-185.5-55t-135-173.5T356 739t50.5-312 135-176T727 195zM502 1549q-58 0-101.5 31.5T357 1669t43.5 88 101.5 31q59 0 102.5-31t43.5-88q0-58-43.5-89T502 1549zm452 0q-59 0-102 31.5t-43 88.5 43 88 102 31q58 0 101.5-31t43.5-88q0-58-43.5-89T954 1549z"/><glyph glyph-name="multiply" unicode="×" horiz-adv-x="1256" d="M392 200 275 316l588 527 118-116zm589 116L863 198 274 726l117 117z"/><glyph glyph-name="Oslash" unicode="Ø" horiz-adv-x="1455" d="M1275 1495 316-97 179-19l957 1592zM727-22q-134 0-250 50T273.5 175.5t-136 239T89 739t48.5 324T273 1300.5t203.5 146T727 1496q136 0 252.5-49.5t203.5-146 135.5-237.5 48.5-324-49-324.5-136.5-239T978 28 727-22zm0 217q104 0 188 56.5T1048.5 428t49.5 311q0 192-50 310.5T914 1223t-187 55q-101 0-185.5-55t-135-173.5T356 739t50.5-312 135-176T727 195z"/><glyph glyph-name="Ugrave" unicode="Ù" horiz-adv-x="1332" d="M1204 536q0-282-143.5-420T665-22q-250 0-393 138T129 536v939h264V534q0-178 66.5-259T665 194q141 0 208 81t67 259v941h264V536zM821 1556H626l-301 198h220z"/><glyph glyph-name="Uacute" unicode="Ú" horiz-adv-x="1332" d="M1204 536q0-282-143.5-420T665-22q-250 0-393 138T129 536v939h264V534q0-178 66.5-259T665 194q141 0 208 81t67 259v941h264V536zM513 1556l276 198h220l-300-198H513z"/><glyph glyph-name="Ucircumflex" unicode="Û" horiz-adv-x="1332" d="M1204 536q0-282-143.5-420T665-22q-250 0-393 138T129 536v939h264V534q0-178 66.5-259T665 194q141 0 208 81t67 259v941h264V536zM345 1554l231 198h179l232-198H811l-181 158h71l-182-158H345z"/><glyph glyph-name="Udieresis" unicode="Ü" horiz-adv-x="1332" d="M1204 536q0-282-143.5-420T665-22q-250 0-393 138T129 536v939h264V534q0-178 66.5-259T665 194q141 0 208 81t67 259v941h264V536zM440 1549q-58 0-101.5 31.5T295 1669t43.5 88 101.5 31q59 0 102.5-31t43.5-88q0-58-43.5-89T440 1549zm452 0q-59 0-102 31.5t-43 88.5 43 88 102 31q58 0 101.5-31t43.5-88q0-58-43.5-89T892 1549z"/><glyph glyph-name="Yacute" unicode="Ý" horiz-adv-x="1233" d="M1170 1475 747 510V0H483v510L63 1475h279l327-826H563l326 826h281zm-706 81 276 198h220l-300-198H464z"/><glyph glyph-name="Thorn" unicode="Þ" horiz-adv-x="1164" d="M129 0v1473h263v-404l-81 80h287q141 0 248.5-47.5t168-141T1075 729q0-139-61-232.5T845.5 356 598 309H311l81 80V0H129zm263 443-64 76h243q71 0 125.5 23t85.5 70 31 117q0 72-31 118t-86 68.5T571 938H323l69 81V443z"/><glyph glyph-name="germandbls" unicode="ß" horiz-adv-x="1243" d="M107 0v971q0 127 30.5 218t82.5 151.5 118.5 95.5 140 50 146.5 15q118 0 214.5-43T993 1336.5t57-186.5q0-87-38-145.5T940 912q-27-26-43-50t-16-51q0-24 31-54t77-69q39-31 78-73t65-97.5 26-130.5q0-124-51.5-213.5T948 35.5 672-13q-61 0-111.5 8T485 11l37 212q17-7 57-17t93-10q107 0 166.5 39.5T898 371q0 43-20 80t-50 69-62 59q-51 47-95.5 104.5T626 806q0 59 25.5 100t56.5 69q37 35 66 76.5t29 88.5q0 40-18 74t-58.5 55-109.5 21q-126 0-187.5-79.5T368 940V0H107z"/><glyph glyph-name="agrave" unicode="à" horiz-adv-x="1243" d="M496-22q-119 0-209 37.5T146 124 95 295q0 109 59.5 179.5t160.5 109T539 633q182 18 254.5 34.5T866 721v2q0 70-63 108t-178 38q-121 0-185.5-42.5T375 692H115q0 125 66.5 211.5T364 1035t263 45q137 0 251-41t183-124 69-207V224q0-38 2.5-74.5T1143 84q10-32 24-54t22-30H929q-7 7-19.5 27.5T887 75q-10 30-15 64.5t-5 76.5l52-36q-30-61-91.5-106.5T681 3 496-22zm64 207q82 0 152 28t113 86.5T868 450v142l64-72q-64-24-154-39.5T596 456q-118-11-177.5-41T359 317q0-66 50-99t151-33zm225 1024H603l-267 262h210z"/><glyph glyph-name="aacute" unicode="á" horiz-adv-x="1243" d="M496-22q-119 0-209 37.5T146 124 95 295q0 109 59.5 179.5t160.5 109T539 633q182 18 254.5 34.5T866 721v2q0 70-63 108t-178 38q-121 0-185.5-42.5T375 692H115q0 125 66.5 211.5T364 1035t263 45q137 0 251-41t183-124 69-207V224q0-38 2.5-74.5T1143 84q10-32 24-54t22-30H929q-7 7-19.5 27.5T887 75q-10 30-15 64.5t-5 76.5l52-36q-30-61-91.5-106.5T681 3 496-22zm64 207q82 0 152 28t113 86.5T868 450v142l64-72q-64-24-154-39.5T596 456q-118-11-177.5-41T359 317q0-66 50-99t151-33zm-68 1028 238 262h211l-268-262H492z"/><glyph glyph-name="acircumflex" unicode="â" horiz-adv-x="1243" d="M496-22q-119 0-209 37.5T146 124 95 295q0 109 59.5 179.5t160.5 109T539 633q182 18 254.5 34.5T866 721v2q0 70-63 108t-178 38q-121 0-185.5-42.5T375 692H115q0 125 66.5 211.5T364 1035t263 45q137 0 251-41t183-124 69-207V224q0-38 2.5-74.5T1143 84q10-32 24-54t22-30H929q-7 7-19.5 27.5T887 75q-10 30-15 64.5t-5 76.5l52-36q-30-61-91.5-106.5T681 3 496-22zm64 207q82 0 152 28t113 86.5T868 450v142l64-72q-64-24-154-39.5T596 456q-118-11-177.5-41T359 317q0-66 50-99t151-33zM324 1213l230 262h174l231-262H786l-182 213h72l-181-213H324z"/><glyph glyph-name="atilde" unicode="ã" horiz-adv-x="1243" d="M496-22q-119 0-209 37.5T146 124 95 295q0 109 59.5 179.5t160.5 109T539 633q182 18 254.5 34.5T866 721v2q0 70-63 108t-178 38q-121 0-185.5-42.5T375 692H115q0 125 66.5 211.5T364 1035t263 45q137 0 251-41t183-124 69-207V224q0-38 2.5-74.5T1143 84q10-32 24-54t22-30H929q-7 7-19.5 27.5T887 75q-10 30-15 64.5t-5 76.5l52-36q-30-61-91.5-106.5T681 3 496-22zm64 207q82 0 152 28t113 86.5T868 450v142l64-72q-64-24-154-39.5T596 456q-118-11-177.5-41T359 317q0-66 50-99t151-33zm398 1269q-1-44-20.5-91t-60.5-80-106-33q-51 0-86 20t-58 39q-22 19-44.5 33t-51.5 14q-37 0-52.5-24.5T462 1273H323q2 45 23.5 93t64.5 81 109 33q48 0 82.5-20t56.5-39q23-19 47-34t50-15q35 0 49 24t15 58h138z"/><glyph glyph-name="adieresis" unicode="ä" horiz-adv-x="1243" d="M496-22q-119 0-209 37.5T146 124 95 295q0 109 59.5 179.5t160.5 109T539 633q182 18 254.5 34.5T866 721v2q0 70-63 108t-178 38q-121 0-185.5-42.5T375 692H115q0 125 66.5 211.5T364 1035t263 45q137 0 251-41t183-124 69-207V224q0-38 2.5-74.5T1143 84q10-32 24-54t22-30H929q-7 7-19.5 27.5T887 75q-10 30-15 64.5t-5 76.5l52-36q-30-61-91.5-106.5T681 3 496-22zm64 207q82 0 152 28t113 86.5T868 450v142l64-72q-64-24-154-39.5T596 456q-118-11-177.5-41T359 317q0-66 50-99t151-33zM414 1254q-58 0-101.5 31.5T269 1374t43.5 88 101.5 31q59 0 102.5-31t43.5-88q0-58-43.5-89T414 1254zm452 0q-59 0-102 31.5t-43 88.5 43 88 102 31q58 0 101.5-31t43.5-88q0-58-43.5-89T866 1254z"/><glyph glyph-name="aring" unicode="å" horiz-adv-x="1243" d="M496-22q-119 0-209 37.5T146 124 95 295q0 109 59.5 179.5t160.5 109T539 633q182 18 254.5 34.5T866 721v2q0 70-63 108t-178 38q-121 0-185.5-42.5T375 692H115q0 125 66.5 211.5T364 1035t263 45q137 0 251-41t183-124 69-207V224q0-38 2.5-74.5T1143 84q10-32 24-54t22-30H929q-7 7-19.5 27.5T887 75q-10 30-15 64.5t-5 76.5l52-36q-30-61-91.5-106.5T681 3 496-22zm64 207q82 0 152 28t113 86.5T868 450v142l64-72q-64-24-154-39.5T596 456q-118-11-177.5-41T359 317q0-66 50-99t151-33zm81 1076q42 0 71.5 29.5T742 1362t-29.5 71.5T641 1463t-71.5-29-29.5-72q0-42 29.5-71.5T641 1261zm0-116q-60 0-109 29.5t-78.5 79T424 1362q0 60 29.5 109t78.5 78.5 109 29.5 109-29.5 78.5-78.5 29.5-109q0-59-29.5-108.5t-78.5-79-109-29.5z"/><glyph glyph-name="ae" unicode="æ" horiz-adv-x="2139" d="M572-22q-222 0-349.5 93T95 319q0 83 37.5 140.5t104 92.5 154 51T578 619q135 0 209 3t102.5 15.5T918 677v24q0 85-72 129.5T660 875q-80 0-144-19.5t-100.5-59T379 696H119q0 94 43 165.5T279.5 982t173 73.5T661 1080q134 0 245.5-44T1082 901q10-11 18.5-23t16.5-25l-92 4q75 104 196 163.5t274 59.5q172 0 297.5-71.5T1986 811t68-291q0-21-1-42t-2-32h-984l112 91q0-15 .5-29t2.5-27q8-92 46.5-160t107-104.5T1502 180q69 0 120 15t85 39 51 50.5 20 50.5h260q-5-62-43.5-125.5T1887 93.5 1719.5 9 1494-23q-112 0-208 32t-169 91.5T998 240l79 12q-37-102-118-162.5t-183-86T572-22zm14 209q57 0 115.5 15t109 52T892 358t31 171v34l66-88q-74-17-173-22t-199-5q-127 0-192-24.5T360 326q0-70 63-104.5T586 187zm604 442h598q0 5-.5 12.5T1785 657q-10 59-45.5 109.5t-96 82T1498 880q-80 0-144.5-30.5T1247 763t-57-134z"/><glyph glyph-name="ccedilla" unicode="ç" horiz-adv-x="1265" d="M753-82q35 0 69-15.5t56.5-48.5 22.5-86q0-64-38-105.5T765-399t-127-20q-60 0-118.5 15T438-373l53 99q17-11 61.5-27.5T648-318q57 0 96 23.5t39 67.5q0 37-20.5 53T712-158q-24 0-49.5-9T625-193l-105 29L591 0h120l-61-140-20 4q9 22 44.5 38T753-82zm-96 60q-168 0-297 69T158 241 85 534q0 167 73 290t202 189.5 297 66.5q126 0 223-37t163.5-98.5 101.5-135 35-146.5v-8H919q0 5-1 11l-2 12q-8 51-41 92.5T787 837t-133 25q-83 0-151.5-36.5T393.5 716 353 534q0-108 40-183.5t108.5-115T654 196q89 0 145.5 27.5t85.5 74T918 399h262q0-74-34-148.5T1046 114 882.5 15 657-22z"/><glyph glyph-name="egrave" unicode="è" horiz-adv-x="1299" d="M230 446v187h743l-30-50v26q0 69-31 129.5t-94 98T658 874q-96 0-166.5-40.5T382.5 717 344 535q0-109 37-187.5t108.5-120T664 186q70 0 121 13t83.5 35.5 49 48.5 19.5 52h262q-6-67-44.5-130.5T1047 89.5t-167.5-82T655-23q-171 0-299 70T156.5 242 85 528q0 165 72.5 289T359 1010.5t296 69.5q172 0 297.5-70T1146 815.5t68-289.5q0-21-1-45t-3-35H230zm568 763H616l-267 262h210z"/><glyph glyph-name="eacute" unicode="é" horiz-adv-x="1299" d="M230 446v187h743l-30-50v26q0 69-31 129.5t-94 98T658 874q-96 0-166.5-40.5T382.5 717 344 535q0-109 37-187.5t108.5-120T664 186q70 0 121 13t83.5 35.5 49 48.5 19.5 52h262q-6-67-44.5-130.5T1047 89.5t-167.5-82T655-23q-171 0-299 70T156.5 242 85 528q0 165 72.5 289T359 1010.5t296 69.5q172 0 297.5-70T1146 815.5t68-289.5q0-21-1-45t-3-35H230zm274 767 238 262h211l-268-262H504z"/><glyph glyph-name="ecircumflex" unicode="ê" horiz-adv-x="1299" d="M230 446v187h743l-30-50v26q0 69-31 129.5t-94 98T658 874q-96 0-166.5-40.5T382.5 717 344 535q0-109 37-187.5t108.5-120T664 186q70 0 121 13t83.5 35.5 49 48.5 19.5 52h262q-6-67-44.5-130.5T1047 89.5t-167.5-82T655-23q-171 0-299 70T156.5 242 85 528q0 165 72.5 289T359 1010.5t296 69.5q172 0 297.5-70T1146 815.5t68-289.5q0-21-1-45t-3-35H230zm107 767 230 262h174l231-262H799l-182 213h72l-181-213H337z"/><glyph glyph-name="edieresis" unicode="ë" horiz-adv-x="1299" d="M230 446v187h743l-30-50v26q0 69-31 129.5t-94 98T658 874q-96 0-166.5-40.5T382.5 717 344 535q0-109 37-187.5t108.5-120T664 186q70 0 121 13t83.5 35.5 49 48.5 19.5 52h262q-6-67-44.5-130.5T1047 89.5t-167.5-82T655-23q-171 0-299 70T156.5 242 85 528q0 165 72.5 289T359 1010.5t296 69.5q172 0 297.5-70T1146 815.5t68-289.5q0-21-1-45t-3-35H230zm197 808q-58 0-101.5 31.5T282 1374t43.5 88 101.5 31q59 0 102.5-31t43.5-88q0-58-43.5-89T427 1254zm452 0q-59 0-102 31.5t-43 88.5 43 88 102 31q58 0 101.5-31t43.5-88q0-58-43.5-89T879 1254z"/><glyph glyph-name="igrave" unicode="ì" horiz-adv-x="514" d="M127 0v1062h260V0H127zm275 1209H220l-267 262h210z"/><glyph glyph-name="iacute" unicode="í" horiz-adv-x="514" d="M127 0v1062h260V0H127zm-19 1213 238 262h211l-268-262H108z"/><glyph glyph-name="icircumflex" unicode="î" horiz-adv-x="514" d="M127 0v1062h260V0H127zM-59 1213l230 262h174l231-262H403l-182 213h72l-181-213H-59z"/><glyph glyph-name="idieresis" unicode="ï" horiz-adv-x="514" d="M127 0v1062h260V0H127zM87 1254q-59 0-102.5 31.5T-59 1374t43.5 88T87 1493q57 0 101-31t44-88q0-58-44-89t-101-31zm340 0q-59 0-102 31.5t-43 88.5 43 88 102 31q58 0 101.5-31t43.5-88q0-58-43.5-89T427 1254z"/><glyph glyph-name="eth" unicode="ð" horiz-adv-x="1349" d="m488 1262 339 306 162-90-338-304zm487-731q0 241-45 400t-125 257.5T618 1343t-231 90l128 135q148-39 276.5-115.5T1017 1254t151.5-301 54.5-422H975zM654-22q-168 0-296 71T157.5 245 85 531q0 162 72.5 285.5T358 1010t296 70 296-70 200.5-193.5T1223 531q0-161-72.5-286T950 49 654-22zm0 214q91 0 159.5 42.5T920 353t38 178-38 177.5T813.5 825 654 866q-90 0-159-41T388 708.5 350 531t38-178 107-118.5T654 192z"/><glyph glyph-name="ntilde" unicode="ñ" horiz-adv-x="1268" d="M883 0v597q0 72-20.5 129.5t-70 90.5T656 850q-76 0-135-36.5t-92.5-100T395 567l-89 55q0 133 60.5 236.5T529 1021t226 59q128 0 215.5-50t132-142 44.5-216V0H883zM132 0v1062h263V0H132zm840 1454q-1-44-20.5-91t-60.5-80-106-33q-51 0-86 20t-58 39q-22 19-44.5 33t-51.5 14q-37 0-52.5-24.5T476 1273H337q2 45 23.5 93t64.5 81 109 33q48 0 82.5-20t56.5-39q23-19 47-34t50-15q35 0 49 24t15 58h138z"/><glyph glyph-name="ograve" unicode="ò" horiz-adv-x="1308" d="M654-21q-168 0-296 70.5T157.5 245 85 531q0 162 72.5 285.5T358 1010t296 70 296-70 200.5-193.5T1223 531q0-161-72.5-286T950 49.5 654-21zm0 215q91 0 159 42t106 117.5T957 531t-38 176.5T813 823t-159 41q-90 0-158.5-41T389 707.5 351 531t38-177.5T495.5 236 654 194zm145 1015H617l-267 262h210z"/><glyph glyph-name="oacute" unicode="ó" horiz-adv-x="1308" d="M654-21q-168 0-296 70.5T157.5 245 85 531q0 162 72.5 285.5T358 1010t296 70 296-70 200.5-193.5T1223 531q0-161-72.5-286T950 49.5 654-21zm0 215q91 0 159 42t106 117.5T957 531t-38 176.5T813 823t-159 41q-90 0-158.5-41T389 707.5 351 531t38-177.5T495.5 236 654 194zM505 1213l238 262h211l-268-262H505z"/><glyph glyph-name="ocircumflex" unicode="ô" horiz-adv-x="1308" d="M654-21q-168 0-296 70.5T157.5 245 85 531q0 162 72.5 285.5T358 1010t296 70 296-70 200.5-193.5T1223 531q0-161-72.5-286T950 49.5 654-21zm0 215q91 0 159 42t106 117.5T957 531t-38 176.5T813 823t-159 41q-90 0-158.5-41T389 707.5 351 531t38-177.5T495.5 236 654 194zM337 1213l230 262h174l231-262H799l-182 213h72l-181-213H337z"/><glyph glyph-name="otilde" unicode="õ" horiz-adv-x="1308" d="M654-21q-168 0-296 70.5T157.5 245 85 531q0 162 72.5 285.5T358 1010t296 70 296-70 200.5-193.5T1223 531q0-161-72.5-286T950 49.5 654-21zm0 215q91 0 159 42t106 117.5T957 531t-38 176.5T813 823t-159 41q-90 0-158.5-41T389 707.5 351 531t38-177.5T495.5 236 654 194zm318 1260q-1-44-20.5-91t-60.5-80-106-33q-51 0-86 20t-58 39q-22 19-44.5 33t-51.5 14q-37 0-52.5-24.5T476 1273H337q2 45 23.5 93t64.5 81 109 33q48 0 82.5-20t56.5-39q23-19 47-34t50-15q35 0 49 24t15 58h138z"/><glyph glyph-name="odieresis" unicode="ö" horiz-adv-x="1308" d="M654-21q-168 0-296 70.5T157.5 245 85 531q0 162 72.5 285.5T358 1010t296 70 296-70 200.5-193.5T1223 531q0-161-72.5-286T950 49.5 654-21zm0 215q91 0 159 42t106 117.5T957 531t-38 176.5T813 823t-159 41q-90 0-158.5-41T389 707.5 351 531t38-177.5T495.5 236 654 194zM428 1254q-58 0-101.5 31.5T283 1374t43.5 88 101.5 31q59 0 102.5-31t43.5-88q0-58-43.5-89T428 1254zm452 0q-59 0-102 31.5t-43 88.5 43 88 102 31q58 0 101.5-31t43.5-88q0-58-43.5-89T880 1254z"/><glyph glyph-name="divide" unicode="÷" horiz-adv-x="1256" d="M269 439v165h718V439H269zm354 316q-47 0-79 30.5T512 862t32 76.5 79 30.5q48 0 79.5-30.5T734 862t-31.5-76.5T623 755zm0-676q-47 0-79 30.5T512 185q0 47 32 77.5t79 30.5q48 0 79.5-30.5T734 185q0-45-31.5-75.5T623 79z"/><glyph glyph-name="oslash" unicode="ø" horiz-adv-x="1308" d="M1081 1040 320-56 213 21l761 1095zM654-21q-168 0-296 70.5T157.5 245 85 531q0 162 72.5 285.5T358 1010t296 70 296-70 200.5-193.5T1223 531q0-161-72.5-286T950 49.5 654-21zm0 215q91 0 159 42t106 117.5T957 531t-38 176.5T813 823t-159 41q-90 0-158.5-41T389 707.5 351 531t38-177.5T495.5 236 654 194z"/><glyph glyph-name="ugrave" unicode="ù" horiz-adv-x="1245" d="M514-20q-113 0-187.5 38t-117 100-60 137T132 405v657h264V473q0-71 17-131.5t62.5-97.5T604 207q79 0 136 46.5T828.5 371 860 515l90-60q0-97-30-182.5T833 121 695.5 17.5 514-20zM860 0v1062h263V0H860zM758 1209H576l-267 262h210z"/><glyph glyph-name="uacute" unicode="ú" horiz-adv-x="1245" d="M514-20q-113 0-187.5 38t-117 100-60 137T132 405v657h264V473q0-71 17-131.5t62.5-97.5T604 207q79 0 136 46.5T828.5 371 860 515l90-60q0-97-30-182.5T833 121 695.5 17.5 514-20zM860 0v1062h263V0H860zM464 1213l238 262h211l-268-262H464z"/><glyph glyph-name="ucircumflex" unicode="û" horiz-adv-x="1245" d="M514-20q-113 0-187.5 38t-117 100-60 137T132 405v657h264V473q0-71 17-131.5t62.5-97.5T604 207q79 0 136 46.5T828.5 371 860 515l90-60q0-97-30-182.5T833 121 695.5 17.5 514-20zM860 0v1062h263V0H860zM296 1213l230 262h174l231-262H758l-182 213h72l-181-213H296z"/><glyph glyph-name="udieresis" unicode="ü" horiz-adv-x="1245" d="M514-20q-113 0-187.5 38t-117 100-60 137T132 405v657h264V473q0-71 17-131.5t62.5-97.5T604 207q79 0 136 46.5T828.5 371 860 515l90-60q0-97-30-182.5T833 121 695.5 17.5 514-20zM860 0v1062h263V0H860zM387 1254q-58 0-101.5 31.5T242 1374t43.5 88 101.5 31q59 0 102.5-31t43.5-88q0-58-43.5-89T387 1254zm452 0q-59 0-102 31.5t-43 88.5 43 88 102 31q58 0 101.5-31t43.5-88q0-58-43.5-89T839 1254z"/><glyph glyph-name="yacute" unicode="ý" horiz-adv-x="1096" d="M201-456q-47 0-84 4.5T71-443v205q13-6 44.5-9.5T181-251q55 0 95.5 22t69.5 60.5T392-79l23 67L49 1062h275l251-886h-32l245 886h270L686-65q-39-117-94.5-205T444-407t-243-49zm200 1669 238 262h211l-268-262H401z"/><glyph glyph-name="thorn" unicode="þ" horiz-adv-x="1303" d="M730-22q-125 0-230.5 64.5T329.5 219 265 471v14l130 3v-10q0-78 39.5-138.5t102-95T669 210q115 0 196.5 79T947 534q0 167-81 244.5T669 856q-70 0-132.5-33.5t-102-92.5T395 592l-130 6q0 141 64.5 250t170 170.5T730 1080q129 0 240-63.5t179.5-185T1218 534q0-181-67-305T973 41.5 730-22zM132-437v2000h263V-437H132z"/><glyph glyph-name="ydieresis" unicode="ÿ" horiz-adv-x="1096" d="M201-456q-47 0-84 4.5T71-443v205q13-6 44.5-9.5T181-251q55 0 95.5 22t69.5 60.5T392-79l23 67L49 1062h275l251-886h-32l245 886h270L686-65q-39-117-94.5-205T444-407t-243-49zm123 1710q-58 0-101.5 31.5T179 1374t43.5 88 101.5 31q59 0 102.5-31t43.5-88q0-58-43.5-89T324 1254zm452 0q-59 0-102 31.5t-43 88.5 43 88 102 31q58 0 101.5-31t43.5-88q0-58-43.5-89T776 1254z"/><glyph glyph-name="Amacron" unicode="Ā" horiz-adv-x="1301" d="m63 0 381 1477h416L1238 0H967L651 1314h2L334 0H63zm246 359v211h686V359H309zm48 1251v111h588v-111H357z"/><glyph glyph-name="amacron" unicode="ā" horiz-adv-x="1243" d="M496-22q-119 0-209 37.5T146 124 95 295q0 109 59.5 179.5t160.5 109T539 633q182 18 254.5 34.5T866 721v2q0 70-63 108t-178 38q-121 0-185.5-42.5T375 692H115q0 125 66.5 211.5T364 1035t263 45q137 0 251-41t183-124 69-207V224q0-38 2.5-74.5T1143 84q10-32 24-54t22-30H929q-7 7-19.5 27.5T887 75q-10 30-15 64.5t-5 76.5l52-36q-30-61-91.5-106.5T681 3 496-22zm64 207q82 0 152 28t113 86.5T868 450v142l64-72q-64-24-154-39.5T596 456q-118-11-177.5-41T359 317q0-66 50-99t151-33zM347 1297v112h588v-112H347z"/><glyph glyph-name="Abreve" unicode="Ă" horiz-adv-x="1301" d="m63 0 381 1477h416L1238 0H967L651 1314h2L334 0H63zm246 359v211h686V359H309zm70 1375h156q0-39 31-67t86-28q56 0 86.5 28t30.5 67h157q0-89-78.5-144T652 1535t-195 55-78 144z"/><glyph glyph-name="abreve" unicode="ă" horiz-adv-x="1243" d="M496-22q-119 0-209 37.5T146 124 95 295q0 109 59.5 179.5t160.5 109T539 633q182 18 254.5 34.5T866 721v2q0 70-63 108t-178 38q-121 0-185.5-42.5T375 692H115q0 125 66.5 211.5T364 1035t263 45q137 0 251-41t183-124 69-207V224q0-38 2.5-74.5T1143 84q10-32 24-54t22-30H929q-7 7-19.5 27.5T887 75q-10 30-15 64.5t-5 76.5l52-36q-30-61-91.5-106.5T681 3 496-22zm64 207q82 0 152 28t113 86.5T868 450v142l64-72q-64-24-154-39.5T596 456q-118-11-177.5-41T359 317q0-66 50-99t151-33zM368 1495h156q0-61 31-101.5t86-40.5q56 0 86.5 40.5T758 1495h157q0-116-78.5-180.5T641 1250t-195 64.5-78 180.5z"/><glyph glyph-name="Aogonek" unicode="Ą" horiz-adv-x="1301" d="m63 0 381 1477h416L1238 0H967L651 1314h2L334 0H63zm246 359v211h686V359H309zm929-668v-129q-20-2-44.5-4t-49.5-2q-62 0-116 15.5t-87 51-33 93.5 33.5 112.5 79.5 100T1104 0h134q-32-27-73.5-71.5t-72.5-91-31-81.5q0-40 28.5-56t70.5-16q19 0 40 2t38 5z"/><glyph glyph-name="aogonek" unicode="ą" horiz-adv-x="1243" d="M496-22q-119 0-209 37.5T146 124 95 295q0 109 59.5 179.5t160.5 109T539 633q182 18 254.5 34.5T866 721v2q0 70-63 108t-178 38q-121 0-185.5-42.5T375 692H115q0 125 66.5 211.5T364 1035t263 45q137 0 251-41t183-124 69-207V224q0-38 2.5-74.5T1143 84q10-32 24-54t22-30H929q-7 7-19.5 27.5T887 75q-10 30-15 64.5t-5 76.5l52-36q-30-61-91.5-106.5T681 3 496-22zm64 207q82 0 152 28t113 86.5T868 450v142l64-72q-64-24-154-39.5T596 456q-118-11-177.5-41T359 317q0-66 50-99t151-33zm630-494v-129q-20-2-44.5-4t-49.5-2q-62 0-114 16.5t-83 53-31 94.5q0 54 31.5 108T975-72t81 72h134q-32-27-73.5-71.5t-72.5-91-31-81.5q0-40 28.5-56t70.5-16q19 0 40 2t38 5z"/><glyph glyph-name="Cacute" unicode="Ć" horiz-adv-x="1383" d="M1294 531q0-94-35-191t-106.5-179.5T972 28 716-22q-199 0-339.5 97.5T162.5 344 89 737q0 223 73.5 394t214 268 339.5 97q165 0 282-63t187-162 94-207q15-63 15-120h-265q0 29-4 60-11 76-50.5 138.5t-104.5 99-154 36.5q-106 0-186.5-59T403 1040t-46-303q0-181 46-302t126.5-181T716 194q76 0 134 28t98 75.5 60.5 107.5 20.5 126h265zM557 1556l276 198h220l-300-198H557z"/><glyph glyph-name="cacute" unicode="ć" horiz-adv-x="1265" d="M657-22q-168 0-297 69T158 241 85 534q0 167 73 290t202 189.5 297 66.5q126 0 223-37t163.5-98.5 101.5-135 35-146.5v-8H919q0 5-1 11l-2 12q-8 51-41 92.5T787 837t-133 25q-83 0-151.5-36.5T393.5 716 353 534q0-108 40-183.5t108.5-115T654 196q89 0 145.5 27.5t85.5 74T918 399h262q0-74-34-148.5T1046 114 882.5 15 657-22zM489 1213l238 262h211l-268-262H489z"/><glyph glyph-name="Ccircumflex" unicode="Ĉ" horiz-adv-x="1383" d="M1294 531q0-94-35-191t-106.5-179.5T972 28 716-22q-199 0-339.5 97.5T162.5 344 89 737q0 223 73.5 394t214 268 339.5 97q165 0 282-63t187-162 94-207q15-63 15-120h-265q0 29-4 60-11 76-50.5 138.5t-104.5 99-154 36.5q-106 0-186.5-59T403 1040t-46-303q0-181 46-302t126.5-181T716 194q76 0 134 28t98 75.5 60.5 107.5 20.5 126h265zM389 1554l231 198h179l232-198H855l-181 158h71l-182-158H389z"/><glyph glyph-name="ccircumflex" unicode="ĉ" horiz-adv-x="1265" d="M657-22q-168 0-297 69T158 241 85 534q0 167 73 290t202 189.5 297 66.5q126 0 223-37t163.5-98.5 101.5-135 35-146.5v-8H919q0 5-1 11l-2 12q-8 51-41 92.5T787 837t-133 25q-83 0-151.5-36.5T393.5 716 353 534q0-108 40-183.5t108.5-115T654 196q89 0 145.5 27.5t85.5 74T918 399h262q0-74-34-148.5T1046 114 882.5 15 657-22zM322 1213l230 262h174l231-262H784l-182 213h72l-181-213H322z"/><glyph glyph-name="Cdotaccent" unicode="Ċ" horiz-adv-x="1383" d="M1294 531q0-94-35-191t-106.5-179.5T972 28 716-22q-199 0-339.5 97.5T162.5 344 89 737q0 223 73.5 394t214 268 339.5 97q165 0 282-63t187-162 94-207q15-63 15-120h-265q0 29-4 60-11 76-50.5 138.5t-104.5 99-154 36.5q-106 0-186.5-59T403 1040t-46-303q0-181 46-302t126.5-181T716 194q76 0 134 28t98 75.5 60.5 107.5 20.5 126h265zM712 1565q-63 0-110.5 34.5T554 1695q0 62 47.5 96t110.5 34q64 0 111-34t47-96-47-96-111-34z"/><glyph glyph-name="cdotaccent" unicode="ċ" horiz-adv-x="1265" d="M657-22q-168 0-297 69T158 241 85 534q0 167 73 290t202 189.5 297 66.5q126 0 223-37t163.5-98.5 101.5-135 35-146.5v-8H919q0 5-1 11l-2 12q-8 51-41 92.5T787 837t-133 25q-83 0-151.5-36.5T393.5 716 353 534q0-108 40-183.5t108.5-115T654 196q89 0 145.5 27.5t85.5 74T918 399h262q0-74-34-148.5T1046 114 882.5 15 657-22zm-18 1280q-63 0-110.5 34t-47.5 95q0 62 47.5 96t110.5 34q64 0 111-34t47-96-47-95.5-111-33.5z"/><glyph glyph-name="Ccaron" unicode="Č" horiz-adv-x="1383" d="M1294 531q0-94-35-191t-106.5-179.5T972 28 716-22q-199 0-339.5 97.5T162.5 344 89 737q0 223 73.5 394t214 268 339.5 97q165 0 282-63t187-162 94-207q15-63 15-120h-265q0 29-4 60-11 76-50.5 138.5t-104.5 99-154 36.5q-106 0-186.5-59T403 1040t-46-303q0-181 46-302t126.5-181T716 194q76 0 134 28t98 75.5 60.5 107.5 20.5 126h265zM389 1752h174l182-159h-71l181 159h176l-232-198H620z"/><glyph glyph-name="ccaron" unicode="č" horiz-adv-x="1265" d="M657-22q-168 0-297 69T158 241 85 534q0 167 73 290t202 189.5 297 66.5q126 0 223-37t163.5-98.5 101.5-135 35-146.5v-8H919q0 5-1 11l-2 12q-8 51-41 92.5T787 837t-133 25q-83 0-151.5-36.5T393.5 716 353 534q0-108 40-183.5t108.5-115T654 196q89 0 145.5 27.5t85.5 74T918 399h262q0-74-34-148.5T1046 114 882.5 15 657-22zM322 1475h171l181-213h-72l182 213h173l-231-262H552z"/><glyph glyph-name="Dcaron" unicode="Ď" horiz-adv-x="1311" d="M129 0v1475h441q147 0 267-52.5t206-149.5 133-232.5 47-301.5-47-301.5T1043 204 837 53 570 0H129zm264 79L274 210h262q120 0 214.5 64.5t149.5 183T955 739q0 164-55 282t-149.5 181-214.5 63H274l119 131V79zm-89 1673h174l182-159h-71l181 159h176l-232-198H535z"/><glyph glyph-name="dcaron" unicode="ď" horiz-adv-x="1458" d="M573-22q-131 0-242.5 63.5T152 229 85 534q0 176 68.5 298t180 185 239.5 63q125 0 231-61.5T974 848t64-250v-16l-130-3v13q0 79-39.5 138t-102 92.5T634 856q-115 0-196-77.5T357 534q0-166 81-245t196-79q73 0 135 35t100.5 96.5T908 483l130-6q0-140-62.5-253.5T808 44 573-22zM908 0v1563h264V0H908zm546 1563q0-83-9.5-167.5t-21.5-149-19-91.5h-124q6 28 13.5 91.5t13 147 5.5 169.5h142z"/><glyph glyph-name="Dcroat" unicode="Đ" horiz-adv-x="1311" d="M129 0v1475h441q147 0 267-52.5t206-149.5 133-232.5 47-301.5-47-301.5T1043 204 837 53 570 0H129zm264 79L274 210h262q120 0 214.5 64.5t149.5 183T955 739q0 164-55 282t-149.5 181-214.5 63H274l119 131V79zM8 676v121h717V676H8z"/><glyph glyph-name="dcroat" unicode="đ" horiz-adv-x="1305" d="M538 1253v150h745v-150H538zM573-22q-131 0-242.5 63.5T152 229 85 534q0 176 68.5 298t180 185 239.5 63q125 0 231-61.5T974 848t64-250v-16l-130-3v13q0 79-39.5 138t-102 92.5T634 856q-115 0-196-77.5T357 534q0-166 81-245t196-79q73 0 135 35t100.5 96.5T908 483l130-6q0-140-62.5-253.5T808 44 573-22zM908 0v1563h264V0H908z"/><glyph glyph-name="Emacron" unicode="Ē" horiz-adv-x="1124" d="m275 1265 119 131V766l-62 79h552V635H332l62 78V79L275 210h720V0H129v1475h866v-210H275zm5 345v111h588v-111H280z"/><glyph glyph-name="emacron" unicode="ē" horiz-adv-x="1299" d="M230 446v187h743l-30-50v26q0 69-31 129.5t-94 98T658 874q-96 0-166.5-40.5T382.5 717 344 535q0-109 37-187.5t108.5-120T664 186q70 0 121 13t83.5 35.5 49 48.5 19.5 52h262q-6-67-44.5-130.5T1047 89.5t-167.5-82T655-23q-171 0-299 70T156.5 242 85 528q0 165 72.5 289T359 1010.5t296 69.5q172 0 297.5-70T1146 815.5t68-289.5q0-21-1-45t-3-35H230zm130 851v112h588v-112H360z"/><glyph glyph-name="Ebreve" unicode="Ĕ" horiz-adv-x="1124" d="m275 1265 119 131V766l-62 79h552V635H332l62 78V79L275 210h720V0H129v1475h866v-210H275zm27 469h156q0-39 31-67t86-28q56 0 86.5 28t30.5 67h157q0-89-78.5-144T575 1535t-195 55-78 144z"/><glyph glyph-name="ebreve" unicode="ĕ" horiz-adv-x="1299" d="M230 446v187h743l-30-50v26q0 69-31 129.5t-94 98T658 874q-96 0-166.5-40.5T382.5 717 344 535q0-109 37-187.5t108.5-120T664 186q70 0 121 13t83.5 35.5 49 48.5 19.5 52h262q-6-67-44.5-130.5T1047 89.5t-167.5-82T655-23q-171 0-299 70T156.5 242 85 528q0 165 72.5 289T359 1010.5t296 69.5q172 0 297.5-70T1146 815.5t68-289.5q0-21-1-45t-3-35H230zm151 1049h156q0-61 31-101.5t86-40.5q56 0 86.5 40.5T771 1495h157q0-116-78.5-180.5T654 1250t-195 64.5-78 180.5z"/><glyph glyph-name="Edotaccent" unicode="Ė" horiz-adv-x="1124" d="m275 1265 119 131V766l-62 79h552V635H332l62 78V79L275 210h720V0H129v1475h866v-210H275zm302 300q-63 0-110.5 34.5T419 1695q0 62 47.5 96t110.5 34q64 0 111-34t47-96-47-96-111-34z"/><glyph glyph-name="edotaccent" unicode="ė" horiz-adv-x="1299" d="M230 446v187h743l-30-50v26q0 69-31 129.5t-94 98T658 874q-96 0-166.5-40.5T382.5 717 344 535q0-109 37-187.5t108.5-120T664 186q70 0 121 13t83.5 35.5 49 48.5 19.5 52h262q-6-67-44.5-130.5T1047 89.5t-167.5-82T655-23q-171 0-299 70T156.5 242 85 528q0 165 72.5 289T359 1010.5t296 69.5q172 0 297.5-70T1146 815.5t68-289.5q0-21-1-45t-3-35H230zm424 812q-63 0-110.5 34t-47.5 95q0 62 47.5 96t110.5 34q64 0 111-34t47-96-47-95.5-111-33.5z"/><glyph glyph-name="Eogonek" unicode="Ę" horiz-adv-x="1124" d="m275 1265 119 131V766l-62 79h552V635H332l62 78V79L275 210h720V0H129v1475h866v-210H275zM995-309v-129q-20-2-44.5-4t-49.5-2q-62 0-116 15.5t-87 51-33 93.5 33.5 112.5 79.5 100T861 0h134q-32-27-73.5-71.5t-72.5-91-31-81.5q0-40 28.5-56t70.5-16q19 0 40 2t38 5z"/><glyph glyph-name="eogonek" unicode="ę" horiz-adv-x="1299" d="M906-288v-128q-19-3-43.5-5t-49.5-2q-62 0-114 17t-83.5 53.5T584-258q0 53 31.5 107t76 100T772 21h134q-31-27-72.5-71T761-141t-31-82q0-40 28-56t70-16q20 0 41 2.5t37 4.5zM230 446v187h743l-30-50v26q0 69-31 129.5t-94 98T658 874q-96 0-166.5-40.5T382.5 717 344 535q0-109 37-187.5t108.5-120T664 186q70 0 121 13t83.5 35.5 49 48.5 19.5 52h262q-6-67-44.5-130.5T1047 89.5t-167.5-82T655-23q-171 0-299 70T156.5 242 85 528q0 165 72.5 289T359 1010.5t296 69.5q172 0 297.5-70T1146 815.5t68-289.5q0-21-1-45t-3-35H230z"/><glyph glyph-name="Ecaron" unicode="Ě" horiz-adv-x="1124" d="m275 1265 119 131V766l-62 79h552V635H332l62 78V79L275 210h720V0H129v1475h866v-210H275zm-21 487h174l182-159h-71l181 159h176l-232-198H485z"/><glyph glyph-name="ecaron" unicode="ě" horiz-adv-x="1299" d="M230 446v187h743l-30-50v26q0 69-31 129.5t-94 98T658 874q-96 0-166.5-40.5T382.5 717 344 535q0-109 37-187.5t108.5-120T664 186q70 0 121 13t83.5 35.5 49 48.5 19.5 52h262q-6-67-44.5-130.5T1047 89.5t-167.5-82T655-23q-171 0-299 70T156.5 242 85 528q0 165 72.5 289T359 1010.5t296 69.5q172 0 297.5-70T1146 815.5t68-289.5q0-21-1-45t-3-35H230zm107 1029h171l181-213h-72l182 213h173l-231-262H567z"/><glyph glyph-name="Gcircumflex" unicode="Ĝ" horiz-adv-x="1413" d="M708-22q-172 0-312.5 88T172 323 89 734q0 243 86 413t232.5 259.5T735 1496q150 0 254.5-49.5t170-127.5 95-164 29.5-160v-12h-256v12q0 52-18 102t-55 91-92 65-128 24q-99 0-185.5-55t-140-174.5T356 734q0-147 30-250t81.5-167 118-93.5T726 194q100 0 166.5 34t104 85 47.5 100v115H729v198h551V0h-152l-22 164q-7-18-32.5-49T1001 52.5 881.5-.5 708-22zM409 1554l231 198h179l232-198H875l-181 158h71l-182-158H409z"/><glyph glyph-name="gcircumflex" unicode="ĝ" horiz-adv-x="1247" d="M846 105q94-9 165-35t111-77.5 40-137.5q0-96-65-166T906.5-419 598-457q-266 0-409 76.5T46-173q0 37 9 67t22 50l241-35q-6-8-12-25.5t-6-42.5q0-62 83.5-89.5T606-276q102 0 170.5 14t104 40 35.5 61q0 52-47 67T757-74L354-37Q246-26 176.5 27T107 167q0 53 28.5 98t65.5 75.5 63 37.5l150-74q-21-3-49.5-27T336 220q0-31 28-51.5T472 140zm119 957h236l-96-412q-27-116-87-208T858 297t-252-53q-158 0-272.5 51.5T157 440.5 95 656q0 125 63.5 220.5t175 149.5 252.5 54q114 0 205-37.5T936.5 945 995 817l-59-11zM605 447q77 0 133 25t87 72.5T856 660q0 67-31 115t-87 73.5T606 874q-74 0-131-26t-89.5-74.5T353 658t31.5-114.5 88-72T605 447zm-330 766 230 262h174l231-262H737l-182 213h72l-181-213H275z"/><glyph glyph-name="Gbreve" unicode="Ğ" horiz-adv-x="1413" d="M708-22q-172 0-312.5 88T172 323 89 734q0 243 86 413t232.5 259.5T735 1496q150 0 254.5-49.5t170-127.5 95-164 29.5-160v-12h-256v12q0 52-18 102t-55 91-92 65-128 24q-99 0-185.5-55t-140-174.5T356 734q0-147 30-250t81.5-167 118-93.5T726 194q100 0 166.5 34t104 85 47.5 100v115H729v198h551V0h-152l-22 164q-7-18-32.5-49T1001 52.5 881.5-.5 708-22zM456 1734h156q0-39 31-67t86-28q56 0 86.5 28t30.5 67h157q0-89-78.5-144T729 1535t-195 55-78 144z"/><glyph glyph-name="gbreve" unicode="ğ" horiz-adv-x="1247" d="M846 105q94-9 165-35t111-77.5 40-137.5q0-96-65-166T906.5-419 598-457q-266 0-409 76.5T46-173q0 37 9 67t22 50l241-35q-6-8-12-25.5t-6-42.5q0-62 83.5-89.5T606-276q102 0 170.5 14t104 40 35.5 61q0 52-47 67T757-74L354-37Q246-26 176.5 27T107 167q0 53 28.5 98t65.5 75.5 63 37.5l150-74q-21-3-49.5-27T336 220q0-31 28-51.5T472 140zm119 957h236l-96-412q-27-116-87-208T858 297t-252-53q-158 0-272.5 51.5T157 440.5 95 656q0 125 63.5 220.5t175 149.5 252.5 54q114 0 205-37.5T936.5 945 995 817l-59-11zM605 447q77 0 133 25t87 72.5T856 660q0 67-31 115t-87 73.5T606 874q-74 0-131-26t-89.5-74.5T353 658t31.5-114.5 88-72T605 447zM319 1495h156q0-61 31-101.5t86-40.5q56 0 86.5 40.5T709 1495h157q0-116-78.5-180.5T592 1250t-195 64.5-78 180.5z"/><glyph glyph-name="Gdotaccent" unicode="Ġ" horiz-adv-x="1413" d="M708-22q-172 0-312.5 88T172 323 89 734q0 243 86 413t232.5 259.5T735 1496q150 0 254.5-49.5t170-127.5 95-164 29.5-160v-12h-256v12q0 52-18 102t-55 91-92 65-128 24q-99 0-185.5-55t-140-174.5T356 734q0-147 30-250t81.5-167 118-93.5T726 194q100 0 166.5 34t104 85 47.5 100v115H729v198h551V0h-152l-22 164q-7-18-32.5-49T1001 52.5 881.5-.5 708-22zm24 1587q-63 0-110.5 34.5T574 1695q0 62 47.5 96t110.5 34q64 0 111-34t47-96-47-96-111-34z"/><glyph glyph-name="gdotaccent" unicode="ġ" horiz-adv-x="1247" d="M846 105q94-9 165-35t111-77.5 40-137.5q0-96-65-166T906.5-419 598-457q-266 0-409 76.5T46-173q0 37 9 67t22 50l241-35q-6-8-12-25.5t-6-42.5q0-62 83.5-89.5T606-276q102 0 170.5 14t104 40 35.5 61q0 52-47 67T757-74L354-37Q246-26 176.5 27T107 167q0 53 28.5 98t65.5 75.5 63 37.5l150-74q-21-3-49.5-27T336 220q0-31 28-51.5T472 140zm119 957h236l-96-412q-27-116-87-208T858 297t-252-53q-158 0-272.5 51.5T157 440.5 95 656q0 125 63.5 220.5t175 149.5 252.5 54q114 0 205-37.5T936.5 945 995 817l-59-11zM605 447q77 0 133 25t87 72.5T856 660q0 67-31 115t-87 73.5T606 874q-74 0-131-26t-89.5-74.5T353 658t31.5-114.5 88-72T605 447zm-13 811q-63 0-110.5 34t-47.5 95q0 62 47.5 96t110.5 34q64 0 111-34t47-96-47-95.5-111-33.5z"/><glyph glyph-name="uni0122" unicode="Ģ" horiz-adv-x="1413" d="M708-22q-172 0-312.5 88T172 323 89 734q0 243 86 413t232.5 259.5T735 1496q150 0 254.5-49.5t170-127.5 95-164 29.5-160v-12h-256v12q0 52-18 102t-55 91-92 65-128 24q-99 0-185.5-55t-140-174.5T356 734q0-147 30-250t81.5-167 118-93.5T726 194q100 0 166.5 34t104 85 47.5 100v115H729v198h551V0h-152l-22 164q-7-18-32.5-49T1001 52.5 881.5-.5 708-22zm-6-237q-42 0-68 23t-26 62q0 48 35.5 70T721-82q27 0 54-11.5t45-36 18-66.5q0-73-30-123.5t-72.5-82T655-450l-18 45q29 11 60.5 34t53 58 21.5 81q-7-12-27.5-19.5T702-259z"/><glyph glyph-name="uni0123" unicode="ģ" horiz-adv-x="1218" d="M602 1364q38 0 61-22t23-59-24.5-61.5T590 1197q-49 0-74 33.5t-25 83.5q0 49 22.5 87.5T571 1467t74 42l16-36q-28-10-53-30t-40.5-45.5T552 1345q3 7 16.5 13t33.5 6zM831 65q86-7 151.5-31.5t102.5-72 37-124.5q0-85-58-150.5T888-416t-297-37q-253 0-382 73.5T80-179q0 40 9.5 70.5T111-59l162-24q-8-11-15.5-33.5T250-169q0-80 91-112.5T599-314q125 0 205 17t119 49 39 75q0 65-54.5 80.5T773-71L369-41q-101 8-164.5 62.5T141 154q0 48 23.5 91t55 72.5T276 353l134-61q-25-4-61.5-34.5T312 186q0-37 29-60.5T456 95zm147 997h160l-66-418q-18-117-75-211.5t-155.5-150T598 227q-151 0-258 55T176 432.5 119 648q0 122 59.5 219.5t165.5 154 243 56.5q123 0 215-42.5T947.5 929t59.5-129l-64-4zM597 379q97 0 166.5 32t107 93T908 652q0 84-37.5 145.5t-107 95T598 926q-92 0-162.5-34.5t-110-96.5T286 649q0-85 37.5-145.5t107-92.5T597 379z"/><glyph glyph-name="Hcircumflex" unicode="Ĥ" horiz-adv-x="1361" d="M1233 1475V0H969v720l119-90H274l119 88V0H129v1475h264V748l-119 92h814l-119-91v726h264zm-873 79 231 198h179l232-198H826l-181 158h71l-182-158H360z"/><glyph glyph-name="hcircumflex" unicode="ĥ" horiz-adv-x="1269" d="M884 0v577q0 132-51.5 202.5T657 850q-83 0-141.5-32.5T426 727t-31-134l-96 51q0 127 57.5 225.5T516 1024t234 56q193 0 295-114.5T1147 647V0H884zM132 0v1563h263V0H132zM-50 1706l230 262h174l231-262H412l-182 213h72l-181-213H-50z"/><glyph glyph-name="Hbar" unicode="Ħ" horiz-adv-x="1361" d="M40 1083v150h1280v-150H40zm1193 392V0H969v720l119-90H274l119 88V0H129v1475h264V748l-119 92h814l-119-91v726h264z"/><glyph glyph-name="hbar" unicode="ħ" horiz-adv-x="1281" d="M13 1253v150h726v-150H13zM896 0v577q0 132-51.5 202.5T669 850q-83 0-141.5-32.5T438 727t-31-134l-96 51q0 127 57.5 225.5T528 1024t234 56q193 0 295-114.5T1159 647V0H896zM144 0v1563h263V0H144z"/><glyph glyph-name="Itilde" unicode="Ĩ" horiz-adv-x="522" d="M131 0v1475h260V0H131zm455 1749q-1-44-20.5-91.5T505 1577t-106-33q-51 0-86 20t-58 40q-22 19-44.5 33t-51.5 14q-37 0-52.5-24.5T90 1567H-49q2 46 23.5 94t64.5 80.5 109 32.5q48 0 82.5-19.5T287 1716q23-19 47-34t50-15q35 0 49 23.5t15 58.5h138z"/><glyph glyph-name="itilde" unicode="ĩ" horiz-adv-x="514" d="M127 0v1062h260V0H127zm448 1454q-1-44-20.5-91t-60.5-80-106-33q-51 0-86 20t-58 39q-22 19-44.5 33t-51.5 14q-37 0-52.5-24.5T79 1273H-60q2 45 23.5 93t64.5 81 109 33q48 0 82.5-20t56.5-39q23-19 47-34t50-15q35 0 49 24t15 58h138z"/><glyph glyph-name="Imacron" unicode="Ī" horiz-adv-x="522" d="M131 0v1475h260V0H131zM-33 1610v111h588v-111H-33z"/><glyph glyph-name="imacron" unicode="ī" horiz-adv-x="514" d="M127 0v1062h260V0H127zM47 1297v112h422v-112H47z"/><glyph glyph-name="Ibreve" unicode="Ĭ" horiz-adv-x="522" d="M131 0v1475h260V0H131zM-11 1734h156q0-39 31-67t86-28q56 0 86.5 28t30.5 67h157q0-89-78.5-144T262 1535t-195 55-78 144z"/><glyph glyph-name="ibreve" unicode="ĭ" horiz-adv-x="514" d="M127 0v1062h260V0H127zM-15 1495h156q0-61 31-101.5t86-40.5q56 0 86.5 40.5T375 1495h157q0-116-78.5-180.5T258 1250t-195 64.5-78 180.5z"/><glyph glyph-name="Iogonek" unicode="Į" horiz-adv-x="522" d="M131 0v1475h260V0H131zm260-309v-129q-20-2-44.5-4t-49.5-2q-62 0-116 15.5t-87 51T61-284t33.5 112.5 79.5 100T257 0h134q-32-27-73.5-71.5t-72.5-91-31-81.5q0-40 28.5-56t70.5-16q19 0 40 2t38 5z"/><glyph glyph-name="iogonek" unicode="į" horiz-adv-x="514" d="M127 0v1062h260V0H127zm261-309v-129q-20-2-44.5-4t-49.5-2q-62 0-114 16.5t-83 53T66-280q0 54 31.5 108T173-72t81 72h134q-32-27-73.5-71.5t-72.5-91-31-81.5q0-40 28.5-56t70.5-16q19 0 40 2t38 5zM258 1258q-63 0-110.5 34t-47.5 95q0 62 47.5 96t110.5 34q64 0 111-34t47-96-47-95.5-111-33.5z"/><glyph glyph-name="Idotaccent" unicode="İ" horiz-adv-x="522" d="M131 0v1475h260V0H131zm133 1565q-63 0-110.5 34.5T106 1695q0 62 47.5 96t110.5 34q64 0 111-34t47-96-47-96-111-34z"/><glyph glyph-name="dotlessi" unicode="ı" horiz-adv-x="514" d="M127 0v1062h260V0H127z"/><glyph glyph-name="Jcircumflex" unicode="Ĵ" horiz-adv-x="1139" d="M539-22q-171 0-275.5 62.5T112 214.5 65 475v64h261v-40q0-83 19.5-152T411 236t128-42q81 0 126 42t63.5 115.5T747 518v957h263V482q0-106-23.5-197t-77-160T765 17 539-22zm17 1576 231 198h179l232-198h-176l-181 158h71l-182-158H556z"/><glyph glyph-name="jcircumflex" unicode="ĵ" horiz-adv-x="531" d="M-29-453q-29 0-55 1.5t-43 4.5v196q16-4 42.5-7t55.5-3q56 0 89 16t49.5 42 22.5 56.5 6 60.5v1148h263V-94q0-66-15.5-129.5t-59-115.5-129-83T-29-453zm-16 1666 230 262h174l231-262H417l-182 213h72l-181-213H-45z"/><glyph glyph-name="uni0136" unicode="Ķ" horiz-adv-x="1272" d="m619 726 7 203L1216 0H925L474 726l122-17-227-304 23 167V0H129v1475h263V694l-50 34 560 747h282zm4-985q-42 0-68 23t-26 62q0 48 35.5 70T642-82q27 0 54-11.5t45-36 18-66.5q0-73-30-123.5t-72.5-82T576-450l-18 45q29 11 60.5 34t53 58 21.5 81q-7-12-27.5-19.5T623-259z"/><glyph glyph-name="uni0137" unicode="ķ" horiz-adv-x="1105" d="M132 0v1563h250V647l-57 28 439 387h327L571 599l59 108L1086 0H808L458 567l64-11-170-152 30 117V0H132zm442-259q-42 0-68 23t-26 62q0 48 35.5 70T593-82q27 0 54-11.5t45-36 18-66.5q0-73-30-123.5t-72.5-82T527-450l-18 45q29 11 60.5 34t53 58 21.5 81q-7-12-27.5-19.5T574-259z"/><glyph glyph-name="kgreenlandic" unicode="ĸ" horiz-adv-x="1004" d="m585 523-23 146L992 0H711L383 516l154-31-175-228 19 156V0H132v1062h249V500l-56 14 381 548h273z"/><glyph glyph-name="Lacute" unicode="Ĺ" horiz-adv-x="1031" d="M129 0v1475h264V79L274 218h678V0H129zm-23 1556 276 198h220l-300-198H106z"/><glyph glyph-name="lacute" unicode="ĺ" horiz-adv-x="543" d="M406 1563V0H147v1563h259zm-286 81 276 198h220l-300-198H120z"/><glyph glyph-name="uni013B" unicode="Ļ" horiz-adv-x="1031" d="M129 0v1475h264V79L274 218h678V0H129zm409-259q-42 0-68 23t-26 62q0 48 35.5 70T557-82q27 0 54-11.5t45-36 18-66.5q0-73-30-123.5t-72.5-82T491-450l-18 45q29 11 60.5 34t53 58 21.5 81q-7-12-27.5-19.5T538-259z"/><glyph glyph-name="uni013C" unicode="ļ" horiz-adv-x="543" d="M406 1563V0H147v1563h259zM252-259q-42 0-68 23t-26 62q0 48 35.5 70T271-82q27 0 54-11.5t45-36 18-66.5q0-73-30-123.5t-72.5-82T205-450l-18 45q29 11 60.5 34t53 58 21.5 81q-7-12-27.5-19.5T252-259z"/><glyph glyph-name="Lcaron" unicode="Ľ" horiz-adv-x="1031" d="M129 0v1475h264V79L274 218h678V0H129zm754 1475q0-83-9.5-167.5t-21.5-149-19-91.5H709q6 28 13.5 91.5t13 147T741 1475h142z"/><glyph glyph-name="lcaron" unicode="ľ" horiz-adv-x="673" d="M406 1563V0H147v1563h259zm267 0q0-83-9.5-167.5t-21.5-149-19-91.5H499q6 28 13.5 91.5t13 147T531 1563h142z"/><glyph glyph-name="Ldot" unicode="Ŀ" horiz-adv-x="1031" d="M129 0v1475h264V79L274 218h678V0H129zm647 662q-62 0-105 43.5T628 811q0 61 43 104.5T776 959q61 0 104.5-43.5T924 811q0-62-43.5-105.5T776 662z"/><glyph glyph-name="ldot" unicode="ŀ" horiz-adv-x="803" d="M391 1563V0H132v1563h259zm251-901q-62 0-105 43.5T494 811q0 61 43 104.5T642 959q61 0 104.5-43.5T790 811q0-62-43.5-105.5T642 662z"/><glyph glyph-name="Lslash" unicode="Ł" horiz-adv-x="1122" d="M796 814 76 385l-90 181 720 429zM220 0v1475h265V79L366 218h678V0H220z"/><glyph glyph-name="lslash" unicode="ł" horiz-adv-x="521" d="m-61 788 546 289 69-139L9 649zm467 775V0H147v1563h259z"/><glyph glyph-name="Nacute" unicode="Ń" horiz-adv-x="1427" d="M385 0H129v1475h413l539-1368-39-11v1379h257V0H880L343 1365l42 10V0zm191 1556 276 198h220l-300-198H576z"/><glyph glyph-name="nacute" unicode="ń" horiz-adv-x="1268" d="M883 0v597q0 72-20.5 129.5t-70 90.5T656 850q-76 0-135-36.5t-92.5-100T395 567l-89 55q0 133 60.5 236.5T529 1021t226 59q128 0 215.5-50t132-142 44.5-216V0H883zM132 0v1062h263V0H132zm373 1213 238 262h211l-268-262H505z"/><glyph glyph-name="uni0145" unicode="Ņ" horiz-adv-x="1427" d="M385 0H129v1475h413l539-1368-39-11v1379h257V0H880L343 1365l42 10V0zm322-259q-42 0-68 23t-26 62q0 48 35.5 70T726-82q27 0 54-11.5t45-36 18-66.5q0-73-30-123.5t-72.5-82T660-450l-18 45q29 11 60.5 34t53 58 21.5 81q-7-12-27.5-19.5T707-259z"/><glyph glyph-name="uni0146" unicode="ņ" horiz-adv-x="1268" d="M883 0v597q0 72-20.5 129.5t-70 90.5T656 850q-76 0-135-36.5t-92.5-100T395 567l-89 55q0 133 60.5 236.5T529 1021t226 59q128 0 215.5-50t132-142 44.5-216V0H883zM132 0v1062h263V0H132zm477-259q-42 0-68 23t-26 62q0 48 35.5 70T628-82q27 0 54-11.5t45-36 18-66.5q0-73-30-123.5t-72.5-82T562-450l-18 45q29 11 60.5 34t53 58 21.5 81q-7-12-27.5-19.5T609-259z"/><glyph glyph-name="Ncaron" unicode="Ň" horiz-adv-x="1427" d="M385 0H129v1475h413l539-1368-39-11v1379h257V0H880L343 1365l42 10V0zm22 1752h174l182-159h-71l181 159h176l-232-198H638z"/><glyph glyph-name="ncaron" unicode="ň" horiz-adv-x="1268" d="M883 0v597q0 72-20.5 129.5t-70 90.5T656 850q-76 0-135-36.5t-92.5-100T395 567l-89 55q0 133 60.5 236.5T529 1021t226 59q128 0 215.5-50t132-142 44.5-216V0H883zM132 0v1062h263V0H132zm205 1475h171l181-213h-72l182 213h173l-231-262H567z"/><glyph glyph-name="Eng" unicode="Ŋ" horiz-adv-x="1427" d="M793-457q-34 0-65.5 4t-42.5 8v191q14-4 47-8.5t63-4.5q60 0 105.5 16t76 45 46 68 15.5 84V0H885L359 1318l26 5V0H129v1475h415l531-1331-33-5v1336h257V-48q0-103-28-180t-88.5-127.5-156.5-76T793-457z"/><glyph glyph-name="eng" unicode="ŋ" horiz-adv-x="1256" d="M631-457v190q59 0 103.5 16t75 45 46 68T871-54v651q0 72-17.5 129.5t-64 90.5T656 850q-76 0-135-36.5t-92.5-100T395 567l-89 55q0 133 60.5 236.5T529 1021t226 59q128 0 212.5-50t126-142 41.5-216V-48q0-103-28-180t-88-127.5-155.5-76T631-457zM132 0v1062h263V0H132z"/><glyph glyph-name="Omacron" unicode="Ō" horiz-adv-x="1455" d="M727-22q-134 0-250 50T273.5 175.5t-136 239T89 739t48.5 324T273 1300.5t203.5 146T727 1496q136 0 252.5-49.5t203.5-146 135.5-237.5 48.5-324-49-324.5-136.5-239T978 28 727-22zm0 217q104 0 188 56.5T1048.5 428t49.5 311q0 192-50 310.5T914 1223t-187 55q-101 0-185.5-55t-135-173.5T356 739t50.5-312 135-176T727 195zM433 1610v111h588v-111H433z"/><glyph glyph-name="omacron" unicode="ō" horiz-adv-x="1308" d="M654-21q-168 0-296 70.5T157.5 245 85 531q0 162 72.5 285.5T358 1010t296 70 296-70 200.5-193.5T1223 531q0-161-72.5-286T950 49.5 654-21zm0 215q91 0 159 42t106 117.5T957 531t-38 176.5T813 823t-159 41q-90 0-158.5-41T389 707.5 351 531t38-177.5T495.5 236 654 194zM361 1297v112h588v-112H361z"/><glyph glyph-name="Obreve" unicode="Ŏ" horiz-adv-x="1455" d="M727-22q-134 0-250 50T273.5 175.5t-136 239T89 739t48.5 324T273 1300.5t203.5 146T727 1496q136 0 252.5-49.5t203.5-146 135.5-237.5 48.5-324-49-324.5-136.5-239T978 28 727-22zm0 217q104 0 188 56.5T1048.5 428t49.5 311q0 192-50 310.5T914 1223t-187 55q-101 0-185.5-55t-135-173.5T356 739t50.5-312 135-176T727 195zM454 1734h156q0-39 31-67t86-28q56 0 86.5 28t30.5 67h157q0-89-78.5-144T727 1535t-195 55-78 144z"/><glyph glyph-name="obreve" unicode="ŏ" horiz-adv-x="1308" d="M654-21q-168 0-296 70.5T157.5 245 85 531q0 162 72.5 285.5T358 1010t296 70 296-70 200.5-193.5T1223 531q0-161-72.5-286T950 49.5 654-21zm0 215q91 0 159 42t106 117.5T957 531t-38 176.5T813 823t-159 41q-90 0-158.5-41T389 707.5 351 531t38-177.5T495.5 236 654 194zM382 1495h156q0-61 31-101.5t86-40.5q56 0 86.5 40.5T772 1495h157q0-116-78.5-180.5T655 1250t-195 64.5-78 180.5z"/><glyph glyph-name="Ohungarumlaut" unicode="Ő" horiz-adv-x="1455" d="M727-22q-134 0-250 50T273.5 175.5t-136 239T89 739t48.5 324T273 1300.5t203.5 146T727 1496q136 0 252.5-49.5t203.5-146 135.5-237.5 48.5-324-49-324.5-136.5-239T978 28 727-22zm0 217q104 0 188 56.5T1048.5 428t49.5 311q0 192-50 310.5T914 1223t-187 55q-101 0-185.5-55t-135-173.5T356 739t50.5-312 135-176T727 195zM483 1556l239 198h179l-261-198H483zm323 0 239 198h178l-261-198H806z"/><glyph glyph-name="ohungarumlaut" unicode="ő" horiz-adv-x="1308" d="M654-21q-168 0-296 70.5T157.5 245 85 531q0 162 72.5 285.5T358 1010t296 70 296-70 200.5-193.5T1223 531q0-161-72.5-286T950 49.5 654-21zm0 215q91 0 159 42t106 117.5T957 531t-38 176.5T813 823t-159 41q-90 0-158.5-41T389 707.5 351 531t38-177.5T495.5 236 654 194zM411 1213l154 262h171l-186-262H411zm329 0 166 262h172l-199-262H740z"/><glyph glyph-name="OE" unicode="Œ" horiz-adv-x="2079" d="M713-22q-179 0-320 88.5T170.5 325 89 739q0 245 81 413.5t222.5 256T713 1496q128 0 225-44.5t146-109.5v133h867v-210h-733l119 131V775l-64 70h591V635h-593l66 72V79l-119 131h733V0h-867v144q-50-70-147-118T713-22zm0 217q104 0 187.5 56.5T1033 428t49 311q0 192-49.5 310.5t-133 173.5-186.5 55q-101 0-182-55t-128-173.5T356 739t47-312 128-176 182-56z"/><glyph glyph-name="oe" unicode="œ" horiz-adv-x="2173" d="M654-21q-168 0-296 70.5T157.5 245 85 531q0 162 72.5 285.5T358 1010t296 70q108 0 200-30t164-85.5T1137 832h-93q48 77 120.5 132.5t165 85.5 199.5 30q172 0 297.5-70T2020 815.5t68-289.5q0-21-1-45t-3-35h-981l112 93q0-15 .5-29.5t1.5-28.5q8-95 45.5-161T1368 220t168-34q72 0 123 13t83.5 35.5 49 48.5 19.5 52h262q-6-67-44.5-130.5T1921 89.5t-167.5-82T1529-23q-109 0-202 30t-164.5 86.5T1044 227h92q-47-76-119.5-132t-164-86T654-21zm0 215q91 0 159.5 42T920 353.5 958 531t-38 176.5T813.5 823 654 864q-90 0-159-41T388 707.5 350 531t38-177.5T495 236t159-42zm572 439h589v11q-4 61-37 113.5t-94.5 84.5-151.5 32q-86 0-149.5-29.5t-103-83.5-53.5-128z"/><glyph glyph-name="Racute" unicode="Ŕ" horiz-adv-x="1246" d="M129 0v1475h568q223 0 335-102t112-300q0-116-44-197T993 751t-120-50q58-4 112-30t88.5-81.5T1108 440V141q0-47 8-86.5T1136 0H871q-10 18-17.5 55.5T846 141v268q0 91-51 138t-154 47H316l70 89V0H129zm257 705-70 99h327q65 0 117 30.5t82.5 85.5 30.5 129q0 108-62 162t-176 54H309l77 93V705zm44 851 276 198h220l-300-198H430z"/><glyph glyph-name="racute" unicode="ŕ" horiz-adv-x="881" d="M132 0v1062h263V709l-61 34q10 69 37 130.5t72 108 109 72.5 146 26q65 0 102.5-9.5T847 1055l-48-241q-10 7-40.5 17.5T677 842q-81 0-135.5-27.5t-86.5-74-46-102T395 528V0H132zm247 1213 238 262h211l-268-262H379z"/><glyph glyph-name="uni0156" unicode="Ŗ" horiz-adv-x="1246" d="M129 0v1475h568q223 0 335-102t112-300q0-116-44-197T993 751t-120-50q58-4 112-30t88.5-81.5T1108 440V141q0-47 8-86.5T1136 0H871q-10 18-17.5 55.5T846 141v268q0 91-51 138t-154 47H316l70 89V0H129zm257 705-70 99h327q65 0 117 30.5t82.5 85.5 30.5 129q0 108-62 162t-176 54H309l77 93V705zm230-964q-42 0-68 23t-26 62q0 48 35.5 70T635-82q27 0 54-11.5t45-36 18-66.5q0-73-30-123.5t-72.5-82T569-450l-18 45q29 11 60.5 34t53 58 21.5 81q-7-12-27.5-19.5T616-259z"/><glyph glyph-name="uni0157" unicode="ŗ" horiz-adv-x="881" d="M132 0v1062h263V709l-61 34q10 69 37 130.5t72 108 109 72.5 146 26q65 0 102.5-9.5T847 1055l-48-241q-10 7-40.5 17.5T677 842q-81 0-135.5-27.5t-86.5-74-46-102T395 528V0H132zm111-259q-42 0-68 23t-26 62q0 48 35.5 70T262-82q27 0 54-11.5t45-36 18-66.5q0-73-30-123.5t-72.5-82T196-450l-18 45q29 11 60.5 34t53 58 21.5 81q-7-12-27.5-19.5T243-259z"/><glyph glyph-name="Rcaron" unicode="Ř" horiz-adv-x="1246" d="M129 0v1475h568q223 0 335-102t112-300q0-116-44-197T993 751t-120-50q58-4 112-30t88.5-81.5T1108 440V141q0-47 8-86.5T1136 0H871q-10 18-17.5 55.5T846 141v268q0 91-51 138t-154 47H316l70 89V0H129zm257 705-70 99h327q65 0 117 30.5t82.5 85.5 30.5 129q0 108-62 162t-176 54H309l77 93V705zM262 1752h174l182-159h-71l181 159h176l-232-198H493z"/><glyph glyph-name="rcaron" unicode="ř" horiz-adv-x="881" d="M132 0v1062h263V709l-61 34q10 69 37 130.5t72 108 109 72.5 146 26q65 0 102.5-9.5T847 1055l-48-241q-10 7-40.5 17.5T677 842q-81 0-135.5-27.5t-86.5-74-46-102T395 528V0H132zm79 1475h171l181-213h-72l182 213h173l-231-262H441z"/><glyph glyph-name="Sacute" unicode="Ś" horiz-adv-x="1222" d="M610-22q-157 0-274 50T154 178.5 89 428v61h263v-56q0-120 65.5-179.5T611 194q129 0 197.5 43T877 375q0 69-46.5 117.5T703 578t-184 69q-116 36-211 93T156 884t-57 214 65.5 216 180 135.5T605 1496q153 0 269.5-48t182.5-143 66-237v-65H859v53q0 114-62 168.5T609 1279q-123 0-189-43t-66-137q0-70 45-117t123.5-81.5T701 831q133-44 230-99.5t150-138 53-209.5q0-130-65.5-220.5t-183-138T610-22zM458 1556l276 198h220l-300-198H458z"/><glyph glyph-name="sacute" unicode="ś" horiz-adv-x="1127" d="M561-22q-95 0-180.5 21t-152 63-105 104.5T85 311v23h262v-18q0-65 59.5-97.5T569 186q56 0 105.5 12t80 37 30.5 64q0 63-64.5 90T518 438q-76 13-150 35t-134.5 59-97 92T100 758q0 105 62.5 176.5t168 108.5 232.5 37q122 0 227-40t169.5-115 64.5-181v-16H764v13q0 46-29 75t-75 43-97 14q-45 0-93-9.5t-80-33-32-65.5q0-40 33-65t92-41.5T619 629q73-12 147.5-33T903 540t100.5-91.5T1042 309q0-88-40-150T893.5 56.5 739-3 561-22zM414 1213l238 262h211l-268-262H414z"/><glyph glyph-name="Scircumflex" unicode="Ŝ" horiz-adv-x="1222" d="M610-22q-157 0-274 50T154 178.5 89 428v61h263v-56q0-120 65.5-179.5T611 194q129 0 197.5 43T877 375q0 69-46.5 117.5T703 578t-184 69q-116 36-211 93T156 884t-57 214 65.5 216 180 135.5T605 1496q153 0 269.5-48t182.5-143 66-237v-65H859v53q0 114-62 168.5T609 1279q-123 0-189-43t-66-137q0-70 45-117t123.5-81.5T701 831q133-44 230-99.5t150-138 53-209.5q0-130-65.5-220.5t-183-138T610-22zM290 1554l231 198h179l232-198H756l-181 158h71l-182-158H290z"/><glyph glyph-name="scircumflex" unicode="ŝ" horiz-adv-x="1127" d="M561-22q-95 0-180.5 21t-152 63-105 104.5T85 311v23h262v-18q0-65 59.5-97.5T569 186q56 0 105.5 12t80 37 30.5 64q0 63-64.5 90T518 438q-76 13-150 35t-134.5 59-97 92T100 758q0 105 62.5 176.5t168 108.5 232.5 37q122 0 227-40t169.5-115 64.5-181v-16H764v13q0 46-29 75t-75 43-97 14q-45 0-93-9.5t-80-33-32-65.5q0-40 33-65t92-41.5T619 629q73-12 147.5-33T903 540t100.5-91.5T1042 309q0-88-40-150T893.5 56.5 739-3 561-22zM247 1213l230 262h174l231-262H709l-182 213h72l-181-213H247z"/><glyph glyph-name="Scedilla" unicode="Ş" horiz-adv-x="1222" d="M710-82q35 0 69-15.5t56.5-48.5 22.5-86q0-64-38-105.5T722-399t-127-20q-60 0-118.5 15T395-373l53 99q17-11 61-27.5t96-16.5q57 0 96 23.5t39 67.5q0 37-20.5 53T669-158q-24 0-49.5-9T581-193l-102 29L550 0h115l-60-140-13 4q10 22 42.5 38T710-82zM610-22q-157 0-274 50T154 178.5 89 428v61h263v-56q0-120 65.5-179.5T611 194q129 0 197.5 43T877 375q0 69-46.5 117.5T703 578t-184 69q-116 36-211 93T156 884t-57 214 65.5 216 180 135.5T605 1496q153 0 269.5-48t182.5-143 66-237v-65H859v53q0 114-62 168.5T609 1279q-123 0-189-43t-66-137q0-70 45-117t123.5-81.5T701 831q133-44 230-99.5t150-138 53-209.5q0-130-65.5-220.5t-183-138T610-22z"/><glyph glyph-name="scedilla" unicode="ş" horiz-adv-x="1121" d="M667-98q34 0 68-15t56.5-48 22.5-86q0-64-37.5-105.5T679-414t-127-20q-61 0-119.5 14.5T351-389l53 99q18-10 62-26.5t95-16.5q57 0 96 23.5t39 67.5q0 36-20.5 52.5T625-173q-24 0-49-9.5T538-209l-105 30 71 164h120l-60-140-21 3q9 23 44.5 38.5T667-98zM561-22q-95 0-180.5 21t-152 63-105 104.5T85 311v23h262v-18q0-65 59.5-97.5T569 186q56 0 105.5 12t80 37 30.5 64q0 63-64.5 90T518 438q-76 13-150 35t-134.5 59-97 92T100 758q0 105 62.5 176.5t168 108.5 232.5 37q122 0 227-40t169.5-115 64.5-181v-16H764v13q0 46-29 75t-75 43-97 14q-45 0-93-9.5t-80-33-32-65.5q0-40 33-65t92-41.5T619 629q73-12 147.5-33T903 540t100.5-91.5T1042 309q0-88-40-150T893.5 56.5 739-3 561-22z"/><glyph glyph-name="Scaron" unicode="Š" horiz-adv-x="1222" d="M610-22q-157 0-274 50T154 178.5 89 428v61h263v-56q0-120 65.5-179.5T611 194q129 0 197.5 43T877 375q0 69-46.5 117.5T703 578t-184 69q-116 36-211 93T156 884t-57 214 65.5 216 180 135.5T605 1496q153 0 269.5-48t182.5-143 66-237v-65H859v53q0 114-62 168.5T609 1279q-123 0-189-43t-66-137q0-70 45-117t123.5-81.5T701 831q133-44 230-99.5t150-138 53-209.5q0-130-65.5-220.5t-183-138T610-22zM290 1752h174l182-159h-71l181 159h176l-232-198H521z"/><glyph glyph-name="scaron" unicode="š" horiz-adv-x="1127" d="M561-22q-95 0-180.5 21t-152 63-105 104.5T85 311v23h262v-18q0-65 59.5-97.5T569 186q56 0 105.5 12t80 37 30.5 64q0 63-64.5 90T518 438q-76 13-150 35t-134.5 59-97 92T100 758q0 105 62.5 176.5t168 108.5 232.5 37q122 0 227-40t169.5-115 64.5-181v-16H764v13q0 46-29 75t-75 43-97 14q-45 0-93-9.5t-80-33-32-65.5q0-40 33-65t92-41.5T619 629q73-12 147.5-33T903 540t100.5-91.5T1042 309q0-88-40-150T893.5 56.5 739-3 561-22zM247 1475h171l181-213h-72l182 213h173l-231-262H477z"/><glyph glyph-name="uni0162" unicode="Ţ" horiz-adv-x="1145" d="M1074 1265H607l97 131V0H440v1396l102-131H71v210h1003v-210zM672-82q35 0 69-15.5t56.5-48.5 22.5-86q0-64-38-105.5T684-399t-127-20q-60 0-118.5 15T357-373l53 99q17-11 61-27.5t96-16.5q57 0 96 23.5t39 67.5q0 37-20.5 53T631-158q-24 0-49.5-9T543-193l-102 29L512 0h115l-60-140-13 4q10 22 42.5 38T672-82z"/><glyph glyph-name="uni0163" unicode="ţ" horiz-adv-x="933" d="M620-20q-57 0-116 11T396 32t-79 88-30 153v579H36v210h102q52 0 82 4.5t44 21.5 18.5 53.5T287 1243v169h264v-350h316V852H551V353q0-74 18-119t85-45q32 0 60.5 6t42.5 12V1q-19-7-55-14t-82-7zm14-62q35 0 69-15.5t56.5-48.5 22.5-86q0-64-38-105.5T646-399t-127-20q-60 0-118.5 15T319-373l53 99q17-11 61-27.5t96-16.5q57 0 96 23.5t39 67.5q0 37-20.5 53T593-158q-24 0-49.5-9T505-193l-104 29L472 0h120l-61-140-21 4q10 22 45.5 38T634-82z"/><glyph glyph-name="Tcaron" unicode="Ť" horiz-adv-x="1145" d="M1074 1265H607l97 131V0H440v1396l102-131H71v210h1003v-210zm-822 487h174l182-159h-71l181 159h176l-232-198H483z"/><glyph glyph-name="tcaron" unicode="ť" horiz-adv-x="912" d="M620-20q-57 0-116 11T396 32t-79 88-30 153v579H36v210h102q52 0 82 4.5t44 21.5 18.5 53.5T287 1243v169h264v-350h316V852H551V353q0-74 18-119t85-45q32 0 60.5 6t42.5 12V1q-19-7-55-14t-82-7zm252 1583q0-83-9.5-167.5t-21.5-149-19-91.5H698q6 28 13.5 91.5t13 147T730 1563h142z"/><glyph glyph-name="Tbar" unicode="Ŧ" horiz-adv-x="1145" d="M214 677v122h717V677H214zm860 588H607l97 131V0H440v1396l102-131H71v210h1003v-210z"/><glyph glyph-name="tbar" unicode="ŧ" horiz-adv-x="933" d="M88 526v153h649V526H88zM620-20q-57 0-116 11T396 32t-79 88-30 153v579H36v210h102q52 0 82 4.5t44 21.5 18.5 53.5T287 1243v169h264v-350h316V852H551V353q0-74 18-119t85-45q32 0 60.5 6t42.5 12V1q-19-7-55-14t-82-7z"/><glyph glyph-name="Utilde" unicode="Ũ" horiz-adv-x="1332" d="M1204 536q0-282-143.5-420T665-22q-250 0-393 138T129 536v939h264V534q0-178 66.5-259T665 194q141 0 208 81t67 259v941h264V536zM990 1749q-1-44-20.5-91.5T909 1577t-106-33q-51 0-86 20t-58 40q-22 19-44.5 33t-51.5 14q-37 0-52.5-24.5T494 1567H355q2 46 23.5 94t64.5 80.5 109 32.5q48 0 82.5-19.5T691 1716q23-19 47-34t50-15q35 0 49 23.5t15 58.5h138z"/><glyph glyph-name="utilde" unicode="ũ" horiz-adv-x="1245" d="M514-20q-113 0-187.5 38t-117 100-60 137T132 405v657h264V473q0-71 17-131.5t62.5-97.5T604 207q79 0 136 46.5T828.5 371 860 515l90-60q0-97-30-182.5T833 121 695.5 17.5 514-20zM860 0v1062h263V0H860zm70 1454q-1-44-20.5-91t-60.5-80-106-33q-51 0-86 20t-58 39q-22 19-44.5 33t-51.5 14q-37 0-52.5-24.5T434 1273H295q2 45 23.5 93t64.5 81 109 33q48 0 82.5-20t56.5-39q23-19 47-34t50-15q35 0 49 24t15 58h138z"/><glyph glyph-name="Umacron" unicode="Ū" horiz-adv-x="1332" d="M1204 536q0-282-143.5-420T665-22q-250 0-393 138T129 536v939h264V534q0-178 66.5-259T665 194q141 0 208 81t67 259v941h264V536zM371 1610v111h588v-111H371z"/><glyph glyph-name="umacron" unicode="ū" horiz-adv-x="1245" d="M514-20q-113 0-187.5 38t-117 100-60 137T132 405v657h264V473q0-71 17-131.5t62.5-97.5T604 207q79 0 136 46.5T828.5 371 860 515l90-60q0-97-30-182.5T833 121 695.5 17.5 514-20zM860 0v1062h263V0H860zM320 1297v112h588v-112H320z"/><glyph glyph-name="Ubreve" unicode="Ŭ" horiz-adv-x="1332" d="M1204 536q0-282-143.5-420T665-22q-250 0-393 138T129 536v939h264V534q0-178 66.5-259T665 194q141 0 208 81t67 259v941h264V536zM393 1734h156q0-39 31-67t86-28q56 0 86.5 28t30.5 67h157q0-89-78.5-144T666 1535t-195 55-78 144z"/><glyph glyph-name="ubreve" unicode="ŭ" horiz-adv-x="1245" d="M514-20q-113 0-187.5 38t-117 100-60 137T132 405v657h264V473q0-71 17-131.5t62.5-97.5T604 207q79 0 136 46.5T828.5 371 860 515l90-60q0-97-30-182.5T833 121 695.5 17.5 514-20zM860 0v1062h263V0H860zM340 1495h156q0-61 31-101.5t86-40.5q56 0 86.5 40.5T730 1495h157q0-116-78.5-180.5T613 1250t-195 64.5-78 180.5z"/><glyph glyph-name="Uring" unicode="Ů" horiz-adv-x="1332" d="M1204 536q0-282-143.5-420T665-22q-250 0-393 138T129 536v939h264V534q0-178 66.5-259T665 194q141 0 208 81t67 259v941h264V536zM666 1635q42 0 71.5 29t29.5 72q0 42-29.5 71t-71.5 29-71.5-29-29.5-71q0-43 29.5-72t71.5-29zm0-116q-60 0-109 29t-78.5 78.5T449 1736q0 59 29.5 108.5t78.5 79 109 29.5 109-29.5 78.5-79T883 1736q0-60-29.5-109.5T775 1548t-109-29z"/><glyph glyph-name="uring" unicode="ů" horiz-adv-x="1245" d="M514-20q-113 0-187.5 38t-117 100-60 137T132 405v657h264V473q0-71 17-131.5t62.5-97.5T604 207q79 0 136 46.5T828.5 371 860 515l90-60q0-97-30-182.5T833 121 695.5 17.5 514-20zM860 0v1062h263V0H860zM614 1261q42 0 71.5 29.5T715 1362t-29.5 71.5T614 1463t-71.5-29-29.5-72q0-42 29.5-71.5T614 1261zm0-116q-60 0-109 29.5t-78.5 79T397 1362q0 60 29.5 109t78.5 78.5 109 29.5 109-29.5 78.5-78.5 29.5-109q0-59-29.5-108.5t-78.5-79-109-29.5z"/><glyph glyph-name="Uhungarumlaut" unicode="Ű" horiz-adv-x="1332" d="M1204 536q0-282-143.5-420T665-22q-250 0-393 138T129 536v939h264V534q0-178 66.5-259T665 194q141 0 208 81t67 259v941h264V536zM421 1556l239 198h179l-261-198H421zm323 0 239 198h178l-261-198H744z"/><glyph glyph-name="uhungarumlaut" unicode="ű" horiz-adv-x="1245" d="M514-20q-113 0-187.5 38t-117 100-60 137T132 405v657h264V473q0-71 17-131.5t62.5-97.5T604 207q79 0 136 46.5T828.5 371 860 515l90-60q0-97-30-182.5T833 121 695.5 17.5 514-20zM860 0v1062h263V0H860zM370 1213l154 262h171l-186-262H370zm329 0 166 262h172l-199-262H699z"/><glyph glyph-name="Uogonek" unicode="Ų" horiz-adv-x="1332" d="M917-285v-129q-20-2-44.5-4t-48.5-2q-63 0-117 15.5t-87 51-33 93.5 33.5 112.5 80 100T783 24h134q-32-27-73-71.5t-72-91-31-81.5q0-40 28-56t70-16q19 0 40 2t38 5zm287 821q0-282-143.5-420T665-22q-250 0-393 138T129 536v939h264V534q0-178 66.5-259T665 194q141 0 208 81t67 259v941h264V536z"/><glyph glyph-name="uogonek" unicode="ų" horiz-adv-x="1245" d="M514-20q-113 0-187.5 38t-117 100-60 137T132 405v657h264V473q0-71 17-131.5t62.5-97.5T604 207q79 0 136 46.5T828.5 371 860 515l90-60q0-97-30-182.5T833 121 695.5 17.5 514-20zM860 0v1062h263V0H860zm263-309v-129q-20-2-44.5-4t-49.5-2q-62 0-114 16.5t-83 53-31 94.5q0 54 31.5 108T908-72t81 72h134q-32-27-73.5-71.5t-72.5-91-31-81.5q0-40 28.5-56t70.5-16q19 0 40 2t38 5z"/><glyph glyph-name="Wcircumflex" unicode="Ŵ" horiz-adv-x="1834" d="M297 0 75 1475h272L517 69l-38 2 272 1404h332L1354 71l-38-2 170 1406h273L1535 0h-404L903 1284h28L703 0H297zm303 1554 231 198h179l232-198h-176l-181 158h71l-182-158H600z"/><glyph glyph-name="wcircumflex" unicode="ŵ" horiz-adv-x="1605" d="M988 0 741 1062h201l241-979h-43l154 979h273L1349 0H988zM256 0 37 1062h273L465 83h-43l239 979h201L619 0H256zm232 1213 230 262h174l231-262H950l-182 213h72l-181-213H488z"/><glyph glyph-name="Ycircumflex" unicode="Ŷ" horiz-adv-x="1233" d="M1170 1475 747 510V0H483v510L63 1475h279l327-826H563l326 826h281zm-874 79 231 198h179l232-198H762l-181 158h71l-182-158H296z"/><glyph glyph-name="ycircumflex" unicode="ŷ" horiz-adv-x="1096" d="M201-456q-47 0-84 4.5T71-443v205q13-6 44.5-9.5T181-251q55 0 95.5 22t69.5 60.5T392-79l23 67L49 1062h275l251-886h-32l245 886h270L686-65q-39-117-94.5-205T444-407t-243-49zm32 1669 230 262h174l231-262H695l-182 213h72l-181-213H233z"/><glyph glyph-name="Ydieresis" unicode="Ÿ" horiz-adv-x="1233" d="M1170 1475 747 510V0H483v510L63 1475h279l327-826H563l326 826h281zm-779 74q-58 0-101.5 31.5T246 1669t43.5 88 101.5 31q59 0 102.5-31t43.5-88q0-58-43.5-89T391 1549zm452 0q-59 0-102 31.5t-43 88.5 43 88 102 31q58 0 101.5-31t43.5-88q0-58-43.5-89T843 1549z"/><glyph glyph-name="Zacute" unicode="Ź" horiz-adv-x="1147" d="M389 210h655V0H93v183l667 1083 2-1H139v210h914v-180L389 213v-3zm35 1346 276 198h220l-300-198H424z"/><glyph glyph-name="zacute" unicode="ź" horiz-adv-x="1009" d="M349 214h595V0H65v203l583 654 5-9H87v214h846V859L354 207zm11 999 238 262h211l-268-262H360z"/><glyph glyph-name="Zdotaccent" unicode="Ż" horiz-adv-x="1147" d="M389 210h655V0H93v183l667 1083 2-1H139v210h914v-180L389 213v-3zm190 1355q-63 0-110.5 34.5T421 1695q0 62 47.5 96t110.5 34q64 0 111-34t47-96-47-96-111-34z"/><glyph glyph-name="zdotaccent" unicode="ż" horiz-adv-x="1009" d="M349 214h595V0H65v203l583 654 5-9H87v214h846V859L354 207zm160 1044q-63 0-110.5 34t-47.5 95q0 62 47.5 96t110.5 34q64 0 111-34t47-96-47-95.5-111-33.5z"/><glyph glyph-name="Zcaron" unicode="Ž" horiz-adv-x="1147" d="M389 210h655V0H93v183l667 1083 2-1H139v210h914v-180L389 213v-3zM256 1752h174l182-159h-71l181 159h176l-232-198H487z"/><glyph glyph-name="zcaron" unicode="ž" horiz-adv-x="1009" d="M349 214h595V0H65v203l583 654 5-9H87v214h846V859L354 207zM192 1475h171l181-213h-72l182 213h173l-231-262H422z"/><glyph glyph-name="uni018F" unicode="Ə" horiz-adv-x="1300" d="M638-11q-126 0-227.5 47T237 175.5t-110 227T89 713v68l1 37h880V615H338l12 70v-36q0-107 18.5-191t55-142 90-88T638 198q76 0 134 35t96.5 103.5T926 506t19 233q0 146-20.5 248t-59 165.5-94 92.5-125.5 29q-72 0-126-24t-90-64-55-86.5-21-90.5H100q3 91 42.5 175.5t111 152 171 107.5 221.5 40q121 0 224-44t180-135 119.5-232 42.5-334q0-177-41.5-316T1053 187.5 872 40 638-11z"/><glyph glyph-name="florin" unicode="ƒ" horiz-adv-x="1041" d="M18-417q-55 0-94.5 9.5T-127-394l53 185q11-4 37.5-9.5T19-224q73 0 111 31.5t56 85.5 29 120q14 72 29.5 163t33 192.5 35 207 35 208T381 978t29 167q19 108 61.5 187.5T575 1465t136.5 79.5T871 1571q55 0 94.5-8.5t50.5-13.5l-53-185q-12 5-38 10t-55 5q-73 0-111-31.5t-55.5-85.5-29.5-120q-13-75-29-167t-33.5-194.5T576 572t-35.5-207.5-33.5-192T479 10q-20-108-62.5-188t-103-133-136-79.5T18-417zm90 1287 35 192h763l-35-192H108z"/><glyph glyph-name="uni019D" unicode="Ɲ" horiz-adv-x="1427" d="M-73-465v189q55 2 93.5 20T83-207t35 72 11 89v1521h421l519-1337-27-5v1342h257V0H873L359 1324l26 5V-46q0-73-13.5-146T313-326t-137-98.5T-73-465z"/><glyph glyph-name="Ohorn" unicode="Ơ" horiz-adv-x="1463" d="M1090 1372q83 0 123 65t40 193h165q0-199-88-293.5t-240-94.5v130zM727-22q-134 0-250 50T273.5 175.5t-136 239T89 739t48.5 324T273 1300.5t203.5 146T727 1496q136 0 252.5-49.5t203.5-146 135.5-237.5 48.5-324-49-324.5-136.5-239T978 28 727-22zm0 217q104 0 188 56.5T1048.5 428t49.5 311q0 192-50 310.5T914 1223t-187 55q-101 0-185.5-55t-135-173.5T356 739t50.5-312 135-176T727 195z"/><glyph glyph-name="ohorn" unicode="ơ" horiz-adv-x="1306" d="M942 988q68 0 103.5 24t48.5 83.5 13 163.5h146q0-149-34.5-235.5T1115 901t-173-36v123zM651-21q-168 0-296 70.5T154.5 245 82 531q0 162 72.5 285.5T355 1010t296 70 296-70 200.5-193.5T1220 531q0-161-72.5-286T947 49.5 651-21zm0 215q91 0 159.5 42T917 353.5 955 531t-38 176.5T810.5 823 651 864q-90 0-158.5-41t-107-115.5T347 531t38.5-177.5 107-117.5T651 194z"/><glyph glyph-name="Uhorn" unicode="Ư" horiz-adv-x="1415" d="M1095 1475q83 0 123 65t40 193h165q0-199-88-293t-240-94v129zm109-939q0-282-143.5-420T665-22q-250 0-393 138T129 536v939h264V534q0-178 66.5-259T665 194q141 0 208 81t67 259v941h264V536z"/><glyph glyph-name="uhorn" unicode="ư" horiz-adv-x="1286" d="M961 1062q68 0 103.5 24.5t48.5 83.5 13 164h146q0-150-35-236t-104-122.5T961 939v123zM494-20q-113 0-185.5 38t-113 100-56 137T124 405v657h264V473q0-71 14-131.5t56.5-97.5T584 207q79 0 136 46.5T808.5 371 840 515l90-60q0-97-30-182.5T813 121 675.5 17.5 494-20zM840 0v1062h263V0H840z"/><glyph glyph-name="uni01B7" unicode="Ʒ" horiz-adv-x="1213" d="M599-22q-140 0-234 37.5T215 120t-81 155-25 190v4h264v-4q0-158 61-217.5T602 188q95 0 152.5 55.5T812 432q0 86-29.5 134.5T686 635t-180 20H406l363 610H153v210h893v-194L761 825q107 0 176.5-47.5t104.5-132 35-195.5q0-137-50.5-244T870 38.5 599-22z"/><glyph glyph-name="uni01C4" unicode="Ǆ" horiz-adv-x="2359" d="M129 0v1475h441q147 0 267-52.5t206-149.5 133-232.5 47-301.5-47-301.5T1043 204 837 53 570 0H129zm264 79L274 210h262q120 0 214.5 64.5t149.5 183T955 739q0 164-55 282t-149.5 181-214.5 63H274l119 131V79zm1209 131h655V0h-951v183l667 1083 2-1h-623v210h914v-180L1602 213v-3zm-134 1542h174l182-159h-71l181 159h176l-232-198h-179z"/><glyph glyph-name="uni01C5" unicode="ǅ" horiz-adv-x="2320" d="M129 0v1475h441q147 0 267-52.5t206-149.5 133-232.5 47-301.5-47-301.5T1043 204 837 53 570 0H129zm264 79L274 210h262q120 0 214.5 64.5t149.5 183T955 739q0 164-55 282t-149.5 181-214.5 63H274l119 131V79zm1267 135h595V0h-879v203l583 654 5-9h-566v214h846V859l-579-652zm-157 1261h171l181-213h-72l182 213h173l-231-262h-174z"/><glyph glyph-name="uni01C6" unicode="ǆ" horiz-adv-x="2307" d="M573-22q-131 0-242.5 63.5T152 229 85 534q0 176 68.5 298t180 185 239.5 63q125 0 231-61.5T974 848t64-250v-16l-130-3v13q0 79-39.5 138t-102 92.5T634 856q-115 0-196-77.5T357 534q0-166 81-245t196-79q73 0 135 35t100.5 96.5T908 483l130-6q0-140-62.5-253.5T808 44 573-22zM908 0v1563h264V0H908zm739 214h595V0h-879v203l583 654 5-9h-566v214h846V859l-579-652zm-157 1261h171l181-213h-72l182 213h173l-231-262h-174z"/><glyph glyph-name="uni01C7" unicode="Ǉ" horiz-adv-x="2139" d="M129 0v1475h264V79L274 218h678V0H129zm1411-22q-171 0-275.5 62.5t-151.5 174-47 260.5v64h261v-40q0-83 19.5-152t65.5-111 128-42q81 0 126 42t63.5 115.5T1748 518v957h263V482q0-106-23.5-197t-77-160T1766 17t-226-39z"/><glyph glyph-name="uni01C8" unicode="ǈ" horiz-adv-x="1561" d="M129 0v1475h264V79L274 218h678V0H129zm873-453q-29 0-55 1.5t-43 4.5v196q16-4 42.5-7t55.5-3q56 0 89 16t49.5 42 22.5 56.5 6 60.5v1148h263V-94q0-66-15.5-129.5t-59-115.5-129-83-226.5-31zm302 1711q-64 0-111.5 34.5T1145 1389q0 61 47.5 95t111.5 34 111-34 47-95q0-62-47-96.5t-111-34.5z"/><glyph glyph-name="uni01C9" unicode="ǉ" horiz-adv-x="1131" d="M444-19q-51 0-106 9T236.5 28 161 116t-29 158v1289h263V324q0-55 11.5-84t32-40 48.5-11q27 0 51.5 5t41.5 11V0q-23-7-56.5-13T444-19zm127-434q-29 0-55 1.5t-43 4.5v196q16-4 42.5-7t55.5-3q56 0 89 16t49.5 42 22.5 56.5 6 60.5v1148h263V-94q0-66-15.5-129.5t-59-115.5-129-83T571-453zm302 1711q-64 0-111.5 34.5T714 1389q0 61 47.5 95t111.5 34 111-34 47-95q0-62-47-96.5T873 1258z"/><glyph glyph-name="uni01CA" unicode="Ǌ" horiz-adv-x="2566" d="M385 0H129v1475h413l539-1368-39-11v1379h257V0H880L343 1365l42 10V0zm1581-22q-171 0-275.5 62.5t-151.5 174-47 260.5v64h261v-40q0-83 19.5-152t65.5-111 128-42q81 0 126 42t63.5 115.5T2174 518v957h263V482q0-106-23.5-197t-77-160T2192 17t-226-39z"/><glyph glyph-name="uni01CB" unicode="ǋ" horiz-adv-x="1917" d="M385 0H129v1475h413l539-1368-39-11v1379h257V0H880L343 1365l42 10V0zm972-453q-29 0-55 1.5t-43 4.5v196q16-4 42.5-7t55.5-3q56 0 89 16t49.5 42 22.5 56.5 6 60.5v1148h263V-94q0-66-15.5-129.5t-59-115.5-129-83-226.5-31zm302 1711q-64 0-111.5 34.5T1500 1389q0 61 47.5 95t111.5 34 111-34 47-95q0-62-47-96.5t-111-34.5z"/><glyph glyph-name="uni01CC" unicode="ǌ" horiz-adv-x="1799" d="M883 0v597q0 72-20.5 129.5t-70 90.5T656 850q-76 0-135-36.5t-92.5-100T395 567l-89 55q0 133 60.5 236.5T529 1021t226 59q128 0 215.5-50t132-142 44.5-216V0H883zM132 0v1062h263V0H132zm1107-453q-29 0-55 1.5t-43 4.5v196q16-4 42.5-7t55.5-3q56 0 89 16t49.5 42 22.5 56.5 6 60.5v1148h263V-94q0-66-15.5-129.5t-59-115.5-129-83-226.5-31zm302 1711q-64 0-111.5 34.5T1382 1389q0 61 47.5 95t111.5 34 111-34 47-95q0-62-47-96.5t-111-34.5z"/><glyph glyph-name="uni01CD" unicode="Ǎ" horiz-adv-x="1301" d="m63 0 381 1477h416L1238 0H967L651 1314h2L334 0H63zm246 359v211h686V359H309zm22 1393h174l182-159h-71l181 159h176l-232-198H562z"/><glyph glyph-name="uni01CE" unicode="ǎ" horiz-adv-x="1243" d="M496-22q-119 0-209 37.5T146 124 95 295q0 109 59.5 179.5t160.5 109T539 633q182 18 254.5 34.5T866 721v2q0 70-63 108t-178 38q-121 0-185.5-42.5T375 692H115q0 125 66.5 211.5T364 1035t263 45q137 0 251-41t183-124 69-207V224q0-38 2.5-74.5T1143 84q10-32 24-54t22-30H929q-7 7-19.5 27.5T887 75q-10 30-15 64.5t-5 76.5l52-36q-30-61-91.5-106.5T681 3 496-22zm64 207q82 0 152 28t113 86.5T868 450v142l64-72q-64-24-154-39.5T596 456q-118-11-177.5-41T359 317q0-66 50-99t151-33zM324 1475h171l181-213h-72l182 213h173l-231-262H554z"/><glyph glyph-name="uni01CF" unicode="Ǐ" horiz-adv-x="522" d="M131 0v1475h260V0H131zM-59 1752h174l182-159h-71l181 159h176l-232-198H172z"/><glyph glyph-name="uni01D0" unicode="ǐ" horiz-adv-x="514" d="M127 0v1062h260V0H127zM-59 1475h171l181-213h-72l182 213h173l-231-262H171z"/><glyph glyph-name="uni01D1" unicode="Ǒ" horiz-adv-x="1455" d="M727-22q-134 0-250 50T273.5 175.5t-136 239T89 739t48.5 324T273 1300.5t203.5 146T727 1496q136 0 252.5-49.5t203.5-146 135.5-237.5 48.5-324-49-324.5-136.5-239T978 28 727-22zm0 217q104 0 188 56.5T1048.5 428t49.5 311q0 192-50 310.5T914 1223t-187 55q-101 0-185.5-55t-135-173.5T356 739t50.5-312 135-176T727 195zM407 1752h174l182-159h-71l181 159h176l-232-198H638z"/><glyph glyph-name="uni01D2" unicode="ǒ" horiz-adv-x="1308" d="M654-21q-168 0-296 70.5T157.5 245 85 531q0 162 72.5 285.5T358 1010t296 70 296-70 200.5-193.5T1223 531q0-161-72.5-286T950 49.5 654-21zm0 215q91 0 159 42t106 117.5T957 531t-38 176.5T813 823t-159 41q-90 0-158.5-41T389 707.5 351 531t38-177.5T495.5 236 654 194zM337 1475h171l181-213h-72l182 213h173l-231-262H567z"/><glyph glyph-name="uni01D3" unicode="Ǔ" horiz-adv-x="1332" d="M1204 536q0-282-143.5-420T665-22q-250 0-393 138T129 536v939h264V534q0-178 66.5-259T665 194q141 0 208 81t67 259v941h264V536zM349 1888h171l181-213h-72l182 213h173l-231-262H579z"/><glyph glyph-name="uni01D4" unicode="ǔ" horiz-adv-x="1245" d="M514-20q-113 0-187.5 38t-117 100-60 137T132 405v657h264V473q0-71 17-131.5t62.5-97.5T604 207q79 0 136 46.5T828.5 371 860 515l90-60q0-97-30-182.5T833 121 695.5 17.5 514-20zM860 0v1062h263V0H860zM296 1475h171l181-213h-72l182 213h173l-231-262H526z"/><glyph glyph-name="uni01D5" unicode="Ǖ" horiz-adv-x="1332" d="M1204 536q0-282-143.5-420T665-22q-250 0-393 138T129 536v939h264V534q0-178 66.5-259T665 194q141 0 208 81t67 259v941h264V536zM440 1549q-58 0-101.5 31.5T295 1669t43.5 88 101.5 31q59 0 102.5-31t43.5-88q0-58-43.5-89T440 1549zm452 0q-59 0-102 31.5t-43 88.5 43 88 102 31q58 0 101.5-31t43.5-88q0-58-43.5-89T892 1549zm-521 342v111h588v-111H371z"/><glyph glyph-name="uni01D6" unicode="ǖ" horiz-adv-x="1245" d="M514-20q-113 0-187.5 38t-117 100-60 137T132 405v657h264V473q0-71 17-131.5t62.5-97.5T604 207q79 0 136 46.5T828.5 371 860 515l90-60q0-97-30-182.5T833 121 695.5 17.5 514-20zM860 0v1062h263V0H860zM387 1254q-58 0-101.5 31.5T242 1374t43.5 88 101.5 31q59 0 102.5-31t43.5-88q0-58-43.5-89T387 1254zm452 0q-59 0-102 31.5t-43 88.5 43 88 102 31q58 0 101.5-31t43.5-88q0-58-43.5-89T839 1254zm-520 375v111h588v-111H319z"/><glyph glyph-name="uni01D7" unicode="Ǘ" horiz-adv-x="1332" d="M1204 536q0-282-143.5-420T665-22q-250 0-393 138T129 536v939h264V534q0-178 66.5-259T665 194q141 0 208 81t67 259v941h264V536zM440 1549q-58 0-101.5 31.5T295 1669t43.5 88 101.5 31q59 0 102.5-31t43.5-88q0-58-43.5-89T440 1549zm452 0q-59 0-102 31.5t-43 88.5 43 88 102 31q58 0 101.5-31t43.5-88q0-58-43.5-89T892 1549zm-379 288 276 198h220l-300-198H513z"/><glyph glyph-name="uni01D8" unicode="ǘ" horiz-adv-x="1245" d="M514-20q-113 0-187.5 38t-117 100-60 137T132 405v657h264V473q0-71 17-131.5t62.5-97.5T604 207q79 0 136 46.5T828.5 371 860 515l90-60q0-97-30-182.5T833 121 695.5 17.5 514-20zM860 0v1062h263V0H860zM387 1254q-58 0-101.5 31.5T242 1374t43.5 88 101.5 31q59 0 102.5-31t43.5-88q0-58-43.5-89T387 1254zm452 0q-59 0-102 31.5t-43 88.5 43 88 102 31q58 0 101.5-31t43.5-88q0-58-43.5-89T839 1254zm-378 321 276 198h220l-300-198H461z"/><glyph glyph-name="uni01D9" unicode="Ǚ" horiz-adv-x="1332" d="M1204 536q0-282-143.5-420T665-22q-250 0-393 138T129 536v939h264V534q0-178 66.5-259T665 194q141 0 208 81t67 259v941h264V536zM440 1549q-58 0-101.5 31.5T295 1669t43.5 88 101.5 31q59 0 102.5-31t43.5-88q0-58-43.5-89T440 1549zm452 0q-59 0-102 31.5t-43 88.5 43 88 102 31q58 0 101.5-31t43.5-88q0-58-43.5-89T892 1549zm-547 484h174l182-159h-71l181 159h176l-232-198H576z"/><glyph glyph-name="uni01DA" unicode="ǚ" horiz-adv-x="1245" d="M514-20q-113 0-187.5 38t-117 100-60 137T132 405v657h264V473q0-71 17-131.5t62.5-97.5T604 207q79 0 136 46.5T828.5 371 860 515l90-60q0-97-30-182.5T833 121 695.5 17.5 514-20zM860 0v1062h263V0H860zM387 1254q-58 0-101.5 31.5T242 1374t43.5 88 101.5 31q59 0 102.5-31t43.5-88q0-58-43.5-89T387 1254zm452 0q-59 0-102 31.5t-43 88.5 43 88 102 31q58 0 101.5-31t43.5-88q0-58-43.5-89T839 1254zm-546 517h174l182-159h-71l181 159h176l-232-198H524z"/><glyph glyph-name="uni01DB" unicode="Ǜ" horiz-adv-x="1332" d="M1204 536q0-282-143.5-420T665-22q-250 0-393 138T129 536v939h264V534q0-178 66.5-259T665 194q141 0 208 81t67 259v941h264V536zM440 1549q-58 0-101.5 31.5T295 1669t43.5 88 101.5 31q59 0 102.5-31t43.5-88q0-58-43.5-89T440 1549zm452 0q-59 0-102 31.5t-43 88.5 43 88 102 31q58 0 101.5-31t43.5-88q0-58-43.5-89T892 1549zm-71 288H626l-301 198h220z"/><glyph glyph-name="uni01DC" unicode="ǜ" horiz-adv-x="1245" d="M514-20q-113 0-187.5 38t-117 100-60 137T132 405v657h264V473q0-71 17-131.5t62.5-97.5T604 207q79 0 136 46.5T828.5 371 860 515l90-60q0-97-30-182.5T833 121 695.5 17.5 514-20zM860 0v1062h263V0H860zM387 1254q-58 0-101.5 31.5T242 1374t43.5 88 101.5 31q59 0 102.5-31t43.5-88q0-58-43.5-89T387 1254zm452 0q-59 0-102 31.5t-43 88.5 43 88 102 31q58 0 101.5-31t43.5-88q0-58-43.5-89T839 1254zm-70 321H574l-301 198h220z"/><glyph glyph-name="uni01DE" unicode="Ǟ" horiz-adv-x="1301" d="m63 0 381 1477h416L1238 0H967L651 1314h2L334 0H63zm246 359v211h686V359H309zm117 1190q-58 0-101.5 31.5T281 1669t43.5 88 101.5 31q59 0 102.5-31t43.5-88q0-58-43.5-89T426 1549zm452 0q-59 0-102 31.5t-43 88.5 43 88 102 31q58 0 101.5-31t43.5-88q0-58-43.5-89T878 1549zm-521 342v111h588v-111H357z"/><glyph glyph-name="uni01DF" unicode="ǟ" horiz-adv-x="1243" d="M496-22q-119 0-209 37.5T146 124 95 295q0 109 59.5 179.5t160.5 109T539 633q182 18 254.5 34.5T866 721v2q0 70-63 108t-178 38q-121 0-185.5-42.5T375 692H115q0 125 66.5 211.5T364 1035t263 45q137 0 251-41t183-124 69-207V224q0-38 2.5-74.5T1143 84q10-32 24-54t22-30H929q-7 7-19.5 27.5T887 75q-10 30-15 64.5t-5 76.5l52-36q-30-61-91.5-106.5T681 3 496-22zm64 207q82 0 152 28t113 86.5T868 450v142l64-72q-64-24-154-39.5T596 456q-118-11-177.5-41T359 317q0-66 50-99t151-33zM414 1254q-58 0-101.5 31.5T269 1374t43.5 88 101.5 31q59 0 102.5-31t43.5-88q0-58-43.5-89T414 1254zm452 0q-59 0-102 31.5t-43 88.5 43 88 102 31q58 0 101.5-31t43.5-88q0-58-43.5-89T866 1254zm-519 375v111h588v-111H347z"/><glyph glyph-name="uni01E4" unicode="Ǥ" horiz-adv-x="1383" d="M710 331v149h667V331H710zM690-22q-174 0-310 88T166.5 323 89 734q0 243 82 413t224.5 259.5T717 1496q150 0 254.5-50t170-128.5 95-165.5 29.5-161v-12h-256v12q0 52-18 102.5t-55 92-92 66.5-128 25q-99 0-181.5-55t-132-174.5T354 734q0-150 27-253.5T457 314t113-91.5T708 194q100 0 166.5 34t104 84 47.5 97v159H711v182h551V0h-152l-22 164q-7-18-32.5-49T983 52.5 863.5-.5 690-22z"/><glyph glyph-name="uni01E5" unicode="ǥ" horiz-adv-x="1331" d="M658-453q-98 0-192.5 19t-171 62T173-260.5 128-92v11h263v-11q0-54 37-91t99-55.5T663-257q81 0 145 26t100.5 87T945 18v1044h264V18q0-133-47.5-223T1034-349.5t-178-79T658-453zM609-22q-99 0-191 34T253 115.5 137.5 290 95 537q0 136 43.5 237.5T255 944t165 102 189 34q124 0 228-57t167.5-166 63.5-266v-17l-123 1v11q0 91-39 151t-101.5 90T672 857q-77 0-145.5-31.5T415.5 724 373 537q0-116 42.5-189.5t111-107.5T672 206q71 0 133.5 31t101 93T945 482l123-12q0-160-63.5-270T837 34 609-22zm-1 492v121h717V470H608z"/><glyph glyph-name="Gcaron" unicode="Ǧ" horiz-adv-x="1413" d="M708-22q-172 0-312.5 88T172 323 89 734q0 243 86 413t232.5 259.5T735 1496q150 0 254.5-49.5t170-127.5 95-164 29.5-160v-12h-256v12q0 52-18 102t-55 91-92 65-128 24q-99 0-185.5-55t-140-174.5T356 734q0-147 30-250t81.5-167 118-93.5T726 194q100 0 166.5 34t104 85 47.5 100v115H729v198h551V0h-152l-22 164q-7-18-32.5-49T1001 52.5 881.5-.5 708-22zM409 1752h174l182-159h-71l181 159h176l-232-198H640z"/><glyph glyph-name="gcaron" unicode="ǧ" horiz-adv-x="1247" d="M846 105q94-9 165-35t111-77.5 40-137.5q0-96-65-166T906.5-419 598-457q-266 0-409 76.5T46-173q0 37 9 67t22 50l241-35q-6-8-12-25.5t-6-42.5q0-62 83.5-89.5T606-276q102 0 170.5 14t104 40 35.5 61q0 52-47 67T757-74L354-37Q246-26 176.5 27T107 167q0 53 28.5 98t65.5 75.5 63 37.5l150-74q-21-3-49.5-27T336 220q0-31 28-51.5T472 140zm119 957h236l-96-412q-27-116-87-208T858 297t-252-53q-158 0-272.5 51.5T157 440.5 95 656q0 125 63.5 220.5t175 149.5 252.5 54q114 0 205-37.5T936.5 945 995 817l-59-11zM605 447q77 0 133 25t87 72.5T856 660q0 67-31 115t-87 73.5T606 874q-74 0-131-26t-89.5-74.5T353 658t31.5-114.5 88-72T605 447zM275 1475h171l181-213h-72l182 213h173l-231-262H505z"/><glyph glyph-name="uni01E8" unicode="Ǩ" horiz-adv-x="1272" d="m619 726 7 203L1216 0H925L474 726l122-17-227-304 23 167V0H129v1475h263V694l-50 34 560 747h282zM332 1752h174l182-159h-71l181 159h176l-232-198H563z"/><glyph glyph-name="uni01E9" unicode="ǩ" horiz-adv-x="1105" d="M132 0v1563h250V647l-57 28 439 387h327L571 599l59 108L1086 0H808L458 567l64-11-170-152 30 117V0H132zM-62 1840h174l182-159h-71l181 159h176l-232-198H169z"/><glyph glyph-name="uni01EA" unicode="Ǫ" horiz-adv-x="1455" d="M979-266v-128q-20-3-44.5-5t-48.5-2q-63 0-117 16t-87 51.5-33 93.5q0 57 33.5 112t80 100T845 43h134q-32-27-73-71t-72-91-31-82q0-40 28-56t70-16q19 0 40 2.5t38 4.5zM727-22q-134 0-250 50T273.5 175.5t-136 239T89 739t48.5 324T273 1300.5t203.5 146T727 1496q136 0 252.5-49.5t203.5-146 135.5-237.5 48.5-324-49-324.5-136.5-239T978 28 727-22zm0 217q104 0 188 56.5T1048.5 428t49.5 311q0 192-50 310.5T914 1223t-187 55q-101 0-185.5-55t-135-173.5T356 739t50.5-312 135-176T727 195z"/><glyph glyph-name="uni01EB" unicode="ǫ" horiz-adv-x="1302" d="M883-288v-128q-20-3-44.5-5t-48.5-2q-63 0-115 17t-83 53.5-31 94.5q0 53 31.5 107t76 100T749 21h134q-32-27-73-71t-72-91-31-82q0-40 28-56t70-16q19 0 40 2.5t38 4.5zM654-21q-168 0-296 70.5T157.5 245 85 531q0 162 72.5 285.5T358 1010t296 70 296-70 200.5-193.5T1223 531q0-161-72.5-286T950 49.5 654-21zm0 215q91 0 159 42t106 117.5T957 531t-38 176.5T813 823t-159 41q-90 0-158.5-41T389 707.5 351 531t38-177.5T495.5 236 654 194z"/><glyph glyph-name="uni01EE" unicode="Ǯ" horiz-adv-x="1213" d="M599-22q-140 0-234 37.5T215 120t-81 155-25 190v4h264v-4q0-158 61-217.5T602 188q95 0 152.5 55.5T812 432q0 86-29.5 134.5T686 635t-180 20H406l363 610H153v210h893v-194L761 825q107 0 176.5-47.5t104.5-132 35-195.5q0-137-50.5-244T870 38.5 599-22zM286 1752h174l182-159h-71l181 159h176l-232-198H517z"/><glyph glyph-name="uni01EF" unicode="ǯ" horiz-adv-x="1213" d="M605-435q-140 0-234 37.5T221-293t-81 155-25 190v4h264v-4q0-158 61-217.5T608-225q95 0 152.5 55.5T818 19q0 86-29.5 134.5T692 222t-180 20H412l363 610H159v210h893V868L767 412q107 0 176.5-47.5t104.5-132T1083 37q0-137-50.5-244T876-374.5 605-435zM290 1475h171l181-213h-72l182 213h173l-231-262H520z"/><glyph glyph-name="Aringacute" unicode="Ǻ" horiz-adv-x="1301" d="m63 0 381 1477h416L1238 0H967L651 1314h2L334 0H63zm246 359v211h686V359H309zm343 1276q42 0 71.5 29t29.5 72q0 42-29.5 71t-71.5 29-71.5-29-29.5-71q0-43 29.5-72t71.5-29zm0-116q-60 0-109 29t-78.5 78.5T435 1736q0 59 29.5 108.5t78.5 79 109 29.5 109-29.5 78.5-79T869 1736q0-60-29.5-109.5T761 1548t-109-29zm-153 482 276 198h220l-300-198H499z"/><glyph glyph-name="aringacute" unicode="ǻ" horiz-adv-x="1243" d="M496-22q-119 0-209 37.5T146 124 95 295q0 109 59.5 179.5t160.5 109T539 633q182 18 254.5 34.5T866 721v2q0 70-63 108t-178 38q-121 0-185.5-42.5T375 692H115q0 125 66.5 211.5T364 1035t263 45q137 0 251-41t183-124 69-207V224q0-38 2.5-74.5T1143 84q10-32 24-54t22-30H929q-7 7-19.5 27.5T887 75q-10 30-15 64.5t-5 76.5l52-36q-30-61-91.5-106.5T681 3 496-22zm64 207q82 0 152 28t113 86.5T868 450v142l64-72q-64-24-154-39.5T596 456q-118-11-177.5-41T359 317q0-66 50-99t151-33zm81 1076q42 0 71.5 29.5T742 1362t-29.5 71.5T641 1463t-71.5-29-29.5-72q0-42 29.5-71.5T641 1261zm0-116q-60 0-109 29.5t-78.5 79T424 1362q0 60 29.5 109t78.5 78.5 109 29.5 109-29.5 78.5-78.5 29.5-109q0-59-29.5-108.5t-78.5-79-109-29.5zm-155 532 238 262h211l-268-262H486z"/><glyph glyph-name="AEacute" unicode="Ǽ" horiz-adv-x="1948" d="m0 0 850 1475h970v-210h-701l87 87V764l-76 81h579V635h-573l70 75V134l-76 76h690V0H953v1255l21-15L286 0H0zm382 300 52 203h639V300H382zm617 1256 276 198h220l-300-198H999z"/><glyph glyph-name="aeacute" unicode="ǽ" horiz-adv-x="2139" d="M572-22q-222 0-349.5 93T95 319q0 83 37.5 140.5t104 92.5 154 51T578 619q135 0 209 3t102.5 15.5T918 677v24q0 85-72 129.5T660 875q-80 0-144-19.5t-100.5-59T379 696H119q0 94 43 165.5T279.5 982t173 73.5T661 1080q134 0 245.5-44T1082 901q10-11 18.5-23t16.5-25l-92 4q75 104 196 163.5t274 59.5q172 0 297.5-71.5T1986 811t68-291q0-21-1-42t-2-32h-984l112 91q0-15 .5-29t2.5-27q8-92 46.5-160t107-104.5T1502 180q69 0 120 15t85 39 51 50.5 20 50.5h260q-5-62-43.5-125.5T1887 93.5 1719.5 9 1494-23q-112 0-208 32t-169 91.5T998 240l79 12q-37-102-118-162.5t-183-86T572-22zm14 209q57 0 115.5 15t109 52T892 358t31 171v34l66-88q-74-17-173-22t-199-5q-127 0-192-24.5T360 326q0-70 63-104.5T586 187zm604 442h598q0 5-.5 12.5T1785 657q-10 59-45.5 109.5t-96 82T1498 880q-80 0-144.5-30.5T1247 763t-57-134zm-258 584 238 262h211l-268-262H932z"/><glyph glyph-name="Oslashacute" unicode="Ǿ" horiz-adv-x="1455" d="M1275 1495 316-97 179-19l957 1592zM727-22q-134 0-250 50T273.5 175.5t-136 239T89 739t48.5 324T273 1300.5t203.5 146T727 1496q136 0 252.5-49.5t203.5-146 135.5-237.5 48.5-324-49-324.5-136.5-239T978 28 727-22zm0 217q104 0 188 56.5T1048.5 428t49.5 311q0 192-50 310.5T914 1223t-187 55q-101 0-185.5-55t-135-173.5T356 739t50.5-312 135-176T727 195zM567 1556l276 198h220l-300-198H567z"/><glyph glyph-name="oslashacute" unicode="ǿ" horiz-adv-x="1308" d="M1081 1040 320-56 213 21l761 1095zM654-21q-168 0-296 70.5T157.5 245 85 531q0 162 72.5 285.5T358 1010t296 70 296-70 200.5-193.5T1223 531q0-161-72.5-286T950 49.5 654-21zm0 215q91 0 159 42t106 117.5T957 531t-38 176.5T813 823t-159 41q-90 0-158.5-41T389 707.5 351 531t38-177.5T495.5 236 654 194zM499 1213l238 262h211l-268-262H499z"/><glyph glyph-name="uni0200" unicode="Ȁ" horiz-adv-x="1301" d="m63 0 381 1477h416L1238 0H967L651 1314h2L334 0H63zm246 359v211h686V359H309zm584 1196H745l-205 200h171zm-323 0H421l-224 200h172z"/><glyph glyph-name="uni0201" unicode="ȁ" horiz-adv-x="1243" d="M496-22q-119 0-209 37.5T146 124 95 295q0 109 59.5 179.5t160.5 109T539 633q182 18 254.5 34.5T866 721v2q0 70-63 108t-178 38q-121 0-185.5-42.5T375 692H115q0 125 66.5 211.5T364 1035t263 45q137 0 251-41t183-124 69-207V224q0-38 2.5-74.5T1143 84q10-32 24-54t22-30H929q-7 7-19.5 27.5T887 75q-10 30-15 64.5t-5 76.5l52-36q-30-61-91.5-106.5T681 3 496-22zm64 207q82 0 152 28t113 86.5T868 450v142l64-72q-64-24-154-39.5T596 456q-118-11-177.5-41T359 317q0-66 50-99t151-33zm328 1028H743l-180 262h172zm-323 0H419l-198 262h171z"/><glyph glyph-name="uni0202" unicode="Ȃ" horiz-adv-x="1301" d="m63 0 381 1477h416L1238 0H967L651 1314h2L334 0H63zm246 359v211h686V359H309zm70 1189q0 88 78 141.5t195 53.5 195.5-53.5T926 1548H769q0 38-30.5 64.5T652 1639q-55 0-86-26.5t-31-64.5H379z"/><glyph glyph-name="uni0203" unicode="ȃ" horiz-adv-x="1243" d="M496-22q-119 0-209 37.5T146 124 95 295q0 109 59.5 179.5t160.5 109T539 633q182 18 254.5 34.5T866 721v2q0 70-63 108t-178 38q-121 0-185.5-42.5T375 692H115q0 125 66.5 211.5T364 1035t263 45q137 0 251-41t183-124 69-207V224q0-38 2.5-74.5T1143 84q10-32 24-54t22-30H929q-7 7-19.5 27.5T887 75q-10 30-15 64.5t-5 76.5l52-36q-30-61-91.5-106.5T681 3 496-22zm64 207q82 0 152 28t113 86.5T868 450v142l64-72q-64-24-154-39.5T596 456q-118-11-177.5-41T359 317q0-66 50-99t151-33zM368 1256q0 115 78 173.5t195 58.5q118 0 196-58.5t78-173.5H759q0 60-31.5 94t-86.5 34q-54 0-85.5-34t-31.5-94H368z"/><glyph glyph-name="uni0204" unicode="Ȅ" horiz-adv-x="1124" d="m275 1265 119 131V766l-62 79h552V635H332l62 78V79L275 210h720V0H129v1475h866v-210H275zm541 290H668l-205 200h171zm-323 0H344l-224 200h172z"/><glyph glyph-name="uni0205" unicode="ȅ" horiz-adv-x="1299" d="M230 446v187h743l-30-50v26q0 69-31 129.5t-94 98T658 874q-96 0-166.5-40.5T382.5 717 344 535q0-109 37-187.5t108.5-120T664 186q70 0 121 13t83.5 35.5 49 48.5 19.5 52h262q-6-67-44.5-130.5T1047 89.5t-167.5-82T655-23q-171 0-299 70T156.5 242 85 528q0 165 72.5 289T359 1010.5t296 69.5q172 0 297.5-70T1146 815.5t68-289.5q0-21-1-45t-3-35H230zm671 767H756l-180 262h172zm-323 0H432l-198 262h171z"/><glyph glyph-name="uni0206" unicode="Ȇ" horiz-adv-x="1124" d="m275 1265 119 131V766l-62 79h552V635H332l62 78V79L275 210h720V0H129v1475h866v-210H275zm27 283q0 88 78 141.5t195 53.5 195.5-53.5T849 1548H692q0 38-30.5 64.5T575 1639q-55 0-86-26.5t-31-64.5H302z"/><glyph glyph-name="uni0207" unicode="ȇ" horiz-adv-x="1299" d="M230 446v187h743l-30-50v26q0 69-31 129.5t-94 98T658 874q-96 0-166.5-40.5T382.5 717 344 535q0-109 37-187.5t108.5-120T664 186q70 0 121 13t83.5 35.5 49 48.5 19.5 52h262q-6-67-44.5-130.5T1047 89.5t-167.5-82T655-23q-171 0-299 70T156.5 242 85 528q0 165 72.5 289T359 1010.5t296 69.5q172 0 297.5-70T1146 815.5t68-289.5q0-21-1-45t-3-35H230zm150 810q0 115 78 173.5t195 58.5q118 0 196-58.5t78-173.5H771q0 60-31.5 94t-86.5 34q-54 0-85.5-34t-31.5-94H380z"/><glyph glyph-name="uni0208" unicode="Ȉ" horiz-adv-x="522" d="M131 0v1475h260V0H131zm372 1555H355l-205 200h171zm-323 0H31l-224 200h172z"/><glyph glyph-name="uni0209" unicode="ȉ" horiz-adv-x="514" d="M127 0v1062h260V0H127zm378 1213H360l-180 262h172zm-323 0H36l-198 262H9z"/><glyph glyph-name="uni020A" unicode="Ȋ" horiz-adv-x="522" d="M131 0v1475h260V0H131zM-11 1548q0 88 78 141.5t195 53.5 195.5-53.5T536 1548H379q0 38-30.5 64.5T262 1639q-55 0-86-26.5t-31-64.5H-11z"/><glyph glyph-name="uni020B" unicode="ȋ" horiz-adv-x="514" d="M127 0v1062h260V0H127zM-16 1256q0 115 78 173.5t195 58.5q118 0 196-58.5t78-173.5H375q0 60-31.5 94t-86.5 34q-54 0-85.5-34t-31.5-94H-16z"/><glyph glyph-name="uni020C" unicode="Ȍ" horiz-adv-x="1455" d="M727-22q-134 0-250 50T273.5 175.5t-136 239T89 739t48.5 324T273 1300.5t203.5 146T727 1496q136 0 252.5-49.5t203.5-146 135.5-237.5 48.5-324-49-324.5-136.5-239T978 28 727-22zm0 217q104 0 188 56.5T1048.5 428t49.5 311q0 192-50 310.5T914 1223t-187 55q-101 0-185.5-55t-135-173.5T356 739t50.5-312 135-176T727 195zm242 1360H821l-205 200h171zm-323 0H497l-224 200h172z"/><glyph glyph-name="uni020D" unicode="ȍ" horiz-adv-x="1308" d="M654-21q-168 0-296 70.5T157.5 245 85 531q0 162 72.5 285.5T358 1010t296 70 296-70 200.5-193.5T1223 531q0-161-72.5-286T950 49.5 654-21zm0 215q91 0 159 42t106 117.5T957 531t-38 176.5T813 823t-159 41q-90 0-158.5-41T389 707.5 351 531t38-177.5T495.5 236 654 194zm248 1019H757l-180 262h172zm-323 0H433l-198 262h171z"/><glyph glyph-name="uni020E" unicode="Ȏ" horiz-adv-x="1455" d="M727-22q-134 0-250 50T273.5 175.5t-136 239T89 739t48.5 324T273 1300.5t203.5 146T727 1496q136 0 252.5-49.5t203.5-146 135.5-237.5 48.5-324-49-324.5-136.5-239T978 28 727-22zm0 217q104 0 188 56.5T1048.5 428t49.5 311q0 192-50 310.5T914 1223t-187 55q-101 0-185.5-55t-135-173.5T356 739t50.5-312 135-176T727 195zM454 1548q0 88 78 141.5t195 53.5 195.5-53.5T1001 1548H844q0 38-30.5 64.5T727 1639q-55 0-86-26.5t-31-64.5H454z"/><glyph glyph-name="uni020F" unicode="ȏ" horiz-adv-x="1308" d="M654-21q-168 0-296 70.5T157.5 245 85 531q0 162 72.5 285.5T358 1010t296 70 296-70 200.5-193.5T1223 531q0-161-72.5-286T950 49.5 654-21zm0 215q91 0 159 42t106 117.5T957 531t-38 176.5T813 823t-159 41q-90 0-158.5-41T389 707.5 351 531t38-177.5T495.5 236 654 194zM381 1256q0 115 78 173.5t195 58.5q118 0 196-58.5t78-173.5H772q0 60-31.5 94t-86.5 34q-54 0-85.5-34t-31.5-94H381z"/><glyph glyph-name="uni0210" unicode="Ȑ" horiz-adv-x="1246" d="M129 0v1475h568q223 0 335-102t112-300q0-116-44-197T993 751t-120-50q58-4 112-30t88.5-81.5T1108 440V141q0-47 8-86.5T1136 0H871q-10 18-17.5 55.5T846 141v268q0 91-51 138t-154 47H316l70 89V0H129zm257 705-70 99h327q65 0 117 30.5t82.5 85.5 30.5 129q0 108-62 162t-176 54H309l77 93V705zm438 850H676l-205 200h171zm-323 0H352l-224 200h172z"/><glyph glyph-name="uni0211" unicode="ȑ" horiz-adv-x="881" d="M132 0v1062h263V709l-61 34q10 69 37 130.5t72 108 109 72.5 146 26q65 0 102.5-9.5T847 1055l-48-241q-10 7-40.5 17.5T677 842q-81 0-135.5-27.5t-86.5-74-46-102T395 528V0H132zm643 1213H630l-180 262h172zm-323 0H306l-198 262h171z"/><glyph glyph-name="uni0212" unicode="Ȓ" horiz-adv-x="1246" d="M129 0v1475h568q223 0 335-102t112-300q0-116-44-197T993 751t-120-50q58-4 112-30t88.5-81.5T1108 440V141q0-47 8-86.5T1136 0H871q-10 18-17.5 55.5T846 141v268q0 91-51 138t-154 47H316l70 89V0H129zm257 705-70 99h327q65 0 117 30.5t82.5 85.5 30.5 129q0 108-62 162t-176 54H309l77 93V705zm-77 843q0 88 78 141.5t195 53.5 195.5-53.5T856 1548H699q0 38-30.5 64.5T582 1639q-55 0-86-26.5t-31-64.5H309z"/><glyph glyph-name="uni0213" unicode="ȓ" horiz-adv-x="881" d="M132 0v1062h263V709l-61 34q10 69 37 130.5t72 108 109 72.5 146 26q65 0 102.5-9.5T847 1055l-48-241q-10 7-40.5 17.5T677 842q-81 0-135.5-27.5t-86.5-74-46-102T395 528V0H132zm123 1256q0 115 78 173.5t195 58.5q118 0 196-58.5t78-173.5H646q0 60-31.5 94t-86.5 34q-54 0-85.5-34t-31.5-94H255z"/><glyph glyph-name="uni0214" unicode="Ȕ" horiz-adv-x="1332" d="M1204 536q0-282-143.5-420T665-22q-250 0-393 138T129 536v939h264V534q0-178 66.5-259T665 194q141 0 208 81t67 259v941h264V536zM907 1555H759l-205 200h171zm-323 0H435l-224 200h172z"/><glyph glyph-name="uni0215" unicode="ȕ" horiz-adv-x="1245" d="M514-20q-113 0-187.5 38t-117 100-60 137T132 405v657h264V473q0-71 17-131.5t62.5-97.5T604 207q79 0 136 46.5T828.5 371 860 515l90-60q0-97-30-182.5T833 121 695.5 17.5 514-20zM860 0v1062h263V0H860zm1 1213H716l-180 262h172zm-323 0H392l-198 262h171z"/><glyph glyph-name="uni0216" unicode="Ȗ" horiz-adv-x="1332" d="M1204 536q0-282-143.5-420T665-22q-250 0-393 138T129 536v939h264V534q0-178 66.5-259T665 194q141 0 208 81t67 259v941h264V536zM393 1548q0 88 78 141.5t195 53.5 195.5-53.5T940 1548H783q0 38-30.5 64.5T666 1639q-55 0-86-26.5t-31-64.5H393z"/><glyph glyph-name="uni0217" unicode="ȗ" horiz-adv-x="1245" d="M514-20q-113 0-187.5 38t-117 100-60 137T132 405v657h264V473q0-71 17-131.5t62.5-97.5T604 207q79 0 136 46.5T828.5 371 860 515l90-60q0-97-30-182.5T833 121 695.5 17.5 514-20zM860 0v1062h263V0H860zM340 1256q0 115 78 173.5t195 58.5q118 0 196-58.5t78-173.5H731q0 60-31.5 94t-86.5 34q-54 0-85.5-34t-31.5-94H340z"/><glyph glyph-name="uni0218" unicode="Ș" horiz-adv-x="1222" d="M610-22q-157 0-274 50T154 178.5 89 428v61h263v-56q0-120 65.5-179.5T611 194q129 0 197.5 43T877 375q0 69-46.5 117.5T703 578t-184 69q-116 36-211 93T156 884t-57 214 65.5 216 180 135.5T605 1496q153 0 269.5-48t182.5-143 66-237v-65H859v53q0 114-62 168.5T609 1279q-123 0-189-43t-66-137q0-70 45-117t123.5-81.5T701 831q133-44 230-99.5t150-138 53-209.5q0-130-65.5-220.5t-183-138T610-22zm-20-237q-42 0-68 23t-26 62q0 48 35.5 70T609-82q27 0 54-11.5t45-36 18-66.5q0-73-30-123.5t-72.5-82T543-450l-18 45q29 11 60.5 34t53 58 21.5 81q-7-12-27.5-19.5T590-259z"/><glyph glyph-name="uni0219" unicode="ș" horiz-adv-x="1127" d="M561-22q-95 0-180.5 21t-152 63-105 104.5T85 311v23h262v-18q0-65 59.5-97.5T569 186q56 0 105.5 12t80 37 30.5 64q0 63-64.5 90T518 438q-76 13-150 35t-134.5 59-97 92T100 758q0 105 62.5 176.5t168 108.5 232.5 37q122 0 227-40t169.5-115 64.5-181v-16H764v13q0 46-29 75t-75 43-97 14q-45 0-93-9.5t-80-33-32-65.5q0-40 33-65t92-41.5T619 629q73-12 147.5-33T903 540t100.5-91.5T1042 309q0-88-40-150T893.5 56.5 739-3 561-22zm-17-237q-42 0-68 23t-26 62q0 48 35.5 70T563-82q27 0 54-11.5t45-36 18-66.5q0-73-30-123.5t-72.5-82T497-450l-18 45q29 11 60.5 34t53 58 21.5 81q-7-12-27.5-19.5T544-259z"/><glyph glyph-name="uni021A" unicode="Ț" horiz-adv-x="1145" d="M1074 1265H607l97 131V0H440v1396l102-131H71v210h1003v-210zM552-259q-42 0-68 23t-26 62q0 48 35.5 70T571-82q27 0 54-11.5t45-36 18-66.5q0-73-30-123.5t-72.5-82T505-450l-18 45q29 11 60.5 34t53 58 21.5 81q-7-12-27.5-19.5T552-259z"/><glyph glyph-name="uni021B" unicode="ț" horiz-adv-x="933" d="M620-20q-57 0-116 11T396 32t-79 88-30 153v579H36v210h102q52 0 82 4.5t44 21.5 18.5 53.5T287 1243v169h264v-350h316V852H551V353q0-74 18-119t85-45q32 0 60.5 6t42.5 12V1q-19-7-55-14t-82-7zM509-259q-42 0-68 23t-26 62q0 48 35.5 70T528-82q27 0 54-11.5t45-36 18-66.5q0-73-30-123.5t-72.5-82T462-450l-18 45q29 11 60.5 34t53 58 21.5 81q-7-12-27.5-19.5T509-259z"/><glyph glyph-name="uni0228" unicode="Ȩ" horiz-adv-x="1124" d="m275 1265 119 131V766l-62 79h552V635H332l62 78V79L275 210h720V0H129v1475h866v-210H275zM684-82q35 0 69-15.5t56.5-48.5 22.5-86q0-64-38-105.5T696-399t-127-20q-60 0-118.5 15T369-373l53 99q17-11 61-27.5t96-16.5q57 0 96 23.5t39 67.5q0 37-20.5 53T643-158q-24 0-49.5-9T555-193l-102 29L524 0h115l-60-140-13 4q10 22 42.5 38T684-82z"/><glyph glyph-name="uni0229" unicode="ȩ" horiz-adv-x="1293" d="M762-82q35 0 69-15.5t56.5-48.5 22.5-86q0-64-38-105.5T774-399t-127-20q-60 0-118.5 15T447-373l53 99q17-11 61.5-27.5T657-318q57 0 96 23.5t39 67.5q0 37-20.5 53T721-158q-24 0-49.5-9T634-193l-105 29L600 0h120l-61-140-20 4q9 22 44.5 38T762-82zM230 446v187h743l-30-50v26q0 69-31 129.5t-94 98T658 874q-96 0-166.5-40.5T382.5 717 344 535q0-109 37-187.5t108.5-120T664 186q70 0 121 13t83.5 35.5 49 48.5 19.5 52h262q-6-67-44.5-130.5T1047 89.5t-167.5-82T655-23q-171 0-299 70T156.5 242 85 528q0 165 72.5 289T359 1010.5t296 69.5q172 0 297.5-70T1146 815.5t68-289.5q0-21-1-45t-3-35H230z"/><glyph glyph-name="uni022A" unicode="Ȫ" horiz-adv-x="1455" d="M727-22q-134 0-250 50T273.5 175.5t-136 239T89 739t48.5 324T273 1300.5t203.5 146T727 1496q136 0 252.5-49.5t203.5-146 135.5-237.5 48.5-324-49-324.5-136.5-239T978 28 727-22zm0 217q104 0 188 56.5T1048.5 428t49.5 311q0 192-50 310.5T914 1223t-187 55q-101 0-185.5-55t-135-173.5T356 739t50.5-312 135-176T727 195zM502 1549q-58 0-101.5 31.5T357 1669t43.5 88 101.5 31q59 0 102.5-31t43.5-88q0-58-43.5-89T502 1549zm452 0q-59 0-102 31.5t-43 88.5 43 88 102 31q58 0 101.5-31t43.5-88q0-58-43.5-89T954 1549zm-521 342v111h588v-111H433z"/><glyph glyph-name="uni022B" unicode="ȫ" horiz-adv-x="1308" d="M654-21q-168 0-296 70.5T157.5 245 85 531q0 162 72.5 285.5T358 1010t296 70 296-70 200.5-193.5T1223 531q0-161-72.5-286T950 49.5 654-21zm0 215q91 0 159 42t106 117.5T957 531t-38 176.5T813 823t-159 41q-90 0-158.5-41T389 707.5 351 531t38-177.5T495.5 236 654 194zM428 1254q-58 0-101.5 31.5T283 1374t43.5 88 101.5 31q59 0 102.5-31t43.5-88q0-58-43.5-89T428 1254zm452 0q-59 0-102 31.5t-43 88.5 43 88 102 31q58 0 101.5-31t43.5-88q0-58-43.5-89T880 1254zm-520 375v111h588v-111H360z"/><glyph glyph-name="uni022C" unicode="Ȭ" horiz-adv-x="1455" d="M727-22q-134 0-250 50T273.5 175.5t-136 239T89 739t48.5 324T273 1300.5t203.5 146T727 1496q136 0 252.5-49.5t203.5-146 135.5-237.5 48.5-324-49-324.5-136.5-239T978 28 727-22zm0 217q104 0 188 56.5T1048.5 428t49.5 311q0 192-50 310.5T914 1223t-187 55q-101 0-185.5-55t-135-173.5T356 739t50.5-312 135-176T727 195zm324 1554q-1-44-20.5-91.5T970 1577t-106-33q-51 0-86 20t-58 40q-22 19-44.5 33t-51.5 14q-37 0-52.5-24.5T555 1567H416q2 46 23.5 94t64.5 80.5 109 32.5q48 0 82.5-19.5T752 1716q23-19 47-34t50-15q35 0 49 23.5t15 58.5h138zm-618 161v111h588v-111H433z"/><glyph glyph-name="uni022D" unicode="ȭ" horiz-adv-x="1308" d="M654-21q-168 0-296 70.5T157.5 245 85 531q0 162 72.5 285.5T358 1010t296 70 296-70 200.5-193.5T1223 531q0-161-72.5-286T950 49.5 654-21zm0 215q91 0 159 42t106 117.5T957 531t-38 176.5T813 823t-159 41q-90 0-158.5-41T389 707.5 351 531t38-177.5T495.5 236 654 194zm318 1260q-1-44-20.5-91t-60.5-80-106-33q-51 0-86 20t-58 39q-22 19-44.5 33t-51.5 14q-37 0-52.5-24.5T476 1273H337q2 45 23.5 93t64.5 81 109 33q48 0 82.5-20t56.5-39q23-19 47-34t50-15q35 0 49 24t15 58h138zm-612 164v111h588v-111H360z"/><glyph glyph-name="uni0230" unicode="Ȱ" horiz-adv-x="1455" d="M727-22q-134 0-250 50T273.5 175.5t-136 239T89 739t48.5 324T273 1300.5t203.5 146T727 1496q136 0 252.5-49.5t203.5-146 135.5-237.5 48.5-324-49-324.5-136.5-239T978 28 727-22zm0 217q104 0 188 56.5T1048.5 428t49.5 311q0 192-50 310.5T914 1223t-187 55q-101 0-185.5-55t-135-173.5T356 739t50.5-312 135-176T727 195zm3 1370q-63 0-110.5 34.5T572 1695q0 62 47.5 96t110.5 34q64 0 111-34t47-96-47-96-111-34zm-295 395v111h588v-111H435z"/><glyph glyph-name="uni0231" unicode="ȱ" horiz-adv-x="1308" d="M654-21q-168 0-296 70.5T157.5 245 85 531q0 162 72.5 285.5T358 1010t296 70 296-70 200.5-193.5T1223 531q0-161-72.5-286T950 49.5 654-21zm0 215q91 0 159 42t106 117.5T957 531t-38 176.5T813 823t-159 41q-90 0-158.5-41T389 707.5 351 531t38-177.5T495.5 236 654 194zm1 1064q-63 0-110.5 34t-47.5 95q0 62 47.5 96t110.5 34q64 0 111-34t47-96-47-95.5-111-33.5zm-295 391v111h588v-111H360z"/><glyph glyph-name="uni0232" unicode="Ȳ" horiz-adv-x="1233" d="M1170 1475 747 510V0H483v510L63 1475h279l327-826H563l326 826h281zm-848 135v111h588v-111H322z"/><glyph glyph-name="uni0233" unicode="ȳ" horiz-adv-x="1096" d="M201-456q-47 0-84 4.5T71-443v205q13-6 44.5-9.5T181-251q55 0 95.5 22t69.5 60.5T392-79l23 67L49 1062h275l251-886h-32l245 886h270L686-65q-39-117-94.5-205T444-407t-243-49zm56 1753v112h588v-112H257z"/><glyph glyph-name="uni0237" unicode="ȷ" horiz-adv-x="531" d="M-29-453q-29 0-55 1.5t-43 4.5v196q16-4 42.5-7t55.5-3q56 0 89 16t49.5 42 22.5 56.5 6 60.5v1148h263V-94q0-66-15.5-129.5t-59-115.5-129-83T-29-453z"/><glyph glyph-name="uni0259" unicode="ə" horiz-adv-x="1299" d="M644-23q-172 0-297.5 70T153 242 85 531q0 21 1 45t2 35h949V424H326l30 50v-26q0-69 30.5-129.5t93.5-98T641 183q99 0 170.5 39.5T921 338t38 184q0 113-34.5 190.5T818 830.5 633 871q-68 0-117-12.5T434 824t-50.5-48.5T362 722H100q7 67 45 130.5t107 115 167.5 82T644 1080q172 0 299.5-70t199-194.5T1214 529q0-164-72.5-288.5t-201-194T644-23z"/><glyph glyph-name="uni0272" unicode="ɲ" horiz-adv-x="1204" d="M819 0v597q0 72-18 129.5T737 817t-134 33q-76 0-135-36.5t-92.5-100T342 567l-89 55q0 133 60.5 236.5T476 1021t226 59q128 0 212.5-50t126-142 41.5-216V0H819zm-946-462v189q53 0 92 18t64.5 50 38 73T80-46v1108h263V-46q0-75-14.5-148.5T268-329t-140.5-97-254.5-36z"/><glyph glyph-name="uni0292" unicode="ʒ" horiz-adv-x="1213" d="M605-435q-140 0-234 37.5T221-293t-81 155-25 190v4h264v-4q0-158 61-217.5T608-225q95 0 152.5 55.5T818 19q0 86-29.5 134.5T692 222t-180 20H412l363 610H159v210h893V868L767 412q107 0 176.5-47.5t104.5-132T1083 37q0-137-50.5-244T876-374.5 605-435z"/><glyph glyph-name="uni02BC" unicode="ʼ" horiz-adv-x="339" d="m270 1475-26-470H94l-25 470h201z"/><glyph glyph-name="circumflex" unicode="ˆ" horiz-adv-x="925" d="m144 1213 230 262h174l231-262H606l-182 213h72l-181-213H144z"/><glyph glyph-name="caron" unicode="ˇ" horiz-adv-x="925" d="M144 1475h171l181-213h-72l182 213h173l-231-262H374z"/><glyph glyph-name="uni02C9" unicode="ˉ" horiz-adv-x="825" d="M117 1297v112h588v-112H117z"/><glyph glyph-name="breve" unicode="˘" horiz-adv-x="689" d="M68 1495h156q0-61 31-101.5t86-40.5q56 0 86.5 40.5T458 1495h157q0-116-78.5-180.5T341 1250t-195 64.5T68 1495z"/><glyph glyph-name="dotaccent" unicode="˙" horiz-adv-x="481" d="M239 1258q-63 0-110.5 34T81 1387q0 62 47.5 96t110.5 34q64 0 111-34t47-96-47-95.5-111-33.5z"/><glyph glyph-name="ring" unicode="˚" horiz-adv-x="771" d="M386 1261q42 0 71.5 29.5T487 1362t-29.5 71.5T386 1463t-71.5-29-29.5-72q0-42 29.5-71.5T386 1261zm0-116q-60 0-109 29.5t-78.5 79T169 1362q0 60 29.5 109t78.5 78.5 109 29.5 109-29.5 78.5-78.5 29.5-109q0-59-29.5-108.5t-78.5-79-109-29.5z"/><glyph glyph-name="ogonek" unicode="˛" horiz-adv-x="847" d="M496-309v-129q-20-2-44.5-4t-49.5-2q-62 0-114 16.5t-83 53-31 94.5q0 54 31.5 108T281-72t81 72h134q-32-27-73.5-71.5t-72.5-91-31-81.5q0-40 28.5-56t70.5-16q19 0 40 2t38 5z"/><glyph glyph-name="tilde" unicode="˜" horiz-adv-x="926" d="M795 1454q-1-44-20.5-91t-60.5-80-106-33q-51 0-86 20t-58 39q-22 19-44.5 33t-51.5 14q-37 0-52.5-24.5T299 1273H160q2 45 23.5 93t64.5 81 109 33q48 0 82.5-20t56.5-39q23-19 47-34t50-15q35 0 49 24t15 58h138z"/><glyph glyph-name="hungarumlaut" unicode="˝" horiz-adv-x="912" d="m110 1213 154 262h171l-186-262H110zm329 0 166 262h172l-199-262H439z"/><glyph glyph-name="gravecomb" unicode="̀" d="M579 1213H397l-267 262h210z"/><glyph glyph-name="acutecomb" unicode="́" d="m61 1213 238 262h211l-268-262H61z"/><glyph glyph-name="uni0302" unicode="̂" d="m144 1213 230 262h174l231-262H606l-182 213h72l-181-213H144z"/><glyph glyph-name="tildecomb" unicode="̃" d="M795 1454q-1-44-20.5-91t-60.5-80-106-33q-51 0-86 20t-58 39q-22 19-44.5 33t-51.5 14q-37 0-52.5-24.5T299 1273H160q2 45 23.5 93t64.5 81 109 33q48 0 82.5-20t56.5-39q23-19 47-34t50-15q35 0 49 24t15 58h138z"/><glyph glyph-name="uni0304" unicode="̄" d="M117 1297v112h588v-112H117z"/><glyph glyph-name="uni0306" unicode="̆" d="M68 1495h156q0-61 31-101.5t86-40.5q56 0 86.5 40.5T458 1495h157q0-116-78.5-180.5T341 1250t-195 64.5T68 1495z"/><glyph glyph-name="uni0307" unicode="̇" d="M239 1258q-63 0-110.5 34T81 1387q0 62 47.5 96t110.5 34q64 0 111-34t47-96-47-95.5-111-33.5z"/><glyph glyph-name="uni0308" unicode="̈" d="M188 1254q-58 0-101.5 31.5T43 1374t43.5 88 101.5 31q59 0 102.5-31t43.5-88q0-58-43.5-89T188 1254zm452 0q-59 0-102 31.5t-43 88.5 43 88 102 31q58 0 101.5-31t43.5-88q0-58-43.5-89T640 1254z"/><glyph glyph-name="hookabovecomb" unicode="̉" d="M175 1506q111 0 201-8.5t143.5-36T573 1376q0-50-36-81.5t-97-46.5-136-15l-28 73q33 2 72 7t67 18 28 35q0 35-71.5 44.5T175 1420v86z"/><glyph glyph-name="uni030A" unicode="̊" d="M386 1261q42 0 71.5 29.5T487 1362t-29.5 71.5T386 1463t-71.5-29-29.5-72q0-42 29.5-71.5T386 1261zm0-116q-60 0-109 29.5t-78.5 79T169 1362q0 60 29.5 109t78.5 78.5 109 29.5 109-29.5 78.5-78.5 29.5-109q0-59-29.5-108.5t-78.5-79-109-29.5z"/><glyph glyph-name="uni030B" unicode="̋" d="m110 1213 154 262h171l-186-262H110zm329 0 166 262h172l-199-262H439z"/><glyph glyph-name="uni030C" unicode="̌" d="M144 1475h171l181-213h-72l182 213h173l-231-262H374z"/><glyph glyph-name="uni030F" unicode="̏" d="M712 1213H567l-180 262h172zm-323 0H243L45 1475h171z"/><glyph glyph-name="uni0311" unicode="̑" d="M49 1256q0 115 78 173.5t195 58.5q118 0 196-58.5t78-173.5H440q0 60-31.5 94t-86.5 34q-54 0-85.5-34t-31.5-94H49z"/><glyph glyph-name="uni0312" unicode="̒" d="M231 1404q48 0 78-28.5t30-76.5-32-80-93-32q-62 0-94.5 41.5T87 1334q0 62 29.5 109t75 80 91.5 51l23-49q-31-12-62-34.5t-51-50-20-56.5q2 5 18 12.5t40 7.5z"/><glyph glyph-name="uni031B" unicode="̛" d="M205 1064q68 0 103.5 24.5T357 1172t13 163h146q0-149-35-235T377 977.5 205 941v123z"/><glyph glyph-name="dotbelowcomb" unicode="̣" d="M240-387q-64 0-111 34t-47 95q0 62 47.5 96T240-128t110-34 47-96-47-95.5T240-387z"/><glyph glyph-name="uni0324" unicode="̤" d="M188-383q-58 0-101.5 32T43-262q0 56 43.5 87.5T188-143q59 0 102.5-31.5T334-262q0-58-43.5-89.5T188-383zm452 0q-59 0-102 32t-43 89q0 56 43 87.5T640-143q58 0 101.5-31.5T785-262q0-58-43.5-89.5T640-383z"/><glyph glyph-name="uni0326" unicode="̦" d="M188-259q-42 0-68 23t-26 62q0 48 35.5 70T207-82q27 0 54-11.5t45-36 18-66.5q0-73-30-123.5t-72.5-82T141-450l-18 45q29 11 60.5 34t53 58 21.5 81q-7-12-27.5-19.5T188-259z"/><glyph glyph-name="uni0327" unicode="̧" d="M531-82q35 0 69-15.5t56.5-48.5 22.5-86q0-64-38-105.5T543-399t-127-20q-60 0-118.5 15T216-373l53 99q17-11 61-27.5t96-16.5q57 0 96 23.5t39 67.5q0 37-20.5 53T490-158q-24 0-49.5-9T402-193l-104 29L369 0h120l-61-140-21 4q10 22 45.5 38T531-82z"/><glyph glyph-name="uni0328" unicode="̨" d="M496-309v-129q-20-2-44.5-4t-49.5-2q-62 0-114 16.5t-83 53-31 94.5q0 54 31.5 108T281-72t81 72h134q-32-27-73.5-71.5t-72.5-91-31-81.5q0-40 28.5-56t70.5-16q19 0 40 2t38 5z"/><glyph glyph-name="uni032E" unicode="̮" d="M88-121h156q0-61 31.5-95t86.5-34 86 34 31 95h156q0-116-78-174t-195-58q-118 0-196 58T88-121z"/><glyph glyph-name="uni0331" unicode="̱" d="M126-288v111h545v-111H126z"/><glyph glyph-name="uni0335" unicode="̵" d="M80 506v121h717V506H80z"/><glyph glyph-name="uni0336" unicode="̶" d="M80 506v121h1020V506H80z"/><glyph glyph-name="uni0337" unicode="̷" d="M984 1046 224-50 117 27l760 1095z"/><glyph glyph-name="uni0338" unicode="̸" d="M1261 1488 302-104 165-26l957 1592z"/><glyph glyph-name="uni1E08" unicode="Ḉ" horiz-adv-x="1383" d="M1294 531q0-94-35-191t-106.5-179.5T972 28 716-22q-151 0-268 57T251 195.5t-121 242T89 737q0 163 41 301t121 241 197 160 268 57q165 0 282-63t187-162 94-207q15-63 15-120h-265q0 29-4 60-11 76-50.5 138.5t-104.5 99-154 36.5q-106 0-186.5-59T403 1040t-46-303q0-181 46-302t126.5-181T716 194q76 0 134 28t98 75.5 60.5 107.5 20.5 126h265zM812-82q35 0 68.5-15.5T937-146t23-86q0-64-38-105.5T824-399t-127-20q-60 0-118.5 15T497-373l52 99q18-11 62-27.5t95-16.5q58 0 96.5 23.5T841-227q0 37-20 53t-50 16q-25 0-50-9t-38-26l-102 29L652 0h115l-60-140-13 4q10 22 42 38t76 16zM557 1556l276 198h220l-300-198H557z"/><glyph glyph-name="uni1E09" unicode="ḉ" horiz-adv-x="1265" d="M753-82q35 0 69-15.5t56.5-48.5 22.5-86q0-64-38-105.5T765-399t-127-20q-60 0-118.5 15T438-373l53 99q17-11 61.5-27.5T648-318q57 0 96 23.5t39 67.5q0 37-20.5 53T712-158q-24 0-49.5-9T625-193l-105 29L591 0h120l-61-140-20 4q9 22 44.5 38T753-82zm-96 60q-168 0-297 69T158 241 85 534q0 167 73 290t202 189.5 297 66.5q126 0 223-37t163.5-98.5 101.5-135 35-146.5v-8H919q0 5-1 11l-2 12q-8 51-41 92.5T787 837t-133 25q-83 0-151.5-36.5T393.5 716 353 534q0-108 40-183.5t108.5-115T654 196q89 0 145.5 27.5t85.5 74T918 399h262q0-74-34-148.5T1046 114 882.5 15 657-22zM489 1213l238 262h211l-268-262H489z"/><glyph glyph-name="uni1E0C" unicode="Ḍ" horiz-adv-x="1311" d="M129 0v1475h441q147 0 267-52.5t206-149.5 133-232.5 47-301.5-47-301.5T1043 204 837 53 570 0H129zm264 79L274 210h262q120 0 214.5 64.5t149.5 183T955 739q0 164-55 282t-149.5 181-214.5 63H274l119 131V79zm232-468q-64 0-111 34.5T467-259q0 62 47.5 95.5T625-130t110-33.5 47-95.5-47-96-110-34z"/><glyph glyph-name="uni1E0D" unicode="ḍ" horiz-adv-x="1298" d="M573-22q-131 0-242.5 63.5T152 229 85 534q0 176 68.5 298t180 185 239.5 63q125 0 231-61.5T974 848t64-250v-16l-130-3v13q0 79-39.5 138t-102 92.5T634 856q-115 0-196-77.5T357 534q0-166 81-245t196-79q73 0 135 35t100.5 96.5T908 483l130-6q0-140-62.5-253.5T808 44 573-22zM908 0v1563h264V0H908zM730-399q-64 0-111 34t-47 95q0 62 47.5 96T730-140t110-34 47-96-47-95.5T730-399z"/><glyph glyph-name="uni1E0E" unicode="Ḏ" horiz-adv-x="1311" d="M129 0v1475h441q147 0 267-52.5t206-149.5 133-232.5 47-301.5-47-301.5T1043 204 837 53 570 0H129zm264 79L274 210h262q120 0 214.5 64.5t149.5 183T955 739q0 164-55 282t-149.5 181-214.5 63H274l119 131V79zm-80-367v111h625v-111H313z"/><glyph glyph-name="uni1E0F" unicode="ḏ" horiz-adv-x="1298" d="M573-22q-131 0-242.5 63.5T152 229 85 534q0 176 68.5 298t180 185 239.5 63q125 0 231-61.5T974 848t64-250v-16l-130-3v13q0 79-39.5 138t-102 92.5T634 856q-115 0-196-77.5T357 534q0-166 81-245t196-79q73 0 135 35t100.5 96.5T908 483l130-6q0-140-62.5-253.5T808 44 573-22zM908 0v1563h264V0H908zM455-300v111h545v-111H455z"/><glyph glyph-name="uni1E14" unicode="Ḕ" horiz-adv-x="1124" d="m275 1265 119 131V766l-62 79h552V635H332l62 78V79L275 210h720V0H129v1475h866v-210H275zm5 345v111h588v-111H280zm450 192H535l-301 198h220z"/><glyph glyph-name="uni1E15" unicode="ḕ" horiz-adv-x="1299" d="M230 446v187h743l-30-50v26q0 69-31 129.5t-94 98T658 874q-96 0-166.5-40.5T382.5 717 344 535q0-109 37-187.5t108.5-120T664 186q70 0 121 13t83.5 35.5 49 48.5 19.5 52h262q-6-67-44.5-130.5T1047 89.5t-167.5-82T655-23q-171 0-299 70T156.5 242 85 528q0 165 72.5 289T359 1010.5t296 69.5q172 0 297.5-70T1146 815.5t68-289.5q0-21-1-45t-3-35H230zm130 851v112h588v-112H360zm438 259H616l-267 262h210z"/><glyph glyph-name="uni1E16" unicode="Ḗ" horiz-adv-x="1124" d="m275 1265 119 131V766l-62 79h552V635H332l62 78V79L275 210h720V0H129v1475h866v-210H275zm5 345v111h588v-111H280zm142 192 276 198h220l-300-198H422z"/><glyph glyph-name="uni1E17" unicode="ḗ" horiz-adv-x="1299" d="M230 446v187h743l-30-50v26q0 69-31 129.5t-94 98T658 874q-96 0-166.5-40.5T382.5 717 344 535q0-109 37-187.5t108.5-120T664 186q70 0 121 13t83.5 35.5 49 48.5 19.5 52h262q-6-67-44.5-130.5T1047 89.5t-167.5-82T655-23q-171 0-299 70T156.5 242 85 528q0 165 72.5 289T359 1010.5t296 69.5q172 0 297.5-70T1146 815.5t68-289.5q0-21-1-45t-3-35H230zm130 851v112h588v-112H360zm144 263 238 262h211l-268-262H504z"/><glyph glyph-name="uni1E1C" unicode="Ḝ" horiz-adv-x="1124" d="m275 1265 119 131V766l-62 79h552V635H332l62 78V79L275 210h720V0H129v1475h866v-210H275zM684-82q35 0 69-15.5t56.5-48.5 22.5-86q0-64-38-105.5T696-399t-127-20q-60 0-118.5 15T369-373l53 99q17-11 61-27.5t96-16.5q57 0 96 23.5t39 67.5q0 37-20.5 53T643-158q-24 0-49.5-9T555-193l-102 29L524 0h115l-60-140-13 4q10 22 42.5 38T684-82zM302 1734h156q0-39 31-67t86-28q56 0 86.5 28t30.5 67h157q0-89-78.5-144T575 1535t-195 55-78 144z"/><glyph glyph-name="uni1E1D" unicode="ḝ" horiz-adv-x="1293" d="M762-82q35 0 69-15.5t56.5-48.5 22.5-86q0-64-38-105.5T774-399t-127-20q-60 0-118.5 15T447-373l53 99q17-11 61.5-27.5T657-318q57 0 96 23.5t39 67.5q0 37-20.5 53T721-158q-24 0-49.5-9T634-193l-105 29L600 0h120l-61-140-20 4q9 22 44.5 38T762-82zM230 446v187h743l-30-50v26q0 69-31 129.5t-94 98T658 874q-96 0-166.5-40.5T382.5 717 344 535q0-109 37-187.5t108.5-120T664 186q70 0 121 13t83.5 35.5 49 48.5 19.5 52h262q-6-67-44.5-130.5T1047 89.5t-167.5-82T655-23q-171 0-299 70T156.5 242 85 528q0 165 72.5 289T359 1010.5t296 69.5q172 0 297.5-70T1146 815.5t68-289.5q0-21-1-45t-3-35H230zm151 1049h156q0-61 31-101.5t86-40.5q56 0 86.5 40.5T771 1495h157q0-116-78.5-180.5T654 1250t-195 64.5-78 180.5z"/><glyph glyph-name="uni1E20" unicode="Ḡ" horiz-adv-x="1413" d="M708-22q-172 0-312.5 88T172 323 89 734q0 243 86 413t232.5 259.5T735 1496q150 0 254.5-49.5t170-127.5 95-164 29.5-160v-12h-256v12q0 52-18 102t-55 91-92 65-128 24q-99 0-185.5-55t-140-174.5T356 734q0-147 30-250t81.5-167 118-93.5T726 194q100 0 166.5 34t104 85 47.5 100v115H729v198h551V0h-152l-22 164q-7-18-32.5-49T1001 52.5 881.5-.5 708-22zM435 1610v111h588v-111H435z"/><glyph glyph-name="uni1E21" unicode="ḡ" horiz-adv-x="1247" d="M846 105q94-9 165-35t111-77.5 40-137.5q0-96-65-166T906.5-419 598-457q-266 0-409 76.5T46-173q0 37 9 67t22 50l241-35q-6-8-12-25.5t-6-42.5q0-62 83.5-89.5T606-276q102 0 170.5 14t104 40 35.5 61q0 52-47 67T757-74L354-37Q246-26 176.5 27T107 167q0 53 28.5 98t65.5 75.5 63 37.5l150-74q-21-3-49.5-27T336 220q0-31 28-51.5T472 140zm119 957h236l-96-412q-27-116-87-208T858 297t-252-53q-158 0-272.5 51.5T157 440.5 95 656q0 125 63.5 220.5t175 149.5 252.5 54q114 0 205-37.5T936.5 945 995 817l-59-11zM605 447q77 0 133 25t87 72.5T856 660q0 67-31 115t-87 73.5T606 874q-74 0-131-26t-89.5-74.5T353 658t31.5-114.5 88-72T605 447zm-307 850v112h588v-112H298z"/><glyph glyph-name="uni1E24" unicode="Ḥ" horiz-adv-x="1361" d="M1233 1475V0H969v720l119-90H274l119 88V0H129v1475h264V748l-119 92h814l-119-91v726h264zM681-389q-64 0-111 34.5T523-259q0 62 47.5 95.5T681-130t110-33.5 47-95.5-47-96-110-34z"/><glyph glyph-name="uni1E25" unicode="ḥ" horiz-adv-x="1269" d="M884 0v577q0 132-51.5 202.5T657 850q-83 0-141.5-32.5T426 727t-31-134l-96 51q0 127 57.5 225.5T516 1024t234 56q193 0 295-114.5T1147 647V0H884zM132 0v1563h263V0H132zm497-387q-64 0-111 34t-47 95q0 62 47.5 96T629-128t110-34 47-96-47-95.5T629-387z"/><glyph glyph-name="uni1E2A" unicode="Ḫ" horiz-adv-x="1361" d="M1233 1475V0H969v720l119-90H274l119 88V0H129v1475h264V748l-119 92h814l-119-91v726h264zM407-121h156q0-61 31.5-95t86.5-34 86 34 31 95h156q0-116-78-174t-195-58q-118 0-196 58t-78 174z"/><glyph glyph-name="uni1E2B" unicode="ḫ" horiz-adv-x="1269" d="M884 0v577q0 132-51.5 202.5T657 850q-83 0-141.5-32.5T426 727t-31-134l-96 51q0 127 57.5 225.5T516 1024t234 56q193 0 295-114.5T1147 647V0H884zM132 0v1563h263V0H132zm220-121h156q0-61 31.5-95t86.5-34 86 34 31 95h156q0-116-78-174t-195-58q-118 0-196 58t-78 174z"/><glyph glyph-name="uni1E2E" unicode="Ḯ" horiz-adv-x="522" d="M131 0v1475h260V0H131zM94 1554q-59 0-102.5 31.5T-52 1674t43.5 88.5T94 1794q57 0 101-31.5t44-88.5-44-88.5T94 1554zm340 0q-59 0-102 31.5t-43 88.5 43 88.5 102 31.5q58 0 101.5-31.5T579 1674t-43.5-88.5T434 1554zm-320 302 276 198h220l-300-198H114z"/><glyph glyph-name="uni1E2F" unicode="ḯ" horiz-adv-x="514" d="M127 0v1062h260V0H127zM87 1254q-59 0-102.5 31.5T-59 1374t43.5 88T87 1493q57 0 101-31t44-88q0-58-44-89t-101-31zm340 0q-59 0-102 31.5t-43 88.5 43 88 102 31q58 0 101.5-31t43.5-88q0-58-43.5-89T427 1254zm-319 397 238 262h211l-268-262H108z"/><glyph glyph-name="uni1E36" unicode="Ḷ" horiz-adv-x="1031" d="M129 0v1475h264V79L274 218h678V0H129zm431-389q-64 0-111 34.5T402-259q0 62 47.5 95.5T560-130t110-33.5 47-95.5-47-96-110-34z"/><glyph glyph-name="uni1E37" unicode="ḷ" horiz-adv-x="543" d="M406 1563V0H147v1563h259zM276-387q-64 0-111 34t-47 95q0 62 47.5 96T276-128t110-34 47-96-47-95.5T276-387z"/><glyph glyph-name="uni1E3A" unicode="Ḻ" horiz-adv-x="1031" d="M129 0v1475h264V79L274 218h678V0H129zm118-288v111h625v-111H247z"/><glyph glyph-name="uni1E3B" unicode="ḻ" horiz-adv-x="543" d="M406 1563V0H147v1563h259zM0-288v111h545v-111H0z"/><glyph glyph-name="uni1E42" unicode="Ṃ" horiz-adv-x="1766" d="M1175 1475h448V0h-251v1307l6-2L1061 0H709L388 1306l6 3V0H143v1475h448L890 144h-17zM883-389q-64 0-111 34.5T725-259q0 62 47.5 95.5T883-130t110-33.5 47-95.5-47-96-110-34z"/><glyph glyph-name="uni1E43" unicode="ṃ" horiz-adv-x="1833" d="M792 0v609q0 39-5 81.5T765 769t-52.5 58.5T615 850q-60 0-101.5-24.5t-68-65-38.5-92T395 563l-88 59q0 131 49 234t139.5 163.5T710 1080q128 0 203-53.5T1020.5 882t32.5-204V0H792zM132 0v1062h263V0H132zm1316 0v611q0 42-5 84.5t-22 77-53 56-98 21.5q-61 0-102.5-24t-66.5-64-36.5-90-11.5-100l-88 58q0 127 48 229t138 161.5 214 59.5q125 0 201-51t110.5-139.5T1711 688V0h-263zM934-387q-64 0-111 34t-47 95q0 62 47.5 96T934-128t110-34 47-96-47-95.5T934-387z"/><glyph glyph-name="uni1E44" unicode="Ṅ" horiz-adv-x="1427" d="M385 0H129v1475h413l539-1368-39-11v1379h257V0H880L343 1365l42 10V0zm345 1565q-63 0-110.5 34.5T572 1695q0 62 47.5 96t110.5 34q64 0 111-34t47-96-47-96-111-34z"/><glyph glyph-name="uni1E45" unicode="ṅ" horiz-adv-x="1268" d="M883 0v597q0 72-20.5 129.5t-70 90.5T656 850q-76 0-135-36.5t-92.5-100T395 567l-89 55q0 133 60.5 236.5T529 1021t226 59q128 0 215.5-50t132-142 44.5-216V0H883zM132 0v1062h263V0H132zm523 1258q-63 0-110.5 34t-47.5 95q0 62 47.5 96t110.5 34q64 0 111-34t47-96-47-95.5-111-33.5z"/><glyph glyph-name="uni1E46" unicode="Ṇ" horiz-adv-x="1427" d="M385 0H129v1475h413l539-1368-39-11v1379h257V0H880L343 1365l42 10V0zm344-389q-64 0-111 34.5T571-259q0 62 47.5 95.5T729-130t110-33.5 47-95.5-47-96-110-34z"/><glyph glyph-name="uni1E47" unicode="ṇ" horiz-adv-x="1268" d="M883 0v597q0 72-20.5 129.5t-70 90.5T656 850q-76 0-135-36.5t-92.5-100T395 567l-89 55q0 133 60.5 236.5T529 1021t226 59q128 0 215.5-50t132-142 44.5-216V0H883zM132 0v1062h263V0H132zm501-387q-64 0-111 34t-47 95q0 62 47.5 96T633-128t110-34 47-96-47-95.5T633-387z"/><glyph glyph-name="uni1E48" unicode="Ṉ" horiz-adv-x="1427" d="M385 0H129v1475h413l539-1368-39-11v1379h257V0H880L343 1365l42 10V0zm31-288v111h625v-111H416z"/><glyph glyph-name="uni1E49" unicode="ṉ" horiz-adv-x="1268" d="M883 0v597q0 72-20.5 129.5t-70 90.5T656 850q-76 0-135-36.5t-92.5-100T395 567l-89 55q0 133 60.5 236.5T529 1021t226 59q128 0 215.5-50t132-142 44.5-216V0H883zM132 0v1062h263V0H132zm225-288v111h545v-111H357z"/><glyph glyph-name="uni1E4C" unicode="Ṍ" horiz-adv-x="1383" d="M965 1689q-2-28-17-63t-48-61-87-26q-42 0-73 17t-55 35q-21 15-44 28t-53 13q-38 0-52-22.5t-16-45.5h-94q2 31 20.5 66.5t53.5 61 88 25.5q43 0 72.5-16t51.5-33 45.5-31 49.5-14q39 0 51 21t14 45h93zm-382 92 248 160h148l-260-160H583zM691-20q-129 0-236.5 51t-187 148.5-123 238.5T101 739t43.5 320.5 123 237T455 1443t236 50q129 0 237-50t187.5-146.5 123-237T1282 739t-43.5-321-123-238.5T928 31 691-20zm0 154q123 0 217 67t147 201.5 53 336.5q0 203-53.5 336T907 1273t-216 65q-121 0-215.5-65t-148-198T274 739t53.5-337.5 148-201T691 134z"/><glyph glyph-name="uni1E4D" unicode="ṍ" horiz-adv-x="1308" d="M654-21q-168 0-296 70.5T157.5 245 85 531q0 162 72.5 285.5T358 1010t296 70 296-70 200.5-193.5T1223 531q0-161-72.5-286T950 49.5 654-21zm0 215q91 0 159 42t106 117.5T957 531t-38 176.5T813 823t-159 41q-90 0-158.5-41T389 707.5 351 531t38-177.5T495.5 236 654 194zm318 1260q-1-44-20.5-91t-60.5-80-106-33q-51 0-86 20t-58 39q-22 19-44.5 33t-51.5 14q-37 0-52.5-24.5T476 1273H337q2 45 23.5 93t64.5 81 109 33q48 0 82.5-20t56.5-39q23-19 47-34t50-15q35 0 49 24t15 58h138zm-470 110 276 198h220l-300-198H502z"/><glyph glyph-name="uni1E4E" unicode="Ṏ" horiz-adv-x="1455" d="M727-22q-134 0-250 50T273.5 175.5t-136 239T89 739t48.5 324T273 1300.5t203.5 146T727 1496q136 0 252.5-49.5t203.5-146 135.5-237.5 48.5-324-49-324.5-136.5-239T978 28 727-22zm0 217q104 0 188 56.5T1048.5 428t49.5 311q0 192-50 310.5T914 1223t-187 55q-101 0-185.5-55t-135-173.5T356 739t50.5-312 135-176T727 195zm324 1554q-1-44-20.5-91.5T970 1577t-106-33q-51 0-86 20t-58 40q-22 19-44.5 33t-51.5 14q-37 0-52.5-24.5T555 1567H416q2 46 23.5 94t64.5 80.5 109 32.5q48 0 82.5-19.5T752 1716q23-19 47-34t50-15q35 0 49 23.5t15 58.5h138zm-549 100q-58 0-101.5 31.5T357 1969t43.5 88 101.5 31q59 0 102.5-31t43.5-88q0-58-43.5-89T502 1849zm452 0q-59 0-102 31.5t-43 88.5 43 88 102 31q58 0 101.5-31t43.5-88q0-58-43.5-89T954 1849z"/><glyph glyph-name="uni1E4F" unicode="ṏ" horiz-adv-x="1308" d="M654-21q-168 0-296 70.5T157.5 245 85 531q0 162 72.5 285.5T358 1010t296 70 296-70 200.5-193.5T1223 531q0-161-72.5-286T950 49.5 654-21zm0 215q91 0 159 42t106 117.5T957 531t-38 176.5T813 823t-159 41q-90 0-158.5-41T389 707.5 351 531t38-177.5T495.5 236 654 194zm318 1260q-1-44-20.5-91t-60.5-80-106-33q-51 0-86 20t-58 39q-22 19-44.5 33t-51.5 14q-37 0-52.5-24.5T476 1273H337q2 45 23.5 93t64.5 81 109 33q48 0 82.5-20t56.5-39q23-19 47-34t50-15q35 0 49 24t15 58h138zm-543 103q-58 0-101.5 31.5T284 1677t43.5 88 101.5 31q59 0 102.5-31t43.5-88q0-58-43.5-89T429 1557zm452 0q-59 0-102 31.5t-43 88.5 43 88 102 31q58 0 101.5-31t43.5-88q0-58-43.5-89T881 1557z"/><glyph glyph-name="uni1E50" unicode="Ṑ" horiz-adv-x="1455" d="M727-22q-134 0-250 50T273.5 175.5t-136 239T89 739t48.5 324T273 1300.5t203.5 146T727 1496q136 0 252.5-49.5t203.5-146 135.5-237.5 48.5-324-49-324.5-136.5-239T978 28 727-22zm0 217q104 0 188 56.5T1048.5 428t49.5 311q0 192-50 310.5T914 1223t-187 55q-101 0-185.5-55t-135-173.5T356 739t50.5-312 135-176T727 195zM433 1610v111h588v-111H433zm450 192H688l-301 198h220z"/><glyph glyph-name="uni1E51" unicode="ṑ" horiz-adv-x="1308" d="M654-21q-168 0-296 70.5T157.5 245 85 531q0 162 72.5 285.5T358 1010t296 70 296-70 200.5-193.5T1223 531q0-161-72.5-286T950 49.5 654-21zm0 215q91 0 159 42t106 117.5T957 531t-38 176.5T813 823t-159 41q-90 0-158.5-41T389 707.5 351 531t38-177.5T495.5 236 654 194zM361 1297v112h588v-112H361zm438 259H617l-267 262h210z"/><glyph glyph-name="uni1E52" unicode="Ṓ" horiz-adv-x="1455" d="M727-22q-134 0-250 50T273.5 175.5t-136 239T89 739t48.5 324T273 1300.5t203.5 146T727 1496q136 0 252.5-49.5t203.5-146 135.5-237.5 48.5-324-49-324.5-136.5-239T978 28 727-22zm0 217q104 0 188 56.5T1048.5 428t49.5 311q0 192-50 310.5T914 1223t-187 55q-101 0-185.5-55t-135-173.5T356 739t50.5-312 135-176T727 195zM433 1610v111h588v-111H433zm142 192 276 198h220l-300-198H575z"/><glyph glyph-name="uni1E53" unicode="ṓ" horiz-adv-x="1308" d="M654-21q-168 0-296 70.5T157.5 245 85 531q0 162 72.5 285.5T358 1010t296 70 296-70 200.5-193.5T1223 531q0-161-72.5-286T950 49.5 654-21zm0 215q91 0 159 42t106 117.5T957 531t-38 176.5T813 823t-159 41q-90 0-158.5-41T389 707.5 351 531t38-177.5T495.5 236 654 194zM361 1297v112h588v-112H361zm144 263 238 262h211l-268-262H505z"/><glyph glyph-name="uni1E5A" unicode="Ṛ" horiz-adv-x="1246" d="M129 0v1475h568q223 0 335-102t112-300q0-116-44-197T993 751t-120-50q58-4 112-30t88.5-81.5T1108 440V141q0-47 8-86.5T1136 0H871q-10 18-17.5 55.5T846 141v268q0 91-51 138t-154 47H316l70 89V0H129zm257 705-70 99h327q65 0 117 30.5t82.5 85.5 30.5 129q0 108-62 162t-176 54H309l77 93V705zM638-389q-64 0-111 34.5T480-259q0 62 47.5 95.5T638-130t110-33.5 47-95.5-47-96-110-34z"/><glyph glyph-name="uni1E5B" unicode="ṛ" horiz-adv-x="881" d="M132 0v1062h263V709l-61 34q10 69 37 130.5t72 108 109 72.5 146 26q65 0 102.5-9.5T847 1055l-48-241q-10 7-40.5 17.5T677 842q-81 0-135.5-27.5t-86.5-74-46-102T395 528V0H132zm134-387q-64 0-111 34t-47 95q0 62 47.5 96T266-128t110-34 47-96-47-95.5T266-387z"/><glyph glyph-name="uni1E5E" unicode="Ṟ" horiz-adv-x="1246" d="M129 0v1475h568q223 0 335-102t112-300q0-116-44-197T993 751t-120-50q58-4 112-30t88.5-81.5T1108 440V141q0-47 8-86.5T1136 0H871q-10 18-17.5 55.5T846 141v268q0 91-51 138t-154 47H316l70 89V0H129zm257 705-70 99h327q65 0 117 30.5t82.5 85.5 30.5 129q0 108-62 162t-176 54H309l77 93V705zm-61-993v111h625v-111H325z"/><glyph glyph-name="uni1E5F" unicode="ṟ" horiz-adv-x="881" d="M132 0v1062h263V709l-61 34q10 69 37 130.5t72 108 109 72.5 146 26q65 0 102.5-9.5T847 1055l-48-241q-10 7-40.5 17.5T677 842q-81 0-135.5-27.5t-86.5-74-46-102T395 528V0H132zM-9-288v111h545v-111H-9z"/><glyph glyph-name="uni1E60" unicode="Ṡ" horiz-adv-x="1222" d="M610-22q-157 0-274 50T154 178.5 89 428v61h263v-56q0-120 65.5-179.5T611 194q129 0 197.5 43T877 375q0 69-46.5 117.5T703 578t-184 69q-116 36-211 93T156 884t-57 214 65.5 216 180 135.5T605 1496q153 0 269.5-48t182.5-143 66-237v-65H859v53q0 114-62 168.5T609 1279q-123 0-189-43t-66-137q0-70 45-117t123.5-81.5T701 831q133-44 230-99.5t150-138 53-209.5q0-130-65.5-220.5t-183-138T610-22zm3 1587q-63 0-110.5 34.5T455 1695q0 62 47.5 96t110.5 34q64 0 111-34t47-96-47-96-111-34z"/><glyph glyph-name="uni1E61" unicode="ṡ" horiz-adv-x="1127" d="M561-22q-95 0-180.5 21t-152 63-105 104.5T85 311v23h262v-18q0-65 59.5-97.5T569 186q56 0 105.5 12t80 37 30.5 64q0 63-64.5 90T518 438q-76 13-150 35t-134.5 59-97 92T100 758q0 105 62.5 176.5t168 108.5 232.5 37q122 0 227-40t169.5-115 64.5-181v-16H764v13q0 46-29 75t-75 43-97 14q-45 0-93-9.5t-80-33-32-65.5q0-40 33-65t92-41.5T619 629q73-12 147.5-33T903 540t100.5-91.5T1042 309q0-88-40-150T893.5 56.5 739-3 561-22zm3 1280q-63 0-110.5 34t-47.5 95q0 62 47.5 96t110.5 34q64 0 111-34t47-96-47-95.5-111-33.5z"/><glyph glyph-name="uni1E62" unicode="Ṣ" horiz-adv-x="1222" d="M610-22q-157 0-274 50T154 178.5 89 428v61h263v-56q0-120 65.5-179.5T611 194q129 0 197.5 43T877 375q0 69-46.5 117.5T703 578t-184 69q-116 36-211 93T156 884t-57 214 65.5 216 180 135.5T605 1496q153 0 269.5-48t182.5-143 66-237v-65H859v53q0 114-62 168.5T609 1279q-123 0-189-43t-66-137q0-70 45-117t123.5-81.5T701 831q133-44 230-99.5t150-138 53-209.5q0-130-65.5-220.5t-183-138T610-22zm2-367q-64 0-111 34.5T454-259q0 62 47.5 95.5T612-130t110-33.5 47-95.5-47-96-110-34z"/><glyph glyph-name="uni1E63" unicode="ṣ" horiz-adv-x="1127" d="M561-22q-95 0-180.5 21t-152 63-105 104.5T85 311v23h262v-18q0-65 59.5-97.5T569 186q56 0 105.5 12t80 37 30.5 64q0 63-64.5 90T518 438q-76 13-150 35t-134.5 59-97 92T100 758q0 105 62.5 176.5t168 108.5 232.5 37q122 0 227-40t169.5-115 64.5-181v-16H764v13q0 46-29 75t-75 43-97 14q-45 0-93-9.5t-80-33-32-65.5q0-40 33-65t92-41.5T619 629q73-12 147.5-33T903 540t100.5-91.5T1042 309q0-88-40-150T893.5 56.5 739-3 561-22zm6-365q-64 0-111 34t-47 95q0 62 47.5 96T567-128t110-34 47-96-47-95.5T567-387z"/><glyph glyph-name="uni1E64" unicode="Ṥ" horiz-adv-x="1173" d="m472 1545 260 167h154l-271-167H472zm115 260q-45 0-78 25.5t-33 68.5q0 44 33 69.5t78 25.5q44 0 77-25.5t33-69.5-33-69-77-25zm0-1825q-153 0-261.5 48.5T159 175t-58 244v68h171v-65q0-153 80-220.5T585 134q158 0 239 54t81 175q0 85-46.5 141.5t-128.5 96T539 673q-123 38-219.5 96t-152 143.5T112 1121q0 120 58.5 203T334 1450t244 43q147 0 255.5-45.5t168-138T1061 1077v-75H890v68q0 146-79 207.5T581 1339q-145 0-224-51t-79-167q0-87 48.5-143.5t132.5-96T651 806q131-43 225.5-97.5t145-135.5 50.5-204-58.5-210-167-133T587-20z"/><glyph glyph-name="uni1E65" unicode="ṥ" horiz-adv-x="1127" d="M561-22q-95 0-180.5 21t-152 63-105 104.5T85 311v23h262v-18q0-65 59.5-97.5T569 186q56 0 105.5 12t80 37 30.5 64q0 63-64.5 90T518 438q-76 13-150 35t-134.5 59-97 92T100 758q0 105 62.5 176.5t168 108.5 232.5 37q122 0 227-40t169.5-115 64.5-181v-16H764v13q0 46-29 75t-75 43-97 14q-45 0-93-9.5t-80-33-32-65.5q0-40 33-65t92-41.5T619 629q73-12 147.5-33T903 540t100.5-91.5T1042 309q0-88-40-150T893.5 56.5 739-3 561-22zM414 1213l238 262h211l-268-262H414zm175 391q-63 0-110.5 34t-47.5 95q0 62 47.5 96t110.5 34q64 0 111-34t47-96-47-95.5-111-33.5z"/><glyph glyph-name="uni1E66" unicode="Ṧ" horiz-adv-x="1222" d="M610-22q-157 0-274 50T154 178.5 89 428v61h263v-56q0-120 65.5-179.5T611 194q129 0 197.5 43T877 375q0 69-46.5 117.5T703 578t-184 69q-116 36-211 93T156 884t-57 214 65.5 216 180 135.5T605 1496q153 0 269.5-48t182.5-143 66-237v-65H859v53q0 114-62 168.5T609 1279q-123 0-189-43t-66-137q0-70 45-117t123.5-81.5T701 831q133-44 230-99.5t150-138 53-209.5q0-130-65.5-220.5t-183-138T610-22zM290 1752h174l182-159h-71l181 159h176l-232-198H521zm323 90q-63 0-110.5 34.5T455 1972q0 62 47.5 96t110.5 34q64 0 111-34t47-96-47-96-111-34z"/><glyph glyph-name="uni1E67" unicode="ṧ" horiz-adv-x="1127" d="M561-22q-95 0-180.5 21t-152 63-105 104.5T85 311v23h262v-18q0-65 59.5-97.5T569 186q56 0 105.5 12t80 37 30.5 64q0 63-64.5 90T518 438q-76 13-150 35t-134.5 59-97 92T100 758q0 105 62.5 176.5t168 108.5 232.5 37q122 0 227-40t169.5-115 64.5-181v-16H764v13q0 46-29 75t-75 43-97 14q-45 0-93-9.5t-80-33-32-65.5q0-40 33-65t92-41.5T619 629q73-12 147.5-33T903 540t100.5-91.5T1042 309q0-88-40-150T893.5 56.5 739-3 561-22zM247 1475h171l181-213h-72l182 213h173l-231-262H477zm319 90q-63 0-110.5 34.5T408 1695q0 62 47.5 96t110.5 34q64 0 111-34t47-96-47-96-111-34z"/><glyph glyph-name="uni1E68" unicode="Ṩ" horiz-adv-x="1222" d="M610-22q-157 0-274 50T154 178.5 89 428v61h263v-56q0-120 65.5-179.5T611 194q129 0 197.5 43T877 375q0 69-46.5 117.5T703 578t-184 69q-116 36-211 93T156 884t-57 214 65.5 216 180 135.5T605 1496q153 0 269.5-48t182.5-143 66-237v-65H859v53q0 114-62 168.5T609 1279q-123 0-189-43t-66-137q0-70 45-117t123.5-81.5T701 831q133-44 230-99.5t150-138 53-209.5q0-130-65.5-220.5t-183-138T610-22zm2-367q-64 0-111 34.5T454-259q0 62 47.5 95.5T612-130t110-33.5 47-95.5-47-96-110-34zm1 1954q-63 0-110.5 34.5T455 1695q0 62 47.5 96t110.5 34q64 0 111-34t47-96-47-96-111-34z"/><glyph glyph-name="uni1E69" unicode="ṩ" horiz-adv-x="1127" d="M561-22q-95 0-180.5 21t-152 63-105 104.5T85 311v23h262v-18q0-65 59.5-97.5T569 186q56 0 105.5 12t80 37 30.5 64q0 63-64.5 90T518 438q-76 13-150 35t-134.5 59-97 92T100 758q0 105 62.5 176.5t168 108.5 232.5 37q122 0 227-40t169.5-115 64.5-181v-16H764v13q0 46-29 75t-75 43-97 14q-45 0-93-9.5t-80-33-32-65.5q0-40 33-65t92-41.5T619 629q73-12 147.5-33T903 540t100.5-91.5T1042 309q0-88-40-150T893.5 56.5 739-3 561-22zm6-365q-64 0-111 34t-47 95q0 62 47.5 96T567-128t110-34 47-96-47-95.5T567-387zm-3 1645q-63 0-110.5 34t-47.5 95q0 62 47.5 96t110.5 34q64 0 111-34t47-96-47-95.5-111-33.5z"/><glyph glyph-name="uni1E6C" unicode="Ṭ" horiz-adv-x="1145" d="M1074 1265H607l97 131V0H440v1396l102-131H71v210h1003v-210zM574-389q-64 0-111 34.5T416-259q0 62 47.5 95.5T574-130t110-33.5 47-95.5-47-96-110-34z"/><glyph glyph-name="uni1E6D" unicode="ṭ" horiz-adv-x="933" d="M620-20q-57 0-116 11T396 32t-79 88-30 153v579H36v210h102q52 0 82 4.5t44 21.5 18.5 53.5T287 1243v169h264v-350h316V852H551V353q0-74 18-119t85-45q32 0 60.5 6t42.5 12V1q-19-7-55-14t-82-7zm-88-367q-64 0-111 34t-47 95q0 62 47.5 96T532-128t110-34 47-96-47-95.5T532-387z"/><glyph glyph-name="uni1E6E" unicode="Ṯ" horiz-adv-x="1145" d="M1074 1265H607l97 131V0H440v1396l102-131H71v210h1003v-210zM262-288v111h625v-111H262z"/><glyph glyph-name="uni1E6F" unicode="ṯ" horiz-adv-x="933" d="M620-20q-57 0-116 11T396 32t-79 88-30 153v579H36v210h102q52 0 82 4.5t44 21.5 18.5 53.5T287 1243v169h264v-350h316V852H551V353q0-74 18-119t85-45q32 0 60.5 6t42.5 12V1q-19-7-55-14t-82-7zM257-288v111h545v-111H257z"/><glyph glyph-name="uni1E78" unicode="Ṹ" horiz-adv-x="1332" d="M1204 536q0-282-143.5-420T665-22q-250 0-393 138T129 536v939h264V534q0-178 66.5-259T665 194q141 0 208 81t67 259v941h264V536zM990 1749q-1-44-20.5-91.5T909 1577t-106-33q-51 0-86 20t-58 40q-22 19-44.5 33t-51.5 14q-37 0-52.5-24.5T494 1567H355q2 46 23.5 94t64.5 80.5 109 32.5q48 0 82.5-19.5T691 1716q23-19 47-34t50-15q35 0 49 23.5t15 58.5h138zm-477 107 276 198h220l-300-198H513z"/><glyph glyph-name="uni1E79" unicode="ṹ" horiz-adv-x="1245" d="M514-20q-113 0-187.5 38t-117 100-60 137T132 405v657h264V473q0-71 17-131.5t62.5-97.5T604 207q79 0 136 46.5T828.5 371 860 515l90-60q0-97-30-182.5T833 121 695.5 17.5 514-20zM860 0v1062h263V0H860zm70 1454q-1-44-20.5-91t-60.5-80-106-33q-51 0-86 20t-58 39q-22 19-44.5 33t-51.5 14q-37 0-52.5-24.5T434 1273H295q2 45 23.5 93t64.5 81 109 33q48 0 82.5-20t56.5-39q23-19 47-34t50-15q35 0 49 24t15 58h138zm-464 127 238 262h211l-268-262H466z"/><glyph glyph-name="uni1E7A" unicode="Ṻ" horiz-adv-x="1332" d="M1204 536q0-282-143.5-420T665-22q-250 0-393 138T129 536v939h264V534q0-178 66.5-259T665 194q141 0 208 81t67 259v941h264V536zM371 1610v111h588v-111H371zm69 185q-58 0-101.5 31.5T295 1915t43.5 88 101.5 31q59 0 102.5-31t43.5-88q0-58-43.5-89T440 1795zm452 0q-59 0-102 31.5t-43 88.5 43 88 102 31q58 0 101.5-31t43.5-88q0-58-43.5-89T892 1795z"/><glyph glyph-name="uni1E7B" unicode="ṻ" horiz-adv-x="1245" d="M514-20q-113 0-187.5 38t-117 100-60 137T132 405v657h264V473q0-71 17-131.5t62.5-97.5T604 207q79 0 136 46.5T828.5 371 860 515l90-60q0-97-30-182.5T833 121 695.5 17.5 514-20zM860 0v1062h263V0H860zM320 1297v112h588v-112H320zm67 304q-58 0-101.5 31.5T242 1721t43.5 88 101.5 31q59 0 102.5-31t43.5-88q0-58-43.5-89T387 1601zm452 0q-59 0-102 31.5t-43 88.5 43 88 102 31q58 0 101.5-31t43.5-88q0-58-43.5-89T839 1601z"/><glyph glyph-name="Wgrave" unicode="Ẁ" horiz-adv-x="1834" d="M297 0 75 1475h272L517 69l-38 2 272 1404h332L1354 71l-38-2 170 1406h273L1535 0h-404L903 1284h28L703 0H297zm779 1556H881l-301 198h220z"/><glyph glyph-name="wgrave" unicode="ẁ" horiz-adv-x="1605" d="M988 0 741 1062h201l241-979h-43l154 979h273L1349 0H988zM256 0 37 1062h273L465 83h-43l239 979h201L619 0H256zm694 1209H768l-267 262h210z"/><glyph glyph-name="Wacute" unicode="Ẃ" horiz-adv-x="1834" d="M297 0 75 1475h272L517 69l-38 2 272 1404h332L1354 71l-38-2 170 1406h273L1535 0h-404L903 1284h28L703 0H297zm471 1556 276 198h220l-300-198H768z"/><glyph glyph-name="wacute" unicode="ẃ" horiz-adv-x="1605" d="M988 0 741 1062h201l241-979h-43l154 979h273L1349 0H988zM256 0 37 1062h273L465 83h-43l239 979h201L619 0H256zm400 1213 238 262h211l-268-262H656z"/><glyph glyph-name="Wdieresis" unicode="Ẅ" horiz-adv-x="1834" d="M297 0 75 1475h272L517 69l-38 2 272 1404h332L1354 71l-38-2 170 1406h273L1535 0h-404L903 1284h28L703 0H297zm398 1549q-58 0-101.5 31.5T550 1669t43.5 88 101.5 31q59 0 102.5-31t43.5-88q0-58-43.5-89T695 1549zm452 0q-59 0-102 31.5t-43 88.5 43 88 102 31q58 0 101.5-31t43.5-88q0-58-43.5-89t-101.5-31z"/><glyph glyph-name="wdieresis" unicode="ẅ" horiz-adv-x="1605" d="M988 0 741 1062h201l241-979h-43l154 979h273L1349 0H988zM256 0 37 1062h273L465 83h-43l239 979h201L619 0H256zm322 1254q-58 0-101.5 31.5T433 1374t43.5 88 101.5 31q59 0 102.5-31t43.5-88q0-58-43.5-89T578 1254zm452 0q-59 0-102 31.5t-43 88.5 43 88 102 31q58 0 101.5-31t43.5-88q0-58-43.5-89t-101.5-31z"/><glyph glyph-name="uni1E8F" unicode="ẏ" horiz-adv-x="1096" d="M201-456q-47 0-84 4.5T71-443v205q13-6 44.5-9.5T181-251q55 0 95.5 22t69.5 60.5T392-79l23 67L49 1062h275l251-886h-32l245 886h270L686-65q-39-117-94.5-205T444-407t-243-49zm349 1714q-63 0-110.5 34t-47.5 95q0 62 47.5 96t110.5 34q64 0 111-34t47-96-47-95.5-111-33.5z"/><glyph glyph-name="uni1E92" unicode="Ẓ" horiz-adv-x="1147" d="M389 210h655V0H93v183l667 1083 2-1H139v210h914v-180L389 213v-3zm188-595q-64 0-111 34.5T419-255q0 62 47.5 95.5T577-126t110-33.5 47-95.5-47-96-110-34z"/><glyph glyph-name="uni1E93" unicode="ẓ" horiz-adv-x="1009" d="M349 214h595V0H65v203l583 654 5-9H87v214h846V859L354 207zm164-601q-64 0-111 34t-47 95q0 62 47.5 96T513-128t110-34 47-96-47-95.5T513-387z"/><glyph glyph-name="uni1E97" unicode="ẗ" horiz-adv-x="933" d="M620-20q-57 0-116 11T396 32t-79 88-30 153v579H36v210h102q52 0 82 4.5t44 21.5 18.5 53.5T287 1243v169h264v-350h316V852H551V353q0-74 18-119t85-45q32 0 60.5 6t42.5 12V1q-19-7-55-14t-82-7zM207 1475q-58 0-101.5 31.5T62 1595t43.5 88 101.5 31q59 0 102.5-31t43.5-88q0-58-43.5-89T207 1475zm452 0q-59 0-102 31.5t-43 88.5 43 88 102 31q58 0 101.5-31t43.5-88q0-58-43.5-89T659 1475z"/><glyph glyph-name="uni1E9E" unicode="ẞ" horiz-adv-x="1315" d="M129 0v1108q0 127 51.5 208t142 120 206.5 39h597v-222L783 893q13 5 34 8t43 3q95 0 179-47t135.5-145.5T1226 455q0-166-68.5-269.5t-186-151T707-13q-74 0-126 11t-74 20l5 214q18-8 76.5-21.5T711 197q70 0 126 28t90 87.5T961 466q0 95-31.5 153T845 703t-116 26q-32 0-55-8.5T638 707L489 879l353 386H562q-87 0-128-49.5T393 1076V0H129z"/><glyph glyph-name="uni1EA0" unicode="Ạ" horiz-adv-x="1301" d="m63 0 381 1477h416L1238 0H967L651 1314h2L334 0H63zm246 359v211h686V359H309zm341-748q-64 0-111 34.5T492-259q0 62 47.5 95.5T650-130t110-33.5 47-95.5-47-96-110-34z"/><glyph glyph-name="uni1EA1" unicode="ạ" horiz-adv-x="1243" d="M496-22q-119 0-209 37.5T146 124 95 295q0 109 59.5 179.5t160.5 109T539 633q182 18 254.5 34.5T866 721v2q0 70-63 108t-178 38q-121 0-185.5-42.5T375 692H115q0 125 66.5 211.5T364 1035t263 45q137 0 251-41t183-124 69-207V224q0-38 2.5-74.5T1143 84q10-32 24-54t22-30H929q-7 7-19.5 27.5T887 75q-10 30-15 64.5t-5 76.5l52-36q-30-61-91.5-106.5T681 3 496-22zm64 207q82 0 152 28t113 86.5T868 450v142l64-72q-64-24-154-39.5T596 456q-118-11-177.5-41T359 317q0-66 50-99t151-33zm51-572q-64 0-111 34t-47 95q0 62 47.5 96T611-128t110-34 47-96-47-95.5T611-387z"/><glyph glyph-name="uni1EA2" unicode="Ả" horiz-adv-x="1301" d="m63 0 381 1477h416L1238 0H967L651 1314h2L334 0H63zm246 359v211h686V359H309zm130 1432q111 0 201-8.5t143.5-36T837 1661q0-49-36-80.5t-97-46.5-136-15l-28 72q33 2 72 7.5t67 18 28 34.5q0 36-71.5 45t-196.5 9v86z"/><glyph glyph-name="uni1EA3" unicode="ả" horiz-adv-x="1243" d="M496-22q-119 0-209 37.5T146 124 95 295q0 109 59.5 179.5t160.5 109T539 633q182 18 254.5 34.5T866 721v2q0 70-63 108t-178 38q-121 0-185.5-42.5T375 692H115q0 125 66.5 211.5T364 1035t263 45q137 0 251-41t183-124 69-207V224q0-38 2.5-74.5T1143 84q10-32 24-54t22-30H929q-7 7-19.5 27.5T887 75q-10 30-15 64.5t-5 76.5l52-36q-30-61-91.5-106.5T681 3 496-22zm64 207q82 0 152 28t113 86.5T868 450v142l64-72q-64-24-154-39.5T596 456q-118-11-177.5-41T359 317q0-66 50-99t151-33zM437 1506q111 0 201-8.5t143.5-36T835 1376q0-50-36-81.5t-97-46.5-136-15l-28 73q33 2 72 7t67 18 28 35q0 35-71.5 44.5T437 1420v86z"/><glyph glyph-name="uni1EA4" unicode="Ấ" horiz-adv-x="1301" d="m63 0 381 1477h416L1238 0H967L651 1314h2L334 0H63zm246 359v211h686V359H309zm21 1195 231 198h180l231-198H797l-182 158h72l-182-158H330zm533 154 222 199h183l-237-199H863z"/><glyph glyph-name="uni1EA5" unicode="ấ" horiz-adv-x="1243" d="M496-22q-119 0-209 37.5T146 124 95 295q0 109 59.5 179.5t160.5 109T539 633q182 18 254.5 34.5T866 721v2q0 70-63 108t-178 38q-121 0-185.5-42.5T375 692H115q0 125 66.5 211.5T364 1035t263 45q137 0 251-41t183-124 69-207V224q0-38 2.5-74.5T1143 84q10-32 24-54t22-30H929q-7 7-19.5 27.5T887 75q-10 30-15 64.5t-5 76.5l52-36q-30-61-91.5-106.5T681 3 496-22zm64 207q82 0 152 28t113 86.5T868 450v142l64-72q-64-24-154-39.5T596 456q-118-11-177.5-41T359 317q0-66 50-99t151-33zM323 1213l230 262h174l231-262H785l-182 213h72l-181-213H323zm473 220 192 263h179l-214-263H796z"/><glyph glyph-name="uni1EA6" unicode="Ầ" horiz-adv-x="1301" d="m63 0 381 1477h416L1238 0H967L651 1314h2L334 0H63zm246 359v211h686V359H309zm24 1195 231 198h179l232-198H799l-181 158h71l-182-158H333zm790 154H955l-237 199h183z"/><glyph glyph-name="uni1EA7" unicode="ầ" horiz-adv-x="1243" d="M496-22q-119 0-209 37.5T146 124 95 295q0 109 59.5 179.5t160.5 109T539 633q182 18 254.5 34.5T866 721v2q0 70-63 108t-178 38q-121 0-185.5-42.5T375 692H115q0 125 66.5 211.5T364 1035t263 45q137 0 251-41t183-124 69-207V224q0-38 2.5-74.5T1143 84q10-32 24-54t22-30H929q-7 7-19.5 27.5T887 75q-10 30-15 64.5t-5 76.5l52-36q-30-61-91.5-106.5T681 3 496-22zm64 207q82 0 152 28t113 86.5T868 450v142l64-72q-64-24-154-39.5T596 456q-118-11-177.5-41T359 317q0-66 50-99t151-33zM325 1213l230 262h174l231-262H787l-182 213h72l-181-213H325zm709 220H876l-213 263h179z"/><glyph glyph-name="uni1EA8" unicode="Ẩ" horiz-adv-x="1301" d="m63 0 381 1477h416L1238 0H967L651 1314h2L334 0H63zm246 359v211h686V359H309zm23 1195 231 198h179l232-198H798l-181 158h71l-182-158H332zm427 422q111 0 201-8.5t144-36 54-85.5q0-50-36.5-81.5T1024 1718t-135-15l-29 73q34 1 72.5 6.5T999 1801t28 35q0 35-71 44.5t-197 9.5v86z"/><glyph glyph-name="uni1EA9" unicode="ẩ" horiz-adv-x="1243" d="M496-22q-119 0-209 37.5T146 124 95 295q0 109 59.5 179.5t160.5 109T539 633q182 18 254.5 34.5T866 721v2q0 70-63 108t-178 38q-121 0-185.5-42.5T375 692H115q0 125 66.5 211.5T364 1035t263 45q137 0 251-41t183-124 69-207V224q0-38 2.5-74.5T1143 84q10-32 24-54t22-30H929q-7 7-19.5 27.5T887 75q-10 30-15 64.5t-5 76.5l52-36q-30-61-91.5-106.5T681 3 496-22zm64 207q82 0 152 28t113 86.5T868 450v142l64-72q-64-24-154-39.5T596 456q-118-11-177.5-41T359 317q0-66 50-99t151-33zM324 1213l230 262h174l231-262H786l-182 213h72l-181-213H324zm543 218-26 65q30 2 65.5 7t61.5 16.5 26 31.5q0 32-65.5 41t-180.5 9v77q101 0 183.5-7.5t131-32.5 48.5-78q0-45-33.5-73.5t-88.5-42-122-13.5z"/><glyph glyph-name="uni1EAA" unicode="Ẫ" horiz-adv-x="1301" d="m63 0 381 1477h416L1238 0H967L651 1314h2L334 0H63zm246 359v211h686V359H309zm22 1195 231 198h179l232-198H797l-181 158h71l-182-158H331zm645 472q-1-44-20.5-91.5T895 1854t-106-33q-51 0-86 20t-58 40q-22 19-44.5 33t-51.5 14q-37 0-52.5-24.5T480 1844H341q2 46 23.5 94t64.5 80.5 109 32.5q48 0 82.5-19.5T677 1993q23-19 47-34t50-15q35 0 49 23.5t15 58.5h138z"/><glyph glyph-name="uni1EAB" unicode="ẫ" horiz-adv-x="1243" d="M496-22q-119 0-209 37.5T146 124 95 295q0 109 59.5 179.5t160.5 109T539 633q182 18 254.5 34.5T866 721v2q0 70-63 108t-178 38q-121 0-185.5-42.5T375 692H115q0 125 66.5 211.5T364 1035t263 45q137 0 251-41t183-124 69-207V224q0-38 2.5-74.5T1143 84q10-32 24-54t22-30H929q-7 7-19.5 27.5T887 75q-10 30-15 64.5t-5 76.5l52-36q-30-61-91.5-106.5T681 3 496-22zm64 207q82 0 152 28t113 86.5T868 450v142l64-72q-64-24-154-39.5T596 456q-118-11-177.5-41T359 317q0-66 50-99t151-33zM324 1213l230 262h174l231-262H786l-182 213h72l-181-213H324zm449 333q-53 0-87 18.5t-56 39.5q-21 19-42 33.5t-51 14.5q-37 0-54-24.5t-19-58.5H326q1 45 23 93t65 81 108 33q49 0 83-20t57-39 47-34 50-15q34 0 48 24t15 58h138q0-44-20-91t-60.5-80-106.5-33z"/><glyph glyph-name="uni1EAC" unicode="Ậ" horiz-adv-x="1301" d="m63 0 381 1477h416L1238 0H967L651 1314h2L334 0H63zm246 359v211h686V359H309zm341-748q-64 0-111 34.5T492-259q0 62 47.5 95.5T650-130t110-33.5 47-95.5-47-96-110-34zM331 1554l231 198h179l232-198H797l-181 158h71l-182-158H331z"/><glyph glyph-name="uni1EAD" unicode="ậ" horiz-adv-x="1243" d="M496-22q-119 0-209 37.5T146 124 95 295q0 109 59.5 179.5t160.5 109T539 633q182 18 254.5 34.5T866 721v2q0 70-63 108t-178 38q-121 0-185.5-42.5T375 692H115q0 125 66.5 211.5T364 1035t263 45q137 0 251-41t183-124 69-207V224q0-38 2.5-74.5T1143 84q10-32 24-54t22-30H929q-7 7-19.5 27.5T887 75q-10 30-15 64.5t-5 76.5l52-36q-30-61-91.5-106.5T681 3 496-22zm64 207q82 0 152 28t113 86.5T868 450v142l64-72q-64-24-154-39.5T596 456q-118-11-177.5-41T359 317q0-66 50-99t151-33zm51-572q-64 0-111 34t-47 95q0 62 47.5 96T611-128t110-34 47-96-47-95.5T611-387zM324 1213l230 262h174l231-262H786l-182 213h72l-181-213H324z"/><glyph glyph-name="uni1EAE" unicode="Ắ" horiz-adv-x="1301" d="m63 0 381 1477h416L1238 0H967L651 1314h2L334 0H63zm246 359v211h686V359H309zm70 1375h156q0-39 31-67t86-28q56 0 86.5 28t30.5 67h157q0-89-78.5-144T652 1535t-195 55-78 144zm120 75 276 198h220l-300-198H499z"/><glyph glyph-name="uni1EAF" unicode="ắ" horiz-adv-x="1243" d="M496-22q-119 0-209 37.5T146 124 95 295q0 109 59.5 179.5t160.5 109T539 633q182 18 254.5 34.5T866 721v2q0 70-63 108t-178 38q-121 0-185.5-42.5T375 692H115q0 125 66.5 211.5T364 1035t263 45q137 0 251-41t183-124 69-207V224q0-38 2.5-74.5T1143 84q10-32 24-54t22-30H929q-7 7-19.5 27.5T887 75q-10 30-15 64.5t-5 76.5l52-36q-30-61-91.5-106.5T681 3 496-22zm64 207q82 0 152 28t113 86.5T868 450v142l64-72q-64-24-154-39.5T596 456q-118-11-177.5-41T359 317q0-66 50-99t151-33zM367 1495h156q0-61 31-101.5t86-40.5q56 0 86.5 40.5T757 1495h157q0-116-78.5-180.5T640 1250t-195 64.5-78 180.5zm165 30 276 198h221l-301-198H532z"/><glyph glyph-name="uni1EB0" unicode="Ằ" horiz-adv-x="1301" d="m63 0 381 1477h416L1238 0H967L651 1314h2L334 0H63zm246 359v211h686V359H309zm70 1375h156q0-39 31-67t86-28q56 0 86.5 28t30.5 67h157q0-89-78.5-144T652 1535t-195 55-78 144zm428 75H612l-301 198h220z"/><glyph glyph-name="uni1EB1" unicode="ằ" horiz-adv-x="1243" d="M496-22q-119 0-209 37.5T146 124 95 295q0 109 59.5 179.5t160.5 109T539 633q182 18 254.5 34.5T866 721v2q0 70-63 108t-178 38q-121 0-185.5-42.5T375 692H115q0 125 66.5 211.5T364 1035t263 45q137 0 251-41t183-124 69-207V224q0-38 2.5-74.5T1143 84q10-32 24-54t22-30H929q-7 7-19.5 27.5T887 75q-10 30-15 64.5t-5 76.5l52-36q-30-61-91.5-106.5T681 3 496-22zm64 207q82 0 152 28t113 86.5T868 450v142l64-72q-64-24-154-39.5T596 456q-118-11-177.5-41T359 317q0-66 50-99t151-33zM366 1495h156q0-61 31.5-101.5T639 1353q56 0 87 40.5t31 101.5h156q0-116-78-180.5T639 1250q-117 0-195 64.5T366 1495zm393 30H563l-301 198h221z"/><glyph glyph-name="uni1EB2" unicode="Ẳ" horiz-adv-x="1301" d="m63 0 381 1477h416L1238 0H967L651 1314h2L334 0H63zm246 359v211h686V359H309zm70 1375h156q0-39 31-67t86-28q56 0 86.5 28t30.5 67h157q0-89-78.5-144T652 1535t-195 55-78 144zm60 310q111 0 201-8.5t143.5-36T837 1914q0-49-36-80.5t-97-46.5-136-15l-28 72q33 2 72 7.5t67 18 28 34.5q0 36-71.5 45t-196.5 9v86z"/><glyph glyph-name="uni1EB3" unicode="ẳ" horiz-adv-x="1243" d="M496-22q-119 0-209 37.5T146 124 95 295q0 109 59.5 179.5t160.5 109T539 633q182 18 254.5 34.5T866 721v2q0 70-63 108t-178 38q-121 0-185.5-42.5T375 692H115q0 125 66.5 211.5T364 1035t263 45q137 0 251-41t183-124 69-207V224q0-38 2.5-74.5T1143 84q10-32 24-54t22-30H929q-7 7-19.5 27.5T887 75q-10 30-15 64.5t-5 76.5l52-36q-30-61-91.5-106.5T681 3 496-22zm64 207q82 0 152 28t113 86.5T868 450v142l64-72q-64-24-154-39.5T596 456q-118-11-177.5-41T359 317q0-66 50-99t151-33zM368 1495h156q0-61 31-101.5t86-40.5q56 0 86.5 40.5T758 1495h157q0-116-78.5-180.5T641 1250t-195 64.5-78 180.5zm118 334q111 0 201-8.5t143.5-36T884 1699q0-49-36-80.5t-97-46.5-135-15l-29 72q33 2 72 7.5t67 18 28 34.5q0 36-71 45t-197 9v86z"/><glyph glyph-name="uni1EB4" unicode="Ẵ" horiz-adv-x="1301" d="m63 0 381 1477h416L1238 0H967L651 1314h2L334 0H63zm246 359v211h686V359H309zm70 1375h156q0-39 31-67t86-28q56 0 86.5 28t30.5 67h157q0-89-78.5-144T652 1535t-195 55-78 144zm597 268q-1-44-20.5-91.5T895 1830t-106-33q-51 0-86 20t-58 40q-22 19-44.5 33t-51.5 14q-37 0-52.5-24.5T480 1820H341q2 46 23.5 94t64.5 80.5 109 32.5q48 0 82.5-19.5T677 1969q23-19 47-34t50-15q35 0 49 23.5t15 58.5h138z"/><glyph glyph-name="uni1EB5" unicode="ẵ" horiz-adv-x="1243" d="M496-22q-119 0-209 37.5T146 124 95 295q0 109 59.5 179.5t160.5 109T539 633q182 18 254.5 34.5T866 721v2q0 70-63 108t-178 38q-121 0-185.5-42.5T375 692H115q0 125 66.5 211.5T364 1035t263 45q137 0 251-41t183-124 69-207V224q0-38 2.5-74.5T1143 84q10-32 24-54t22-30H929q-7 7-19.5 27.5T887 75q-10 30-15 64.5t-5 76.5l52-36q-30-61-91.5-106.5T681 3 496-22zm64 207q82 0 152 28t113 86.5T868 450v142l64-72q-64-24-154-39.5T596 456q-118-11-177.5-41T359 317q0-66 50-99t151-33zM368 1495h156q0-61 31.5-101.5T641 1353q56 0 87 40.5t31 101.5h156q0-116-78-180.5T641 1250q-117 0-195 64.5T368 1495zm597 274q-1-44-20.5-91.5T884 1597t-106-33q-53 0-86.5 20t-56.5 40q-21 19-42.5 33t-50.5 14q-37 0-54.5-24.5T469 1587H331q1 46 22.5 94t65 80.5T527 1794q48 0 82.5-19.5T667 1736t46.5-33.5T763 1688q35 0 49 23t15 58h138z"/><glyph glyph-name="uni1EB6" unicode="Ặ" horiz-adv-x="1301" d="m63 0 381 1477h416L1238 0H967L651 1314h2L334 0H63zm246 359v211h686V359H309zm341-748q-64 0-111 34.5T492-259q0 62 47.5 95.5T650-130t110-33.5 47-95.5-47-96-110-34zM379 1734h156q0-39 31-67t86-28q56 0 86.5 28t30.5 67h157q0-89-78.5-144T652 1535t-195 55-78 144z"/><glyph glyph-name="uni1EB7" unicode="ặ" horiz-adv-x="1243" d="M496-22q-119 0-209 37.5T146 124 95 295q0 109 59.5 179.5t160.5 109T539 633q182 18 254.5 34.5T866 721v2q0 70-63 108t-178 38q-121 0-185.5-42.5T375 692H115q0 125 66.5 211.5T364 1035t263 45q137 0 251-41t183-124 69-207V224q0-38 2.5-74.5T1143 84q10-32 24-54t22-30H929q-7 7-19.5 27.5T887 75q-10 30-15 64.5t-5 76.5l52-36q-30-61-91.5-106.5T681 3 496-22zm64 207q82 0 152 28t113 86.5T868 450v142l64-72q-64-24-154-39.5T596 456q-118-11-177.5-41T359 317q0-66 50-99t151-33zm51-572q-64 0-111 34t-47 95q0 62 47.5 96T611-128t110-34 47-96-47-95.5T611-387zM368 1495h156q0-61 31-101.5t86-40.5q56 0 86.5 40.5T758 1495h157q0-116-78.5-180.5T641 1250t-195 64.5-78 180.5z"/><glyph glyph-name="uni1EB8" unicode="Ẹ" horiz-adv-x="1124" d="m275 1265 119 131V766l-62 79h552V635H332l62 78V79L275 210h720V0H129v1475h866v-210H275zM586-389q-64 0-111 34.5T428-259q0 62 47.5 95.5T586-130t110-33.5 47-95.5-47-96-110-34z"/><glyph glyph-name="uni1EB9" unicode="ẹ" horiz-adv-x="1299" d="M230 446v187h743l-30-50v26q0 69-31 129.5t-94 98T658 874q-96 0-166.5-40.5T382.5 717 344 535q0-109 37-187.5t108.5-120T664 186q70 0 121 13t83.5 35.5 49 48.5 19.5 52h262q-6-67-44.5-130.5T1047 89.5t-167.5-82T655-23q-171 0-299 70T156.5 242 85 528q0 165 72.5 289T359 1010.5t296 69.5q172 0 297.5-70T1146 815.5t68-289.5q0-21-1-45t-3-35H230zm433-833q-64 0-111 34t-47 95q0 62 47.5 96T663-128t110-34 47-96-47-95.5T663-387z"/><glyph glyph-name="uni1EBA" unicode="Ẻ" horiz-adv-x="1124" d="m275 1265 119 131V766l-62 79h552V635H332l62 78V79L275 210h720V0H129v1475h866v-210H275zm87 526q111 0 201-8.5t143.5-36T760 1661q0-49-36-80.5t-97-46.5-136-15l-28 72q33 2 72 7.5t67 18 28 34.5q0 36-71.5 45t-196.5 9v86z"/><glyph glyph-name="uni1EBB" unicode="ẻ" horiz-adv-x="1299" d="M230 446v187h743l-30-50v26q0 69-31 129.5t-94 98T658 874q-96 0-166.5-40.5T382.5 717 344 535q0-109 37-187.5t108.5-120T664 186q70 0 121 13t83.5 35.5 49 48.5 19.5 52h262q-6-67-44.5-130.5T1047 89.5t-167.5-82T655-23q-171 0-299 70T156.5 242 85 528q0 165 72.5 289T359 1010.5t296 69.5q172 0 297.5-70T1146 815.5t68-289.5q0-21-1-45t-3-35H230zm220 1060q111 0 201-8.5t143.5-36T848 1376q0-50-36-81.5t-97-46.5-136-15l-28 73q33 2 72 7t67 18 28 35q0 35-71.5 44.5T450 1420v86z"/><glyph glyph-name="uni1EBC" unicode="Ẽ" horiz-adv-x="1124" d="m275 1265 119 131V766l-62 79h552V635H332l62 78V79L275 210h720V0H129v1475h866v-210H275zm624 484q-1-44-20.5-91.5T818 1577t-106-33q-51 0-86 20t-58 40q-22 19-44.5 33t-51.5 14q-37 0-52.5-24.5T403 1567H264q2 46 23.5 94t64.5 80.5 109 32.5q48 0 82.5-19.5T600 1716q23-19 47-34t50-15q35 0 49 23.5t15 58.5h138z"/><glyph glyph-name="uni1EBD" unicode="ẽ" horiz-adv-x="1299" d="M230 446v187h743l-30-50v26q0 69-31 129.5t-94 98T658 874q-96 0-166.5-40.5T382.5 717 344 535q0-109 37-187.5t108.5-120T664 186q70 0 121 13t83.5 35.5 49 48.5 19.5 52h262q-6-67-44.5-130.5T1047 89.5t-167.5-82T655-23q-171 0-299 70T156.5 242 85 528q0 165 72.5 289T359 1010.5t296 69.5q172 0 297.5-70T1146 815.5t68-289.5q0-21-1-45t-3-35H230zm741 1008q-1-44-20.5-91t-60.5-80-106-33q-51 0-86 20t-58 39q-22 19-44.5 33t-51.5 14q-37 0-52.5-24.5T475 1273H336q2 45 23.5 93t64.5 81 109 33q48 0 82.5-20t56.5-39q23-19 47-34t50-15q35 0 49 24t15 58h138z"/><glyph glyph-name="uni1EBE" unicode="Ế" horiz-adv-x="1124" d="m275 1265 119 131V766l-62 79h552V635H332l62 78V79L275 210h720V0H129v1475h866v-210H275zm-22 289 231 198h180l231-198H720l-182 158h72l-182-158H253zm533 154 222 199h183l-237-199H786z"/><glyph glyph-name="uni1EBF" unicode="ế" horiz-adv-x="1299" d="M230 446v187h743l-30-50v26q0 69-31 129.5t-94 98T658 874q-96 0-166.5-40.5T382.5 717 344 535q0-109 37-187.5t108.5-120T664 186q70 0 121 13t83.5 35.5 49 48.5 19.5 52h262q-6-67-44.5-130.5T1047 89.5t-167.5-82T655-23q-171 0-299 70T156.5 242 85 528q0 165 72.5 289T359 1010.5t296 69.5q172 0 297.5-70T1146 815.5t68-289.5q0-21-1-45t-3-35H230zm106 767 230 262h174l231-262H798l-182 213h72l-181-213H336zm473 220 192 263h179l-214-263H809z"/><glyph glyph-name="uni1EC0" unicode="Ề" horiz-adv-x="1124" d="m275 1265 119 131V766l-62 79h552V635H332l62 78V79L275 210h720V0H129v1475h866v-210H275zm-19 289 231 198h179l232-198H722l-181 158h71l-182-158H256zm790 154H878l-237 199h183z"/><glyph glyph-name="uni1EC1" unicode="ề" horiz-adv-x="1299" d="M230 446v187h743l-30-50v26q0 69-31 129.5t-94 98T658 874q-96 0-166.5-40.5T382.5 717 344 535q0-109 37-187.5t108.5-120T664 186q70 0 121 13t83.5 35.5 49 48.5 19.5 52h262q-6-67-44.5-130.5T1047 89.5t-167.5-82T655-23q-171 0-299 70T156.5 242 85 528q0 165 72.5 289T359 1010.5t296 69.5q172 0 297.5-70T1146 815.5t68-289.5q0-21-1-45t-3-35H230zm108 767 230 262h174l231-262H800l-182 213h72l-181-213H338zm709 220H889l-213 263h179z"/><glyph glyph-name="uni1EC2" unicode="Ể" horiz-adv-x="1124" d="m275 1265 119 131V766l-62 79h552V635H332l62 78V79L275 210h720V0H129v1475h866v-210H275zm-20 289 231 198h179l232-198H721l-181 158h71l-182-158H255zm427 422q111 0 201-8.5t144-36 54-85.5q0-50-36.5-81.5T947 1718t-135-15l-29 73q34 1 72.5 6.5T922 1801t28 35q0 35-71 44.5t-197 9.5v86z"/><glyph glyph-name="uni1EC3" unicode="ể" horiz-adv-x="1299" d="M230 446v187h743l-30-50v26q0 69-31 129.5t-94 98T658 874q-96 0-166.5-40.5T382.5 717 344 535q0-109 37-187.5t108.5-120T664 186q70 0 121 13t83.5 35.5 49 48.5 19.5 52h262q-6-67-44.5-130.5T1047 89.5t-167.5-82T655-23q-171 0-299 70T156.5 242 85 528q0 165 72.5 289T359 1010.5t296 69.5q172 0 297.5-70T1146 815.5t68-289.5q0-21-1-45t-3-35H230zm107 767 230 262h174l231-262H799l-182 213h72l-181-213H337zm543 218-26 65q30 2 65.5 7t61.5 16.5 26 31.5q0 32-65.5 41t-180.5 9v77q101 0 183.5-7.5t131-32.5 48.5-78q0-45-33.5-73.5t-88.5-42-122-13.5z"/><glyph glyph-name="uni1EC4" unicode="Ễ" horiz-adv-x="1124" d="m275 1265 119 131V766l-62 79h552V635H332l62 78V79L275 210h720V0H129v1475h866v-210H275zm-21 289 231 198h179l232-198H720l-181 158h71l-182-158H254zm645 472q-1-44-20.5-91.5T818 1854t-106-33q-51 0-86 20t-58 40q-22 19-44.5 33t-51.5 14q-37 0-52.5-24.5T403 1844H264q2 46 23.5 94t64.5 80.5 109 32.5q48 0 82.5-19.5T600 1993q23-19 47-34t50-15q35 0 49 23.5t15 58.5h138z"/><glyph glyph-name="uni1EC5" unicode="ễ" horiz-adv-x="1299" d="M230 446v187h743l-30-50v26q0 69-31 129.5t-94 98T658 874q-96 0-166.5-40.5T382.5 717 344 535q0-109 37-187.5t108.5-120T664 186q70 0 121 13t83.5 35.5 49 48.5 19.5 52h262q-6-67-44.5-130.5T1047 89.5t-167.5-82T655-23q-171 0-299 70T156.5 242 85 528q0 165 72.5 289T359 1010.5t296 69.5q172 0 297.5-70T1146 815.5t68-289.5q0-21-1-45t-3-35H230zm107 767 230 262h174l231-262H799l-182 213h72l-181-213H337zm449 333q-53 0-87 18.5t-56 39.5q-21 19-42 33.5t-51 14.5q-37 0-54-24.5t-19-58.5H339q1 45 23 93t65 81 108 33q49 0 83-20t57-39 47-34 50-15q34 0 48 24t15 58h138q0-44-20-91t-60.5-80-106.5-33z"/><glyph glyph-name="uni1EC6" unicode="Ệ" horiz-adv-x="1124" d="m275 1265 119 131V766l-62 79h552V635H332l62 78V79L275 210h720V0H129v1475h866v-210H275zM586-389q-64 0-111 34.5T428-259q0 62 47.5 95.5T586-130t110-33.5 47-95.5-47-96-110-34zM254 1554l231 198h179l232-198H720l-181 158h71l-182-158H254z"/><glyph glyph-name="uni1EC7" unicode="ệ" horiz-adv-x="1299" d="M230 446v187h743l-30-50v26q0 69-31 129.5t-94 98T658 874q-96 0-166.5-40.5T382.5 717 344 535q0-109 37-187.5t108.5-120T664 186q70 0 121 13t83.5 35.5 49 48.5 19.5 52h262q-6-67-44.5-130.5T1047 89.5t-167.5-82T655-23q-171 0-299 70T156.5 242 85 528q0 165 72.5 289T359 1010.5t296 69.5q172 0 297.5-70T1146 815.5t68-289.5q0-21-1-45t-3-35H230zm433-833q-64 0-111 34t-47 95q0 62 47.5 96T663-128t110-34 47-96-47-95.5T663-387zM337 1213l230 262h174l231-262H799l-182 213h72l-181-213H337z"/><glyph glyph-name="uni1EC8" unicode="Ỉ" horiz-adv-x="522" d="M131 0v1475h260V0H131zM49 1791q111 0 201-8.5t143.5-36T447 1661q0-49-36-80.5t-97-46.5-136-15l-28 72q33 2 72 7.5t67 18 28 34.5q0 36-71.5 45T49 1705v86z"/><glyph glyph-name="uni1EC9" unicode="ỉ" horiz-adv-x="514" d="M127 0v1062h260V0H127zM54 1506q111 0 201-8.5t143.5-36T452 1376q0-50-36-81.5t-97-46.5-136-15l-28 73q33 2 72 7t67 18 28 35q0 35-71.5 44.5T54 1420v86z"/><glyph glyph-name="uni1ECA" unicode="Ị" horiz-adv-x="522" d="M131 0v1475h260V0H131zm131-389q-64 0-111 34.5T104-259q0 62 47.5 95.5T262-130t110-33.5 47-95.5-47-96-110-34z"/><glyph glyph-name="uni1ECB" unicode="ị" horiz-adv-x="515" d="M127 0v1062h260V0H127zm131 1258q-64 0-111.5 34.5T99 1389q0 61 47.5 95t111.5 34q63 0 110-34t47-95q0-62-47-96.5T258 1258zm0-1645q-64 0-111 34t-47 95q0 62 47.5 96T258-128t110-34 47-96-47-95.5T258-387z"/><glyph glyph-name="uni1ECC" unicode="Ọ" horiz-adv-x="1455" d="M727-22q-134 0-250 50T273.5 175.5t-136 239T89 739t48.5 324T273 1300.5t203.5 146T727 1496q136 0 252.5-49.5t203.5-146 135.5-237.5 48.5-324-49-324.5-136.5-239T978 28 727-22zm0 217q104 0 188 56.5T1048.5 428t49.5 311q0 192-50 310.5T914 1223t-187 55q-101 0-185.5-55t-135-173.5T356 739t50.5-312 135-176T727 195zm1-584q-64 0-111 34.5T570-259q0 62 47.5 95.5T728-130t110-33.5 47-95.5-47-96-110-34z"/><glyph glyph-name="uni1ECD" unicode="ọ" horiz-adv-x="1308" d="M654-21q-168 0-296 70.5T157.5 245 85 531q0 162 72.5 285.5T358 1010t296 70 296-70 200.5-193.5T1223 531q0-161-72.5-286T950 49.5 654-21zm0 215q91 0 159 42t106 117.5T957 531t-38 176.5T813 823t-159 41q-90 0-158.5-41T389 707.5 351 531t38-177.5T495.5 236 654 194zm3-581q-64 0-111 34t-47 95q0 62 47.5 96T657-128t110-34 47-96-47-95.5T657-387z"/><glyph glyph-name="uni1ECE" unicode="Ỏ" horiz-adv-x="1455" d="M727-22q-134 0-250 50T273.5 175.5t-136 239T89 739t48.5 324T273 1300.5t203.5 146T727 1496q136 0 252.5-49.5t203.5-146 135.5-237.5 48.5-324-49-324.5-136.5-239T978 28 727-22zm0 217q104 0 188 56.5T1048.5 428t49.5 311q0 192-50 310.5T914 1223t-187 55q-101 0-185.5-55t-135-173.5T356 739t50.5-312 135-176T727 195zM515 1791q111 0 201-8.5t143.5-36T913 1661q0-49-36-80.5t-97-46.5-136-15l-28 72q33 2 72 7.5t67 18 28 34.5q0 36-71.5 45t-196.5 9v86z"/><glyph glyph-name="uni1ECF" unicode="ỏ" horiz-adv-x="1308" d="M654-21q-168 0-296 70.5T157.5 245 85 531q0 162 72.5 285.5T358 1010t296 70 296-70 200.5-193.5T1223 531q0-161-72.5-286T950 49.5 654-21zm0 215q91 0 159 42t106 117.5T957 531t-38 176.5T813 823t-159 41q-90 0-158.5-41T389 707.5 351 531t38-177.5T495.5 236 654 194zM451 1506q111 0 201-8.5t143.5-36T849 1376q0-50-36-81.5t-97-46.5-136-15l-28 73q33 2 72 7t67 18 28 35q0 35-71.5 44.5T451 1420v86z"/><glyph glyph-name="uni1ED0" unicode="Ố" horiz-adv-x="1455" d="M727-22q-134 0-250 50T273.5 175.5t-136 239T89 739t48.5 324T273 1300.5t203.5 146T727 1496q136 0 252.5-49.5t203.5-146 135.5-237.5 48.5-324-49-324.5-136.5-239T978 28 727-22zm0 217q104 0 188 56.5T1048.5 428t49.5 311q0 192-50 310.5T914 1223t-187 55q-101 0-185.5-55t-135-173.5T356 739t50.5-312 135-176T727 195zM406 1554l231 198h180l231-198H873l-182 158h72l-182-158H406zm533 154 222 199h183l-237-199H939z"/><glyph glyph-name="uni1ED1" unicode="ố" horiz-adv-x="1308" d="M654-21q-168 0-296 70.5T157.5 245 85 531q0 162 72.5 285.5T358 1010t296 70 296-70 200.5-193.5T1223 531q0-161-72.5-286T950 49.5 654-21zm0 215q91 0 159 42t106 117.5T957 531t-38 176.5T813 823t-159 41q-90 0-158.5-41T389 707.5 351 531t38-177.5T495.5 236 654 194zM337 1213l230 262h174l231-262H799l-182 213h72l-181-213H337zm473 220 192 263h179l-214-263H810z"/><glyph glyph-name="uni1ED2" unicode="Ồ" horiz-adv-x="1455" d="M727-22q-134 0-250 50T273.5 175.5t-136 239T89 739t48.5 324T273 1300.5t203.5 146T727 1496q136 0 252.5-49.5t203.5-146 135.5-237.5 48.5-324-49-324.5-136.5-239T978 28 727-22zm0 217q104 0 188 56.5T1048.5 428t49.5 311q0 192-50 310.5T914 1223t-187 55q-101 0-185.5-55t-135-173.5T356 739t50.5-312 135-176T727 195zM409 1554l231 198h179l232-198H875l-181 158h71l-182-158H409zm790 154h-168l-237 199h183z"/><glyph glyph-name="uni1ED3" unicode="ồ" horiz-adv-x="1308" d="M654-21q-168 0-296 70.5T157.5 245 85 531q0 162 72.5 285.5T358 1010t296 70 296-70 200.5-193.5T1223 531q0-161-72.5-286T950 49.5 654-21zm0 215q91 0 159 42t106 117.5T957 531t-38 176.5T813 823t-159 41q-90 0-158.5-41T389 707.5 351 531t38-177.5T495.5 236 654 194zM339 1213l230 262h174l231-262H801l-182 213h72l-181-213H339zm709 220H890l-213 263h179z"/><glyph glyph-name="uni1ED4" unicode="Ổ" horiz-adv-x="1455" d="M727-22q-134 0-250 50T273.5 175.5t-136 239T89 739t48.5 324T273 1300.5t203.5 146T727 1496q136 0 252.5-49.5t203.5-146 135.5-237.5 48.5-324-49-324.5-136.5-239T978 28 727-22zm0 217q104 0 188 56.5T1048.5 428t49.5 311q0 192-50 310.5T914 1223t-187 55q-101 0-185.5-55t-135-173.5T356 739t50.5-312 135-176T727 195zM408 1554l231 198h179l232-198H874l-181 158h71l-182-158H408zm427 422q111 0 201-8.5t144-36 54-85.5q0-50-36.5-81.5T1100 1718t-135-15l-29 73q34 1 72.5 6.5t66.5 18.5 28 35q0 35-71 44.5t-197 9.5v86z"/><glyph glyph-name="uni1ED5" unicode="ổ" horiz-adv-x="1308" d="M654-21q-168 0-296 70.5T157.5 245 85 531q0 162 72.5 285.5T358 1010t296 70 296-70 200.5-193.5T1223 531q0-161-72.5-286T950 49.5 654-21zm0 215q91 0 159 42t106 117.5T957 531t-38 176.5T813 823t-159 41q-90 0-158.5-41T389 707.5 351 531t38-177.5T495.5 236 654 194zM337 1213l230 262h174l231-262H799l-182 213h72l-181-213H337zm543 218-26 65q30 2 65.5 7t61.5 16.5 26 31.5q0 32-65.5 41t-180.5 9v77q101 0 183.5-7.5t131-32.5 48.5-78q0-45-33.5-73.5t-88.5-42-122-13.5z"/><glyph glyph-name="uni1ED6" unicode="Ỗ" horiz-adv-x="1455" d="M727-22q-134 0-250 50T273.5 175.5t-136 239T89 739t48.5 324T273 1300.5t203.5 146T727 1496q136 0 252.5-49.5t203.5-146 135.5-237.5 48.5-324-49-324.5-136.5-239T978 28 727-22zm0 217q104 0 188 56.5T1048.5 428t49.5 311q0 192-50 310.5T914 1223t-187 55q-101 0-185.5-55t-135-173.5T356 739t50.5-312 135-176T727 195zM407 1554l231 198h179l232-198H873l-181 158h71l-182-158H407zm644 472q-1-44-20.5-91.5T970 1854t-106-33q-51 0-86 20t-58 40q-22 19-44.5 33t-51.5 14q-37 0-52.5-24.5T555 1844H416q2 46 23.5 94t64.5 80.5 109 32.5q48 0 82.5-19.5T752 1993q23-19 47-34t50-15q35 0 49 23.5t15 58.5h138z"/><glyph glyph-name="uni1ED7" unicode="ỗ" horiz-adv-x="1308" d="M654-21q-168 0-296 70.5T157.5 245 85 531q0 162 72.5 285.5T358 1010t296 70 296-70 200.5-193.5T1223 531q0-161-72.5-286T950 49.5 654-21zm0 215q91 0 159 42t106 117.5T957 531t-38 176.5T813 823t-159 41q-90 0-158.5-41T389 707.5 351 531t38-177.5T495.5 236 654 194zM337 1213l230 262h174l231-262H799l-182 213h72l-181-213H337zm449 333q-53 0-87 18.5t-56 39.5q-21 19-42 33.5t-51 14.5q-37 0-54-24.5t-19-58.5H339q1 45 23 93t65 81 108 33q49 0 83-20t57-39 47-34 50-15q34 0 48 24t15 58h138q0-44-20-91t-60.5-80-106.5-33z"/><glyph glyph-name="uni1ED8" unicode="Ộ" horiz-adv-x="1455" d="M727-22q-134 0-250 50T273.5 175.5t-136 239T89 739t48.5 324T273 1300.5t203.5 146T727 1496q136 0 252.5-49.5t203.5-146 135.5-237.5 48.5-324-49-324.5-136.5-239T978 28 727-22zm0 217q104 0 188 56.5T1048.5 428t49.5 311q0 192-50 310.5T914 1223t-187 55q-101 0-185.5-55t-135-173.5T356 739t50.5-312 135-176T727 195zm1-584q-64 0-111 34.5T570-259q0 62 47.5 95.5T728-130t110-33.5 47-95.5-47-96-110-34zM407 1554l231 198h179l232-198H873l-181 158h71l-182-158H407z"/><glyph glyph-name="uni1ED9" unicode="ộ" horiz-adv-x="1308" d="M654-21q-168 0-296 70.5T157.5 245 85 531q0 162 72.5 285.5T358 1010t296 70 296-70 200.5-193.5T1223 531q0-161-72.5-286T950 49.5 654-21zm0 215q91 0 159 42t106 117.5T957 531t-38 176.5T813 823t-159 41q-90 0-158.5-41T389 707.5 351 531t38-177.5T495.5 236 654 194zm3-581q-64 0-111 34t-47 95q0 62 47.5 96T657-128t110-34 47-96-47-95.5T657-387zM337 1213l230 262h174l231-262H799l-182 213h72l-181-213H337z"/></font>
</defs>
</svg>
